<svg width="24" height="24" viewBox="0 0 24 24" fill="none" xmlns="http://www.w3.org/2000/svg">
<g id="icon/news">
<g id="Vector">
<path d="M19.899 5.99827H17.6001V4.49913C17.6001 3.67166 16.9284 3 16.101 3H4.49913C3.67166 3 3 3.67166 3 4.49913V18.7011C3 19.9683 4.03174 21 5.29891 21H18.7011C19.9683 21 21 19.9683 21 18.7011V7.09924C21 6.49336 20.5049 5.99827 19.899 5.99827ZM19.9994 18.7011C19.9994 19.4178 19.4178 20.0029 18.6976 20.0029H5.29542C4.57875 20.0029 3.99366 19.4212 3.99366 18.7011V4.49913C3.99366 4.22215 4.21869 4.00058 4.49221 4.00058H16.094C16.371 4.00058 16.5926 4.22562 16.5926 4.49913V16.5026C16.5926 16.7796 16.8177 17.0011 17.0912 17.0011C17.3647 17.0011 17.5897 16.7761 17.5897 16.5026V6.99884H19.8886C19.944 6.99884 19.989 7.04385 19.989 7.09924V18.7011H19.9994Z" fill="white"/>
<path d="M14.9965 8.69877H12.2268C12.005 8.69877 11.8251 8.87859 11.8251 9.10039V9.29774C11.8251 9.51954 12.005 9.69936 12.2268 9.69936H14.9965C15.2183 9.69936 15.3981 9.51954 15.3981 9.29774V9.10039C15.3981 8.87859 15.2183 8.69877 14.9965 8.69877Z" fill="white"/>
<path d="M7.02309 12.4864H8.5984C9.59898 12.4864 10.4126 11.6728 10.4126 10.6723V7.72591C10.4126 6.72534 9.59898 5.91173 8.5984 5.91173H7.02309C6.02251 5.91173 5.20889 6.72534 5.20889 7.72591V10.6723C5.20889 11.6728 6.02251 12.4864 7.02309 12.4864ZM6.19563 7.72245C6.19563 7.26544 6.56608 6.89499 7.02309 6.89499H8.5984C9.05541 6.89499 9.42586 7.26544 9.42586 7.72245V10.6688C9.42586 11.1258 9.05541 11.4963 8.5984 11.4963H7.02309C6.56608 11.4963 6.19563 11.1258 6.19563 10.6688V7.72245Z" fill="white"/>
<path d="M14.9965 5.89788H12.2268C12.005 5.89788 11.8251 6.0777 11.8251 6.2995V6.49685C11.8251 6.71865 12.005 6.89847 12.2268 6.89847H14.9965C15.2183 6.89847 15.3981 6.71865 15.3981 6.49685V6.2995C15.3981 6.0777 15.2183 5.89788 14.9965 5.89788Z" fill="white"/>
<path d="M14.9965 11.4997H12.2268C12.005 11.4997 11.8251 11.6795 11.8251 11.9013V12.0987C11.8251 12.3205 12.005 12.5003 12.2268 12.5003H14.9965C15.2183 12.5003 15.3981 12.3205 15.3981 12.0987V11.9013C15.3981 11.6795 15.2183 11.4997 14.9965 11.4997Z" fill="white"/>
<path d="M15.0034 14.2972H5.59665C5.37676 14.2972 5.19848 14.4754 5.19848 14.6953V14.8996C5.19848 15.1195 5.37676 15.2977 5.59665 15.2977H15.0034C15.2233 15.2977 15.4016 15.1195 15.4016 14.8996V14.6953C15.4016 14.4754 15.2233 14.2972 15.0034 14.2972Z" fill="white"/>
<path d="M10.8004 17.0981H5.59665C5.37676 17.0981 5.19848 17.2763 5.19848 17.4962V17.7005C5.19848 17.9204 5.37676 18.0986 5.59665 18.0986H10.8004C11.0203 18.0986 11.1985 17.9204 11.1985 17.7005V17.4962C11.1985 17.2763 11.0203 17.0981 10.8004 17.0981Z" fill="white"/>
</g>
</g>
</svg>
