<svg width="24" height="24" viewBox="0 0 24 24" fill="none" xmlns="http://www.w3.org/2000/svg">
<g id="icon/university">
<path id="Vector" d="M22.28 19.77H21.83V11.32C21.83 10.47 21.13 9.76999 20.28 9.76999H17.59C17.39 9.32999 17.08 8.93999 16.66 8.66999L13.66 6.74999C13.4 6.58999 13.12 6.48999 12.84 6.42999V5.41999C12.93 5.41999 13.03 5.42999 13.12 5.42999C13.63 5.42999 14.13 5.34999 14.61 5.19999L14.91 5.09999C15.1 5.05999 15.31 5.06999 15.49 5.12999L16.11 5.33999C16.28 5.39999 16.46 5.36999 16.61 5.26999C16.75 5.16999 16.84 4.99999 16.84 4.81999V2.31999C16.84 2.06999 16.68 1.85999 16.44 1.78999L16.2 1.71999C15.52 1.52999 14.79 1.56999 14.14 1.82999C13.74 1.98999 13.28 2.01999 12.86 1.89999L12.43 1.77999C12.43 1.77999 12.38 1.77999 12.35 1.77999C12.33 1.77999 12.31 1.76999 12.28 1.76999C12.27 1.76999 12.26 1.76999 12.25 1.76999C12.21 1.76999 12.16 1.77999 12.12 1.79999C12.09 1.79999 12.07 1.80999 12.04 1.82999C12 1.84999 11.97 1.86999 11.94 1.89999C11.92 1.91999 11.89 1.93999 11.87 1.95999C11.85 1.98999 11.83 2.01999 11.81 2.04999C11.79 2.07999 11.77 2.10999 11.76 2.14999C11.76 2.15999 11.75 2.16999 11.74 2.17999C11.74 2.19999 11.74 2.22999 11.74 2.24999C11.74 2.26999 11.73 2.29999 11.73 2.31999V6.42999C11.44 6.48999 11.16 6.58999 10.91 6.74999L7.91001 8.66999C7.49001 8.93999 7.18001 9.32999 6.98001 9.76999H4.29001C3.43001 9.76999 2.74001 10.47 2.74001 11.32V19.77H2.29001C1.99001 19.77 1.74001 20.02 1.74001 20.32C1.74001 20.62 1.99001 20.87 2.29001 20.87H7.29001H17.29H22.29C22.59 20.87 22.84 20.62 22.84 20.32C22.84 20.02 22.59 19.77 22.29 19.77H22.28ZM20.73 11.31V19.76H17.83V17.31H19.47C19.65 17.31 19.8 17.16 19.8 16.98V16.55C19.8 16.37 19.65 16.22 19.47 16.22H17.83V14.32H19.47C19.65 14.32 19.8 14.17 19.8 13.99V13.56C19.8 13.38 19.65 13.23 19.47 13.23H17.83V10.87H20.28C20.53 10.87 20.73 11.07 20.73 11.32V11.31ZM14.54 2.83999C14.91 2.68999 15.33 2.64999 15.72 2.72999V4.04999C15.38 3.94999 15.01 3.93999 14.61 4.02999L14.25 4.13999C13.78 4.28999 13.3 4.33999 12.81 4.29999V3.00999C13.39 3.10999 13.99 3.05999 14.53 2.84999L14.54 2.83999ZM8.49001 9.58999L11.49 7.66999C11.96 7.36999 12.58 7.36999 13.05 7.66999L16.05 9.58999C16.47 9.85999 16.72 10.31 16.72 10.81V19.76H14.22V16.72C14.22 16.28 13.86 15.91 13.41 15.91H11.12C10.68 15.91 10.31 16.27 10.31 16.72V19.76H7.81001V10.81C7.81001 10.31 8.06001 9.85999 8.48001 9.58999H8.49001ZM11.32 19.77V16.93H13.22V19.77H11.32ZM3.82001 11.31C3.82001 11.06 4.02001 10.86 4.27001 10.86H6.72001V13.22H5.08001C4.90001 13.22 4.75001 13.37 4.75001 13.55V13.98C4.75001 14.16 4.90001 14.31 5.08001 14.31H6.72001V16.21H5.08001C4.90001 16.21 4.75001 16.36 4.75001 16.54V16.97C4.75001 17.15 4.90001 17.3 5.08001 17.3H6.72001V19.75H3.82001V11.3V11.31Z" fill="white"/>
<path id="Vector_2" d="M12.27 13.01C13.32 13.01 14.18 12.15 14.18 11.1C14.18 10.05 13.32 9.19 12.27 9.19C11.22 9.19 10.36 10.05 10.36 11.1C10.36 12.15 11.22 13.01 12.27 13.01ZM12.27 10.3C12.72 10.3 13.08 10.66 13.08 11.11C13.08 11.56 12.72 11.92 12.27 11.92C11.82 11.92 11.46 11.56 11.46 11.11C11.46 10.66 11.82 10.3 12.27 10.3Z" fill="white"/>
</g>
</svg>
