<svg preserveAspectRatio="none" width="100%" height="100%" overflow="visible" style="display: block;" viewBox="0 0 40 40" fill="none" xmlns="http://www.w3.org/2000/svg">
<g id="Group">
<path id="Vector" d="M32.8544 13.9613C33.8101 9.00109 34.7381 3.98159 30.6971 2.00865C23.8341 -1.34118 6.37174 -1.20175 4.40493 7.88913C4.03442 9.62853 4.76158 12.6995 5.95621 15.5474C6.39943 12.5008 9.07612 7.85776 21.0432 7.07695C28.6784 6.57848 31.8398 9.6599 32.8579 13.9613" fill="var(--fill-0, #016BA3)"/>
<path id="Vector_2" d="M39.9911 8.83017C39.8803 5.43851 36.5423 3.42025 32.5671 2.21069C32.9999 2.59064 33.3947 3.02637 33.7236 3.52483C34.6828 4.9784 34.7174 7.89946 34.2742 10.9495C31.1612 32.3417 23.0516 31.9234 22.3591 31.9443C31.1958 34.9699 34.5096 27.5662 34.9356 26.754C35.1606 26.3217 40.2404 16.7847 39.9911 8.83017Z" fill="var(--fill-0, #017065)"/>
<path id="Vector_3" d="M23.7199 14.6725C24.0938 14.6063 24.4817 14.5749 24.873 14.5749C26.6389 14.5749 28.2456 15.2511 29.4541 16.3631C28.353 14.0904 26.0295 12.5218 23.3459 12.5218C23.1554 12.5218 22.9685 12.5288 22.778 12.5462C23.3597 11.7131 24.2012 11.0752 25.1811 10.7475C23.6748 10.5349 22.1409 11.0961 21.1229 12.2569C21.1263 12.1872 21.1263 12.1174 21.1263 12.0477C21.1263 11.1693 20.8632 10.3536 20.413 9.67392C19.9594 10.3536 19.6962 11.1693 19.6962 12.0477C19.6962 12.1174 19.6997 12.1872 19.7031 12.2569C18.6851 11.0961 17.1477 10.5349 15.6415 10.7475C16.6249 11.0752 17.4628 11.7131 18.0446 12.5462C17.8576 12.5322 17.6706 12.5218 17.4767 12.5218C14.7931 12.5218 12.4731 14.0904 11.3685 16.3631C12.5769 15.2511 14.1836 14.5749 15.9496 14.5749C16.3443 14.5749 16.7287 14.6098 17.1027 14.6725C15.4579 15.5718 14.2598 17.123 13.7785 18.9182C14.755 17.5936 16.2024 16.6211 17.9337 16.2794C18.1276 16.2411 18.3181 16.2132 18.512 16.1923L20.4096 18.099L22.3036 16.1923C22.4976 16.2132 22.688 16.2411 22.8819 16.2794C24.6132 16.6211 26.0641 17.5936 27.0372 18.9182C26.5558 17.1195 25.3577 15.5718 23.713 14.6725" fill="var(--fill-0, #017065)"/>
<path id="Vector_4" d="M21.2787 22.0343C21.2787 22.5188 20.8909 22.9092 20.4131 22.9092C19.9317 22.9092 19.5439 22.5188 19.5439 22.0343C19.5439 21.5498 19.9317 21.1594 20.4131 21.1594C20.8909 21.1594 21.2787 21.5498 21.2787 22.0343Z" fill="var(--fill-0, #017065)"/>
<path id="Vector_5" d="M21.116 24.0456C21.116 24.436 20.8009 24.7532 20.4131 24.7532C20.0253 24.7532 19.7067 24.436 19.7067 24.0456C19.7067 23.6552 20.0218 23.338 20.4131 23.338C20.7975 23.338 21.116 23.6552 21.116 24.0456Z" fill="var(--fill-0, #017065)"/>
<path id="Vector_6" d="M21.5071 19.6536C21.5071 20.2601 21.0154 20.7516 20.4164 20.7516C19.8139 20.7516 19.3256 20.2601 19.3256 19.6536C19.3256 19.0471 19.8139 18.5556 20.4164 18.5556C21.0154 18.5556 21.5071 19.0471 21.5071 19.6536Z" fill="var(--fill-0, #017065)"/>
<path id="Vector_7" d="M27.4769 23.5297C23.2767 23.5297 19.4677 25.2028 16.6595 27.9217H18.145C18.5259 27.9217 18.886 27.7753 19.1734 27.5244C21.4345 25.5514 24.2809 24.2094 27.47 23.812C28.2387 23.7179 29.0005 23.6796 29.7554 23.697C29.0109 23.5854 28.2491 23.5297 27.4735 23.5297" fill="var(--fill-0, #017065)"/>
<path id="Vector_8" d="M13.3458 23.5297C17.5495 23.5297 21.355 25.2028 24.1632 27.9217H22.6778C22.2969 27.9217 21.9368 27.7753 21.6493 27.5244C19.3882 25.5514 16.5418 24.2094 13.3527 23.812C12.584 23.7179 11.8222 23.6796 11.0674 23.697C11.8119 23.5854 12.5736 23.5297 13.3493 23.5297" fill="var(--fill-0, #017065)"/>
<path id="Vector_9" d="M3.44922 9.83414C2.16457 11.1169 -0.525943 14.3203 0.0904152 18.1581C0.890296 23.1567 12.5769 40 21.2094 40C25.4269 40 28.6784 36.8279 32.0164 31.8433C24.9006 38.2152 6.93269 28.6817 3.44922 9.83414Z" fill="var(--fill-0, #00A19B)"/>
</g>
</svg>
