<svg xmlns="http://www.w3.org/2000/svg" width="154" height="37" viewBox="0 0 154 37" fill="none">
  <path d="M23.3181 24.1526H24.097V19.6387H23.3181V24.1526ZM53.1723 19.6387H54.3072V20.417H53.9448V24.1526H48.798C48.4864 24.4812 48.0413 24.6821 47.5677 24.6821C47.094 24.6821 46.6616 24.4748 46.3596 24.1526H28.0389C27.1774 24.1526 26.4749 23.4508 26.4749 22.5863C26.4749 21.7218 27.1774 21.02 28.0389 21.02H28.484V20.7424H29.2629V23.3742H34.1427V21.02H34.9183V23.3742H40.2655V22.4491C40.2655 22.229 40.0874 22.0503 39.8681 22.0503H37.3281L37.061 21.2752L37.9607 19.6387H38.7936L37.932 21.2752H39.973C40.5643 21.2752 41.0443 21.7569 41.0443 22.3502V23.3742H43.0567V19.6387H43.8355V23.3742H45.9527C45.9273 23.2626 45.9114 23.1413 45.9114 23.0169C45.9114 22.0695 46.6553 21.3134 47.5709 21.3134C48.5055 21.3134 49.2558 22.0535 49.2558 23.0169C49.2558 23.1382 49.2398 23.2626 49.2176 23.3742H51.2521V19.6387H52.0278V23.3742H53.1691L53.1723 19.6387ZM28.4872 21.7983H28.0421C27.6066 21.7983 27.2569 22.1492 27.2569 22.5863C27.2569 23.0233 27.6066 23.3742 28.0421 23.3742H28.4872V21.7983ZM48.4801 23.0074C48.4801 22.4842 48.1018 22.095 47.5709 22.095C47.0527 22.095 46.6903 22.5001 46.6903 23.0074C46.6903 23.5082 47.0718 23.9038 47.5709 23.9038C48.0795 23.9038 48.4801 23.5305 48.4801 23.0074ZM56.4976 22.5863C56.4976 21.7218 57.2001 21.02 58.0616 21.02H58.5067V20.7424H59.2824V23.3742H63.7934V21.02H64.5691V24.1526H58.0648C57.2033 24.1526 56.4976 23.4508 56.4976 22.5863ZM57.2796 22.5863C57.2796 23.0201 57.6293 23.3742 58.0648 23.3742H58.5099V21.7983H58.0648C57.6293 21.7983 57.2796 22.1492 57.2796 22.5863ZM87.6011 24.1526H88.3799V19.6387H87.6011V24.1526ZM99.9007 20.1746H99.1346V20.0247C99.1346 19.846 99.214 19.7471 99.4366 19.7471H99.7227V19.4951H99.3921C98.9565 19.4951 98.6927 19.6833 98.6927 20.1842V20.5893H99.8975V20.1714L99.9007 20.1746ZM90.761 22.5863C90.761 21.7218 91.4636 21.02 92.3251 21.02H92.7701V20.7424H93.549V23.3742H98.9375V21.02H99.7131V23.3742H102.342V21.02H103.118V23.3742H105.664C105.594 23.2243 105.556 23.0552 105.556 22.8798C105.556 22.2194 106.087 21.6835 106.745 21.6835C107.403 21.6835 107.934 22.2194 107.934 22.8798C107.934 23.0552 107.893 23.2243 107.826 23.3742H108.344C108.392 23.2179 108.42 23.052 108.42 22.8798C108.42 21.9515 107.67 21.1954 106.742 21.1954C106.408 21.1954 106.097 21.2943 105.836 21.4634L105.404 20.7775C105.791 20.5287 106.249 20.3851 106.739 20.3851C108.112 20.3851 109.225 21.5017 109.225 22.8798C109.225 23.0488 109.206 23.2147 109.174 23.3742H111.456V19.6387H112.591V20.417H112.229V24.1526H92.3156C91.4541 24.1526 90.7515 23.4508 90.7515 22.5863M106.243 22.8766C106.243 23.1509 106.462 23.371 106.739 23.371C107.009 23.371 107.235 23.1509 107.235 22.8766C107.235 22.6022 107.012 22.3821 106.739 22.3821C106.465 22.3821 106.243 22.6022 106.243 22.8766ZM91.5303 22.5863C91.5303 23.0201 91.8801 23.3742 92.3156 23.3742H92.7606V21.7983H92.3156C91.8801 21.7983 91.5303 22.1492 91.5303 22.5863ZM113.164 24.1526H113.939V19.6387H113.164V24.1526ZM5.44565 24.9214C5.44565 25.1511 5.63323 25.3393 5.86212 25.3393C6.08783 25.3393 6.27538 25.1511 6.27538 24.9214C6.27538 24.6917 6.08783 24.5035 5.86212 24.5035C5.63005 24.5035 5.44565 24.6917 5.44565 24.9214ZM6.76813 24.5035C6.53606 24.5035 6.35486 24.6917 6.35486 24.9214C6.35486 25.1511 6.53924 25.3393 6.76813 25.3393C6.99702 25.3393 7.18459 25.1511 7.18459 24.9214C7.18459 24.6917 6.99702 24.5035 6.76813 24.5035ZM18.5909 20.3692C18.823 20.3692 19.0074 20.181 19.0074 19.9513C19.0074 19.7216 18.8198 19.5334 18.5909 19.5334C18.362 19.5334 18.1744 19.7216 18.1744 19.9513C18.1744 20.181 18.362 20.3692 18.5909 20.3692ZM33.9964 24.5035C33.7707 24.5035 33.5832 24.6917 33.5832 24.9214C33.5832 25.1511 33.7707 25.3393 33.9964 25.3393C34.2285 25.3393 34.4129 25.1511 34.4129 24.9214C34.4129 24.6917 34.2253 24.5035 33.9964 24.5035ZM35.3221 24.9214C35.3221 24.6917 35.1345 24.5035 34.9056 24.5035C34.6767 24.5035 34.4924 24.6917 34.4924 24.9214C34.4924 25.1511 34.6767 25.3393 34.9056 25.3393C35.1345 25.3393 35.3221 25.1511 35.3221 24.9214ZM92.182 20.3692C92.4141 20.3692 92.5953 20.181 92.5953 19.9513C92.5953 19.7216 92.4109 19.5334 92.182 19.5334C91.9531 19.5334 91.7656 19.7216 91.7656 19.9513C91.7656 20.181 91.9531 20.3692 92.182 20.3692ZM93.0913 20.3692C93.3233 20.3692 93.5045 20.181 93.5045 19.9513C93.5045 19.7216 93.3202 19.5334 93.0913 19.5334C92.8624 19.5334 92.6748 19.7216 92.6748 19.9513C92.6748 20.181 92.8624 20.3692 93.0913 20.3692ZM63.218 24.5035C62.9859 24.5035 62.8016 24.6917 62.8016 24.9214C62.8016 25.1511 62.9891 25.3393 63.218 25.3393C63.4469 25.3393 63.6313 25.1511 63.6313 24.9214C63.6313 24.6917 63.4469 24.5035 63.218 24.5035ZM64.5405 24.9214C64.5405 24.6917 64.3529 24.5035 64.1272 24.5035C63.8951 24.5035 63.7108 24.6917 63.7108 24.9214C63.7108 25.1511 63.8983 25.3393 64.1272 25.3393C64.3529 25.3393 64.5405 25.1511 64.5405 24.9214ZM102.231 24.5035C101.999 24.5035 101.818 24.6917 101.818 24.9214C101.818 25.1511 102.002 25.3393 102.231 25.3393C102.46 25.3393 102.647 25.1511 102.647 24.9214C102.647 24.6917 102.46 24.5035 102.231 24.5035ZM102.72 24.9214C102.72 25.1511 102.908 25.3393 103.137 25.3393C103.366 25.3393 103.55 25.1511 103.55 24.9214C103.55 24.6917 103.366 24.5035 103.137 24.5035C102.908 24.5035 102.72 24.6917 102.72 24.9214ZM57.9218 20.3692C58.1538 20.3692 58.335 20.181 58.335 19.9513C58.335 19.7216 58.1506 19.5334 57.9218 19.5334C57.6929 19.5334 57.5053 19.7216 57.5053 19.9513C57.5053 20.181 57.6929 20.3692 57.9218 20.3692ZM58.8278 20.3692C59.0599 20.3692 59.2442 20.181 59.2442 19.9513C59.2442 19.7216 59.0567 19.5334 58.8278 19.5334C58.6021 19.5334 58.4145 19.7216 58.4145 19.9513C58.4145 20.181 58.6021 20.3692 58.8278 20.3692ZM67.942 22.095C67.942 21.5017 67.462 21.02 66.8707 21.02H66.1459L65.9615 21.7919H66.7658C66.9851 21.7919 67.1632 21.9706 67.1632 22.1907V23.371H65.1795V24.1494H67.942V22.0886V22.095ZM27.8991 20.3692C28.1312 20.3692 28.3124 20.181 28.3124 19.9513C28.3124 19.7216 28.128 19.5334 27.8991 19.5334C27.6702 19.5334 27.4826 19.7216 27.4826 19.9513C27.4826 20.181 27.6702 20.3692 27.8991 20.3692ZM28.8083 20.3692C29.034 20.3692 29.2216 20.181 29.2216 19.9513C29.2216 19.7216 29.034 19.5334 28.8083 19.5334C28.5762 19.5334 28.3918 19.7216 28.3918 19.9513C28.3918 20.181 28.5794 20.3692 28.8083 20.3692ZM1.43055 20.3692C1.65626 20.3692 1.84384 20.181 1.84384 19.9513C1.84384 19.7216 1.65626 19.5334 1.43055 19.5334C1.19848 19.5334 1.01411 19.7216 1.01411 19.9513C1.01411 20.181 1.20166 20.3692 1.43055 20.3692ZM2.33976 20.3692C2.56547 20.3692 2.75302 20.181 2.75302 19.9513C2.75302 19.7216 2.56547 19.5334 2.33976 19.5334C2.10769 19.5334 1.92329 19.7216 1.92329 19.9513C1.92329 20.181 2.11087 20.3692 2.33976 20.3692ZM0 22.5863C0 21.7218 0.699376 21.02 1.56089 21.02H2.00595V20.7424H2.78482V23.3742H6.31036V21.02H7.0892V24.1526H1.56407C0.702553 24.1526 0 23.4508 0 22.5863ZM0.778844 22.5863C0.778844 23.0201 1.12854 23.3742 1.56407 23.3742H2.00913V21.7983H1.56407C1.12854 21.7983 0.778844 22.1492 0.778844 22.5863ZM8.13193 25.3776C7.98887 25.3776 7.82992 25.3552 7.73773 25.3265V24.5609C7.85535 24.5896 7.94754 24.596 8.04927 24.596C8.36082 24.596 8.46574 24.4333 8.46574 24.0505V21.0168H9.2414V23.371H14.1657V22.4459C14.1657 22.2258 13.9877 22.0472 13.7683 22.0472H11.2251L10.9613 21.272L11.8609 19.6355H12.6907L11.8323 21.272H13.8732C14.4645 21.272 14.9414 21.7537 14.9414 22.347V23.371H17.1063C16.9728 23.1382 16.8965 22.8702 16.8965 22.5831C16.8965 21.7186 17.5959 21.0168 18.4574 21.0168H19.6749V23.371H21.5983V19.6355H22.7363V20.4139H22.3739V24.1494H9.23187C9.18737 25.0075 8.85993 25.3744 8.12875 25.3744M17.669 22.5831C17.669 23.0169 18.0187 23.3678 18.451 23.371H18.8961V21.7951H18.4542C18.0187 21.7951 17.669 22.146 17.669 22.5831ZM70.4693 24.1494H70.037C69.1755 24.1494 68.4761 23.4476 68.4761 22.5831C68.4761 21.7186 69.1755 21.0168 70.037 21.0168H71.2577L71.2514 23.371H73.5816L72.8918 21.6006C73.4258 21.138 73.9567 20.8094 74.5957 20.8094C75.241 20.8094 75.791 21.138 76.3028 21.6069L75.6384 23.371H77.6412C78.0736 23.371 78.4233 23.0169 78.4233 22.5831V20.5702H79.2021V22.5831C79.2021 23.0169 79.5518 23.371 79.9873 23.371C80.4197 23.371 80.7726 23.0169 80.7726 22.5831V21.2401H81.5482V22.5831C81.5482 23.0169 81.8979 23.371 82.3335 23.371C82.769 23.371 83.1187 23.0169 83.1187 22.5831V20.5702H83.8943V22.5831C83.8943 23.0169 84.244 23.371 84.6795 23.371H85.878V19.6355H87.0161V20.4139H86.6537V24.1494H84.6764C84.2091 24.1494 83.7894 23.942 83.5033 23.6135C83.2172 23.942 82.7976 24.1494 82.3303 24.1494C81.8629 24.1494 81.4433 23.942 81.1572 23.6135C80.8711 23.942 80.4515 24.1494 79.9842 24.1494C79.5137 24.1494 79.094 23.942 78.8111 23.6135C78.525 23.942 78.1053 24.1494 77.638 24.1494H71.2355C71.1815 24.8799 70.8222 25.3744 69.824 25.3744C69.522 25.3744 69.3503 25.3361 69.0134 25.2404V24.4716C69.2868 24.5545 69.5252 24.596 69.77 24.596C70.1992 24.596 70.4185 24.5386 70.4693 24.1494ZM73.7628 21.9387L74.2683 23.3742H74.9327L75.4381 21.9323C75.1266 21.7218 74.9136 21.6388 74.5957 21.6388C74.2905 21.6388 74.0489 21.7345 73.7628 21.9387ZM70.4789 23.3742V21.7983H70.037C69.6047 21.7983 69.2518 22.1492 69.2518 22.5863C69.2518 23.0233 69.6047 23.3742 70.037 23.3742H70.4789Z" fill="#4F4E51"/>
  <path d="M6.5233 29.2631V31.0272C6.14182 31.1772 5.65542 31.2633 5.21036 31.2633C4.45375 31.2633 3.77979 30.9985 3.77979 30.2584C3.77979 29.579 4.36473 29.2312 5.18174 29.2312C5.34069 29.2312 5.54734 29.2408 5.77305 29.2727V29.2312C5.77305 28.8867 5.48694 28.791 5.07366 28.791C4.76212 28.791 4.30752 28.9154 4.01187 29.059L4.10724 28.2902C4.34884 28.1721 4.75575 28.0637 5.17538 28.0637C5.95107 28.0637 6.5233 28.3827 6.5233 29.2631ZM5.77305 29.8884C5.63317 29.8501 5.42971 29.8246 5.26122 29.8246C4.87974 29.8246 4.55865 29.9203 4.55865 30.2138C4.55865 30.4945 4.84795 30.5902 5.21671 30.5902C5.40745 30.5902 5.60774 30.5583 5.76987 30.5041V29.8916L5.77305 29.8884ZM9.10148 30.453C8.88212 30.5136 8.70409 30.5296 8.53878 30.5296C8.11597 30.5296 7.94114 30.3637 7.94114 29.8086V28.1721H7.19407V30.0224C7.19407 30.9634 7.78855 31.2665 8.56105 31.2665C9.08241 31.2665 9.4194 31.1899 9.85493 31.0464V28.1721H9.10465L9.10148 30.453ZM12.6366 26.8355H13.3836V31.107C13.0148 31.2091 12.6079 31.2633 12.1756 31.2633C11.0598 31.2633 10.4112 30.5742 10.4112 29.6715C10.4112 28.7687 11.0852 28.0637 12.1152 28.0637C12.2487 28.0637 12.4331 28.0796 12.6366 28.1051V26.8355ZM12.6366 28.8644C12.4522 28.8165 12.3028 28.8006 12.1692 28.8006C11.5779 28.8006 11.1965 29.0877 11.1965 29.6715C11.1965 30.2552 11.5779 30.5264 12.1692 30.5264C12.3123 30.5264 12.4713 30.5041 12.6366 30.4658V28.8644ZM14.2006 31.1995H14.9509V28.1689H14.2006V31.1995ZM23.3212 30.453C23.1019 30.5136 22.9239 30.5296 22.7554 30.5296C22.3326 30.5296 22.1609 30.3637 22.1609 29.8086V28.1721H21.4106V30.0224C21.4106 30.9634 22.0083 31.2665 22.7808 31.2665C23.299 31.2665 23.636 31.1899 24.0747 31.0464V28.1721H23.3244V30.453H23.3212ZM25.8772 29.9681V28.8708H27.028V28.1721H25.8772V27.062H25.1269V28.1721H24.5579V28.8708H25.1269V30.2361C25.1269 30.9634 25.4989 31.1995 26.3349 31.1995H27.047V30.5009H26.4144C26.0171 30.5009 25.8772 30.3765 25.8772 29.9681ZM29.0244 28.0637C28.8559 28.0637 28.6429 28.0892 28.4204 28.1275V26.8355H27.6701V31.1995H28.4204V28.858C28.6334 28.8197 28.8305 28.7974 28.9926 28.7974C29.4408 28.7974 29.6697 28.9633 29.6697 29.5183V31.1963H30.4168V29.3014C30.4168 28.3061 29.7969 28.0573 29.0244 28.0573M34.1903 29.6619C34.1903 30.5647 33.4814 31.2601 32.5531 31.2601C31.6249 31.2601 30.9159 30.5647 30.9159 29.6619C30.9159 28.7623 31.6249 28.0573 32.5531 28.0573C33.4814 28.0573 34.1903 28.7623 34.1903 29.6619ZM33.3987 29.6619C33.3987 29.1898 33.0777 28.7942 32.5531 28.7942C32.0286 28.7942 31.7043 29.1866 31.7043 29.6619C31.7043 30.1404 32.0286 30.5232 32.5531 30.5232C33.0777 30.5232 33.3987 30.1404 33.3987 29.6619ZM37.0419 31.1963H37.7921V28.1658H37.0419V31.1963ZM39.5946 29.9649V28.8676H40.7422V28.1689H39.5946V27.0588H38.8444V28.1689H38.2753V28.8676H38.8444V30.2329C38.8444 30.9602 39.2163 31.1963 40.0492 31.1963H40.7645V30.4977H40.1287C39.7345 30.4977 39.5946 30.3733 39.5946 29.9649ZM43.2124 30.3892C42.993 30.453 42.8118 30.469 42.6497 30.469C42.23 30.469 42.052 30.3031 42.052 29.748V28.1594H41.2954V29.9618C41.2954 30.9571 41.8422 31.2059 42.6084 31.2059C42.8023 31.2059 43.0057 31.1836 43.2092 31.1421V31.2059C43.2092 31.56 42.8817 31.7131 42.4208 31.7131C42.1283 31.7131 41.6515 31.6174 41.359 31.4866L41.5179 32.2714C41.7627 32.3479 42.1538 32.4053 42.389 32.4053C43.5811 32.4053 43.9594 32.0353 43.9594 30.9634V28.1594H43.2092V30.3892H43.2124ZM46.6012 27.8755V28.1658H46.0321V28.8644H46.6012V31.1931H47.3515V28.8644H48.4991V28.1658H47.3515V28.0158C47.3515 27.6872 47.4182 27.5309 47.806 27.5309H48.5181V26.8323H47.8029C46.9636 26.8323 46.6012 27.1513 46.6012 27.8755ZM51.9705 29.6619C51.9705 30.5647 51.2616 31.2601 50.3333 31.2601C49.4051 31.2601 48.6962 30.5647 48.6962 29.6619C48.6962 28.7623 49.4051 28.0573 50.3333 28.0573C51.2616 28.0573 51.9705 28.7623 51.9705 29.6619ZM51.179 29.6619C51.179 29.1898 50.8579 28.7942 50.3333 28.7942C49.8088 28.7942 49.4846 29.1866 49.4846 29.6619C49.4846 30.1404 49.8088 30.5232 50.3333 30.5232C50.8579 30.5232 51.179 30.1404 51.179 29.6619ZM59.2919 28.0573C58.9676 28.0573 58.4017 28.1275 57.9344 28.2136V31.1963H58.6846V28.8548C58.8976 28.8165 59.0979 28.7942 59.2601 28.7942C59.7051 28.7942 59.934 28.9601 59.934 29.5151V31.1931H60.6843V29.2982C60.6843 28.3029 60.058 28.0541 59.2887 28.0541M62.4327 29.9586V28.8612H63.5803V28.1626H62.4327V27.0524H61.6825V28.1626H61.1134V28.8612H61.6825V30.2265C61.6825 30.9539 62.0512 31.1899 62.8873 31.1899H63.6026V30.4913H62.9668C62.5694 30.4913 62.4327 30.3669 62.4327 29.9586ZM67.0201 29.9043H64.6262C64.7216 30.319 65.0681 30.5168 65.5355 30.5168H65.6149C65.9328 30.5168 66.3398 30.3988 66.5019 30.2489L66.8325 30.922C66.5114 31.1006 66.1109 31.2569 65.5132 31.2569C64.5595 31.2569 63.8569 30.5679 63.8569 29.6587C63.8569 28.7208 64.5722 28.0541 65.4623 28.0541C66.3906 28.0541 67.0582 28.7368 67.0201 29.9043ZM66.238 29.2791C66.1553 28.909 65.8597 28.7208 65.4528 28.7208C65.0522 28.7208 64.7502 28.9569 64.6612 29.2791H66.238ZM67.5541 31.1899H68.3044V26.8259H67.5541V31.1899ZM69.1214 31.1899H69.8684V26.8259H69.1214V31.1899ZM73.5911 29.9043H71.1973C71.2926 30.319 71.6392 30.5168 72.1033 30.5168H72.186C72.5007 30.5168 72.9076 30.3988 73.0665 30.2489L73.4004 30.922C73.0793 31.1006 72.6755 31.2569 72.081 31.2569C71.1242 31.2569 70.4248 30.5679 70.4248 29.6587C70.4248 28.7208 71.1401 28.0541 72.027 28.0541C72.9553 28.0541 73.6229 28.7368 73.5879 29.9043M72.7995 29.2791C72.72 28.909 72.4244 28.7208 72.0174 28.7208C71.6137 28.7208 71.3149 28.9569 71.2227 29.2791H72.7995ZM75.5938 28.7878C75.8736 28.7878 76.1089 28.8644 76.3091 28.976L76.6111 28.2966C76.3028 28.1402 75.9754 28.0477 75.5653 28.0477C74.6306 28.0477 73.9439 28.7368 73.9439 29.6523C73.9439 30.5742 74.6275 31.2505 75.5653 31.2505C75.9754 31.2505 76.3028 31.1644 76.6111 31.0081L76.3091 30.3254C76.1089 30.4435 75.8736 30.5136 75.5938 30.5136C75.0725 30.5136 74.7323 30.1691 74.7323 29.6523C74.7323 29.1355 75.0725 28.7878 75.5938 28.7878ZM78.1307 29.9522V28.8548H79.2815V28.1562H78.1307V27.0461H77.3805V28.1562H76.8114V28.8548H77.3805V30.2202C77.3805 30.9475 77.7524 31.1835 78.5853 31.1835H79.3006V30.4849H78.668C78.2706 30.4849 78.1307 30.3605 78.1307 29.9522ZM81.7453 30.4371C81.5259 30.4977 81.3479 30.5136 81.1794 30.5136C80.7566 30.5136 80.5849 30.3478 80.5849 29.7927V28.1562H79.8346V30.0064C79.8346 30.9475 80.4292 31.2505 81.2049 31.2505C81.723 31.2505 82.06 31.174 82.4955 31.0304V28.1562H81.7484L81.7453 30.4371ZM85.8875 29.2472V31.0113C85.506 31.1612 85.0197 31.2473 84.5746 31.2473C83.818 31.2473 83.1409 30.9826 83.1409 30.2425C83.1409 29.563 83.7258 29.2153 84.546 29.2153C84.7049 29.2153 84.9116 29.2249 85.1341 29.2568V29.2153C85.1341 28.8708 84.8512 28.7751 84.4379 28.7751C84.1264 28.7751 83.6686 28.8995 83.3761 29.043L83.4715 28.2742C83.7131 28.1562 84.12 28.0477 84.5364 28.0477C85.3153 28.0477 85.8875 28.3667 85.8875 29.2472ZM85.1341 29.8724C84.9974 29.8342 84.7939 29.8086 84.6254 29.8086C84.244 29.8086 83.9229 29.9043 83.9229 30.1978C83.9229 30.4785 84.209 30.5742 84.581 30.5742C84.7685 30.5742 84.9719 30.5423 85.1309 30.4881V29.8756L85.1341 29.8724ZM86.641 31.1867H87.3912V26.8228H86.641V31.1867ZM98.7753 29.6523C98.7753 30.5551 98.0664 31.2505 97.1381 31.2505C96.2098 31.2505 95.504 30.5551 95.504 29.6523C95.504 28.7527 96.2098 28.0477 97.1381 28.0477C98.0664 28.0477 98.7753 28.7527 98.7753 29.6523ZM97.9869 29.6523C97.9869 29.1802 97.6658 28.7846 97.1381 28.7846C96.6135 28.7846 96.2924 29.177 96.2924 29.6523C96.2924 30.1308 96.6135 30.5136 97.1381 30.5136C97.6658 30.5136 97.9869 30.1308 97.9869 29.6523ZM102.307 29.6459C102.307 30.5487 101.64 31.2505 100.603 31.2505C100.47 31.2505 100.292 31.241 100.082 31.2091V32.3702H99.3316V28.2104C99.7036 28.102 100.117 28.0477 100.546 28.0477C101.662 28.0477 102.31 28.7432 102.31 29.6459M101.528 29.6459C101.528 29.059 101.147 28.7846 100.556 28.7846C100.406 28.7846 100.25 28.8133 100.085 28.8484V30.453C100.269 30.4977 100.419 30.5136 100.556 30.5136C101.147 30.5136 101.528 30.2297 101.528 29.6459ZM105.855 29.898H103.461C103.557 30.3127 103.903 30.5104 104.367 30.5104H104.447C104.765 30.5104 105.171 30.3924 105.334 30.2425L105.667 30.9156C105.343 31.0942 104.943 31.2505 104.348 31.2505C103.391 31.2505 102.692 30.5615 102.692 29.6523C102.692 28.7144 103.407 28.0477 104.297 28.0477C105.222 28.0477 105.89 28.7304 105.855 29.898ZM105.07 29.2727C104.99 28.9027 104.695 28.7144 104.288 28.7144C103.884 28.7144 103.582 28.9505 103.493 29.2727H105.07ZM109.673 29.9522V28.8548H110.824V28.1562H109.673V27.0461H108.926V28.1562H108.357V28.8548H108.926V30.2202C108.926 30.9475 109.295 31.1835 110.131 31.1835H110.843V30.4849H110.21C109.813 30.4849 109.673 30.3605 109.673 29.9522ZM113.195 30.3765C112.979 30.4403 112.795 30.4562 112.633 30.4562C112.216 30.4562 112.038 30.2903 112.038 29.7353V28.1466H111.278V29.949C111.278 30.9443 111.825 31.1931 112.594 31.1931C112.785 31.1931 112.989 31.1708 113.192 31.1293V31.1931C113.192 31.5472 112.865 31.7003 112.404 31.7003C112.111 31.7003 111.638 31.6046 111.345 31.4738L111.504 32.2586C111.746 32.3352 112.137 32.3926 112.372 32.3926C113.567 32.3926 113.942 32.0225 113.942 30.9507V28.1466H113.192L113.195 30.3765ZM52.5237 28.9409V31.1835H53.274V29.0558C53.274 28.9282 53.3757 28.8261 53.4997 28.8261C53.7985 28.8261 54.2753 28.8261 54.2753 28.8261V28.1051H53.3535C52.8957 28.1051 52.5205 28.4784 52.5205 28.9409M34.7403 28.9409V31.1835H35.4905V29.0558C35.4905 28.9282 35.5923 28.8261 35.7162 28.8261C36.0151 28.8261 36.4919 28.8261 36.4919 28.8261V28.1051H35.57C35.1122 28.1051 34.7403 28.4784 34.7403 28.9409ZM93.4631 28.9409V31.1835H94.2134V29.0558C94.2134 28.9282 94.3151 28.8261 94.4391 28.8261C94.7316 28.8261 95.2148 28.8261 95.2148 28.8261V28.1051H94.2928C93.8351 28.1051 93.4631 28.4784 93.4631 28.9409ZM106.348 28.9409V31.1835H107.098V29.0558C107.098 28.9282 107.2 28.8261 107.324 28.8261C107.616 28.8261 108.099 28.8261 108.099 28.8261V28.1051H107.177C106.716 28.1051 106.345 28.4784 106.345 28.9409M14.563 26.861C14.3309 26.861 14.1466 27.0492 14.1466 27.2789C14.1466 27.5086 14.3341 27.6968 14.563 27.6968C14.7887 27.6968 14.9763 27.5086 14.9763 27.2789C14.9763 27.0492 14.7887 26.861 14.563 26.861ZM37.4011 26.861C37.1754 26.861 36.9878 27.0492 36.9878 27.2789C36.9878 27.5086 37.1754 27.6968 37.4011 27.6968C37.6332 27.6968 37.8176 27.5086 37.8176 27.2789C37.8176 27.0492 37.63 26.861 37.4011 26.861Z" fill="#4F4E51"/>
  <path d="M3.33489 29.9648C3.33489 30.8038 2.60053 31.2663 1.61504 31.2663C1.01102 31.2663 0.381584 31.1036 0.0128174 30.8803L0.321183 30.1977C0.626369 30.3923 1.14773 30.5358 1.59915 30.5358C2.12369 30.5358 2.52742 30.3635 2.52742 29.9584C2.52742 29.5915 2.19998 29.4703 1.69769 29.3459L1.34165 29.2534C0.553249 29.0588 0.146336 28.5963 0.146336 27.9519C0.146336 27.2405 0.778968 26.7588 1.72314 26.7588C2.26357 26.7588 2.87711 26.9247 3.2427 27.1512L2.93751 27.8338C2.61961 27.6297 2.13324 27.4957 1.71361 27.4957C1.30351 27.4957 0.941091 27.6584 0.941091 27.9678C0.941091 28.2517 1.15091 28.408 1.63412 28.5325L1.99971 28.625C2.73406 28.8068 3.33489 29.1832 3.33489 29.9648ZM19.4907 26.8385L21.0992 31.2025H20.2918L19.9199 30.1753H18.1174L17.7518 31.2025H16.9411L18.5529 26.8385H19.4907ZM19.6623 29.448L19.0202 27.6329L18.3748 29.448H19.6623ZM93.1009 28.172C93.1009 28.8993 92.5859 29.5724 91.5114 29.5724H90.6531V31.2025H89.8805V26.8385H91.5114C92.6209 26.8385 93.1009 27.4893 93.1009 28.172ZM92.2871 28.1879C92.2871 27.7573 91.9819 27.5595 91.3461 27.5595H90.6531V28.8515H91.3461C91.9088 28.8515 92.2871 28.6951 92.2871 28.1879ZM56.3864 31.2025H57.1366V26.8385H56.3864V31.2025Z" fill="#017065"/>
  <path d="M147.44 12.7769C148.317 8.23748 149.169 3.64381 145.459 1.83824C139.158 -1.2274 123.127 -1.0998 121.321 7.21985C120.981 8.81169 121.648 11.6221 122.745 14.2284C123.152 11.4403 125.609 7.19114 136.596 6.47657C143.606 6.02039 146.508 8.8404 147.443 12.7769" fill="#016BA3"/>
  <path d="M153.992 8.08086C153.89 4.97694 150.826 3.1299 147.176 2.02295C147.573 2.37066 147.936 2.76942 148.238 3.2256C149.118 4.55585 149.15 7.22911 148.743 10.0204C145.885 29.5977 138.44 29.2149 137.804 29.2341C145.917 32.003 148.959 25.2274 149.35 24.4841C149.557 24.0885 154.221 15.3606 153.992 8.08086Z" fill="#017065"/>
  <path d="M139.054 13.4276C139.397 13.3669 139.753 13.3382 140.112 13.3382C141.733 13.3382 143.209 13.9571 144.318 14.9747C143.307 12.8948 141.174 11.4593 138.71 11.4593C138.535 11.4593 138.364 11.4657 138.189 11.4816C138.723 10.7192 139.495 10.1354 140.395 9.83556C139.012 9.64097 137.604 10.1546 136.669 11.2169C136.672 11.1531 136.672 11.0893 136.672 11.0255C136.672 10.2216 136.431 9.47509 136.018 8.85303C135.601 9.47509 135.36 10.2216 135.36 11.0255C135.36 11.0893 135.363 11.1531 135.366 11.2169C134.431 10.1546 133.02 9.64097 131.637 9.83556C132.54 10.1354 133.309 10.7192 133.843 11.4816C133.672 11.4689 133.5 11.4593 133.322 11.4593C130.858 11.4593 128.728 12.8948 127.714 14.9747C128.823 13.9571 130.299 13.3382 131.92 13.3382C132.282 13.3382 132.635 13.3701 132.978 13.4276C131.468 14.2506 130.368 15.6702 129.927 17.313C130.823 16.1008 132.152 15.2108 133.741 14.8982C133.919 14.8631 134.094 14.8376 134.272 14.8184L136.014 16.5634L137.753 14.8184C137.931 14.8376 138.106 14.8631 138.284 14.8982C139.874 15.2108 141.206 16.1008 142.099 17.313C141.657 15.667 140.557 14.2506 139.047 13.4276" fill="#017065"/>
  <path d="M136.812 20.165C136.812 20.6084 136.456 20.9657 136.018 20.9657C135.576 20.9657 135.22 20.6084 135.22 20.165C135.22 19.7215 135.576 19.3643 136.018 19.3643C136.456 19.3643 136.812 19.7215 136.812 20.165Z" fill="#017065"/>
  <path d="M136.663 22.006C136.663 22.3633 136.374 22.6536 136.018 22.6536C135.662 22.6536 135.369 22.3633 135.369 22.006C135.369 21.6487 135.658 21.3584 136.018 21.3584C136.371 21.3584 136.663 21.6487 136.663 22.006Z" fill="#017065"/>
  <path d="M137.022 17.9863C137.022 18.5414 136.571 18.9912 136.021 18.9912C135.468 18.9912 135.019 18.5414 135.019 17.9863C135.019 17.4312 135.468 16.9814 136.021 16.9814C136.571 16.9814 137.022 17.4312 137.022 17.9863Z" fill="#017065"/>
  <path d="M142.503 21.5337C138.647 21.5337 135.15 23.0649 132.572 25.5531H133.935C134.285 25.5531 134.616 25.4192 134.879 25.1895C136.955 23.3839 139.569 22.1557 142.496 21.7921C143.202 21.7059 143.902 21.6709 144.595 21.6868C143.911 21.5847 143.212 21.5337 142.5 21.5337" fill="#017065"/>
  <path d="M129.529 21.5337C133.389 21.5337 136.882 23.0649 139.461 25.5531H138.097C137.747 25.5531 137.416 25.4192 137.153 25.1895C135.077 23.3839 132.463 22.1557 129.536 21.7921C128.83 21.7059 128.131 21.6709 127.438 21.6868C128.121 21.5847 128.82 21.5337 129.532 21.5337" fill="#017065"/>
  <path d="M120.444 9C119.264 10.1739 116.794 13.1056 117.36 16.6178C118.094 21.1924 128.823 36.6067 136.749 36.6067C140.621 36.6067 143.606 33.7037 146.67 29.142C140.138 34.9734 123.642 26.2486 120.444 9Z" fill="#00A19B"/>
</svg>
