<svg width="23" height="23" viewBox="0 0 23 23" fill="none" xmlns="http://www.w3.org/2000/svg">
<path fill-rule="evenodd" clip-rule="evenodd" d="M11.5 2.25C8.6005 2.25 6.25 4.60051 6.25 7.5C6.25 8.18431 6.38054 8.83631 6.61739 9.43376C7.14429 10.7629 8.19892 11.8259 9.52113 12.3645C10.6499 10.2165 12.9029 8.75 15.5 8.75C15.8668 8.75 16.2271 8.77933 16.5787 8.83585C16.6904 8.40988 16.75 7.96231 16.75 7.5C16.75 4.60051 14.3995 2.25 11.5 2.25ZM18.024 9.23795C18.1715 8.68287 18.25 8.10018 18.25 7.5C18.25 3.77208 15.2279 0.75 11.5 0.75C7.77208 0.75 4.75 3.77208 4.75 7.5C4.75 8.10018 4.82851 8.68287 4.97604 9.23795C2.49884 10.2374 0.75 12.6637 0.75 15.5C0.75 19.2279 3.77208 22.25 7.5 22.25C8.99665 22.25 10.3807 21.7622 11.5 20.9376C12.6193 21.7622 14.0034 22.25 15.5 22.25C19.2279 22.25 22.25 19.2279 22.25 15.5C22.25 12.6637 20.5012 10.2374 18.024 9.23795ZM10.3754 19.8934C9.36281 18.7132 8.75 17.1778 8.75 15.5C8.75 14.8998 8.82851 14.3172 8.97603 13.7621C7.48677 13.1614 6.26195 12.0456 5.52108 10.6355C3.60207 11.4169 2.25 13.3014 2.25 15.5C2.25 18.3995 4.60051 20.75 7.5 20.75C8.56203 20.75 9.54943 20.4353 10.3754 19.8934ZM15.5 10.25C13.2846 10.25 11.388 11.6224 10.6174 13.5662C10.3805 14.1637 10.25 14.8157 10.25 15.5C10.25 17.0548 10.9249 18.451 12.0002 19.4134C12.9295 20.2451 14.1549 20.75 15.5 20.75C18.3995 20.75 20.75 18.3995 20.75 15.5C20.75 13.08 19.112 11.0406 16.8828 10.4338C16.4431 10.3141 15.9796 10.25 15.5 10.25Z" fill="white"/>
</svg>
