<svg width="22" height="20" viewBox="0 0 22 20" fill="none" xmlns="http://www.w3.org/2000/svg">
<path d="M20.1915 6.25059L20.1904 6.24939L20.1832 6.24142C20.1762 6.23381 20.1651 6.22166 20.1498 6.20527C20.1192 6.17248 20.0722 6.12277 20.0097 6.05855C19.8845 5.93005 19.6972 5.74377 19.4545 5.51896C18.9684 5.06865 18.264 4.46748 17.3948 3.8671C15.6422 2.65647 13.2932 1.5 10.75 1.5C8.20686 1.5 5.85783 2.65647 4.10519 3.8671C3.23601 4.46748 2.53165 5.06865 2.04553 5.51896C1.80284 5.74377 1.61555 5.93005 1.49035 6.05855C1.42778 6.12277 1.38079 6.17248 1.35022 6.20527C1.33494 6.22166 1.32378 6.23381 1.31683 6.24142L1.30958 6.24939L1.30875 6.25031C1.03237 6.55845 0.558122 6.58491 0.249696 6.30874C-0.0588865 6.03242 -0.0850458 5.55827 0.191268 5.24969C0.191191 5.2498 0.19206 5.25058 0.260857 5.31214C0.330598 5.37454 0.470137 5.4994 0.749243 5.74932L0.191268 5.24969L0.193294 5.24743L0.196965 5.24336L0.20921 5.22989C0.219541 5.21858 0.234187 5.20266 0.253047 5.18243C0.290763 5.14197 0.345357 5.08426 0.41599 5.01177C0.557206 4.86683 0.762841 4.66248 1.02618 4.41854C1.55212 3.93135 2.31222 3.28252 3.25268 2.6329C5.11933 1.34353 7.77031 0 10.75 0C13.7297 0 16.3807 1.34353 18.2473 2.6329C19.1878 3.28252 19.9479 3.93135 20.4738 4.41854C20.7372 4.66248 20.9428 4.86683 21.084 5.01177C21.1547 5.08426 21.2093 5.14197 21.247 5.18243C21.2658 5.20266 21.2805 5.21858 21.2908 5.22989L21.3031 5.24336L21.3067 5.24743L21.3079 5.24879C21.3081 5.249 21.3087 5.24969 20.75 5.75L21.3087 5.24969C21.5851 5.55827 21.5589 6.03242 21.2503 6.30874C20.9418 6.58497 20.4679 6.55891 20.1915 6.25059Z" fill="#161616"/>
<path fill-rule="evenodd" clip-rule="evenodd" d="M10.75 15.5C8.67895 15.5 7.00001 13.8211 7.00001 11.75C7.00001 9.67893 8.67895 8 10.75 8C12.8211 8 14.5 9.67893 14.5 11.75C14.5 13.8211 12.8211 15.5 10.75 15.5ZM8.50001 11.75C8.50001 12.9926 9.50737 14 10.75 14C11.9927 14 13 12.9926 13 11.75C13 10.5074 11.9927 9.5 10.75 9.5C9.50737 9.5 8.50001 10.5074 8.50001 11.75Z" fill="#161616"/>
<path fill-rule="evenodd" clip-rule="evenodd" d="M4.27032 6.46298C5.97597 5.13141 8.17945 4 10.75 4C13.3206 4 15.5241 5.13141 17.2297 6.46298C18.9369 7.79576 20.1988 9.36974 20.9046 10.3595L20.9578 10.4337C21.211 10.7858 21.5 11.1878 21.5 11.75C21.5 12.3122 21.211 12.7142 20.9578 13.0663L20.9046 13.1405C20.1988 14.1303 18.9369 15.7042 17.2297 17.037C15.5241 18.3686 13.3206 19.5 10.75 19.5C8.17945 19.5 5.97597 18.3686 4.27032 17.037C2.56314 15.7042 1.30128 14.1303 0.595425 13.1405L0.542207 13.0663C0.28905 12.7142 1.43544e-05 12.3122 1.43544e-05 11.75C1.43544e-05 11.1878 0.28905 10.7858 0.542206 10.4337L0.595425 10.3595C1.30128 9.36974 2.56314 7.79576 4.27032 6.46298ZM5.19337 7.64534C3.64239 8.85618 2.47689 10.3047 1.81668 11.2305C1.65336 11.4595 1.57563 11.5713 1.5293 11.6603C1.49984 11.7169 1.49992 11.7324 1.50001 11.7476L1.50001 11.75L1.50001 11.7524C1.49992 11.7676 1.49984 11.7831 1.5293 11.8397C1.57563 11.9287 1.65336 12.0405 1.81669 12.2695C2.47689 13.1953 3.64239 14.6438 5.19337 15.8547C6.74589 17.0667 8.63135 18 10.75 18C12.8687 18 14.7541 17.0667 16.3067 15.8547C17.8576 14.6438 19.0231 13.1953 19.6833 12.2695C19.8467 12.0405 19.9244 11.9287 19.9707 11.8397C20.0002 11.7831 20.0001 11.7676 20 11.7524L20 11.75L20 11.7476C20.0001 11.7324 20.0002 11.7169 19.9707 11.6603C19.9244 11.5713 19.8467 11.4595 19.6833 11.2305C19.0231 10.3047 17.8576 8.85618 16.3067 7.64534C14.7541 6.43331 12.8687 5.5 10.75 5.5C8.63135 5.5 6.74589 6.43331 5.19337 7.64534Z" fill="#161616"/>
</svg>
