<svg width="21" height="22" viewBox="0 0 21 22" fill="none" xmlns="http://www.w3.org/2000/svg">
<path d="M9.75 7C9.75 6.58579 10.0858 6.25 10.5 6.25C10.9142 6.25 11.25 6.58579 11.25 7V15C11.25 15.4142 10.9142 15.75 10.5 15.75C10.0858 15.75 9.75 15.4142 9.75 15V7Z" fill="white"/>
<path d="M7.5 8.25C7.08579 8.25 6.75 8.58579 6.75 9V13C6.75 13.4142 7.08579 13.75 7.5 13.75C7.91421 13.75 8.25 13.4142 8.25 13V9C8.25 8.58579 7.91421 8.25 7.5 8.25Z" fill="white"/>
<path d="M3.75 10C3.75 9.58579 4.08579 9.25 4.5 9.25C4.91421 9.25 5.25 9.58579 5.25 10V12C5.25 12.4142 4.91421 12.75 4.5 12.75C4.08579 12.75 3.75 12.4142 3.75 12V10Z" fill="white"/>
<path d="M13.5 8.25C13.9142 8.25 14.25 8.58579 14.25 9V13C14.25 13.4142 13.9142 13.75 13.5 13.75C13.0858 13.75 12.75 13.4142 12.75 13V9C12.75 8.58579 13.0858 8.25 13.5 8.25Z" fill="white"/>
<path d="M17.25 10C17.25 9.58579 16.9142 9.25 16.5 9.25C16.0858 9.25 15.75 9.58579 15.75 10V12C15.75 12.4142 16.0858 12.75 16.5 12.75C16.9142 12.75 17.25 12.4142 17.25 12V10Z" fill="white"/>
<path fill-rule="evenodd" clip-rule="evenodd" d="M10.5572 0.75H10.4428C8.25212 0.749987 6.53144 0.749976 5.18802 0.930594C3.81137 1.11568 2.71911 1.50272 1.86091 2.36091C1.00272 3.21911 0.615681 4.31137 0.430594 5.68802C0.249976 7.03144 0.249987 8.75212 0.25 10.9428V11.0572C0.249987 13.2479 0.249976 14.9686 0.430594 16.312C0.615681 17.6886 1.00272 18.7809 1.86091 19.6391C2.71911 20.4973 3.81137 20.8843 5.18802 21.0694C6.53144 21.25 8.2521 21.25 10.4428 21.25H10.5572C12.7479 21.25 14.4686 21.25 15.812 21.0694C17.1886 20.8843 18.2809 20.4973 19.1391 19.6391C19.9973 18.7809 20.3843 17.6886 20.5694 16.312C20.75 14.9686 20.75 13.2479 20.75 11.0572V10.9428C20.75 8.75214 20.75 7.03144 20.5694 5.68802C20.3843 4.31137 19.9973 3.21911 19.1391 2.36091C18.2809 1.50272 17.1886 1.11568 15.812 0.930594C14.4686 0.749976 12.7479 0.749987 10.5572 0.75ZM2.92157 3.42157C3.45462 2.88853 4.17757 2.57994 5.3879 2.41722C6.61979 2.25159 8.23963 2.25 10.5 2.25C12.7604 2.25 14.3802 2.25159 15.6121 2.41722C16.8224 2.57994 17.5454 2.88853 18.0784 3.42157C18.6115 3.95462 18.9201 4.67757 19.0828 5.8879C19.2484 7.11979 19.25 8.73963 19.25 11C19.25 13.2604 19.2484 14.8802 19.0828 16.1121C18.9201 17.3224 18.6115 18.0454 18.0784 18.5784C17.5454 19.1115 16.8224 19.4201 15.6121 19.5828C14.3802 19.7484 12.7604 19.75 10.5 19.75C8.23963 19.75 6.61979 19.7484 5.3879 19.5828C4.17757 19.4201 3.45462 19.1115 2.92157 18.5784C2.38853 18.0454 2.07994 17.3224 1.91722 16.1121C1.75159 14.8802 1.75 13.2604 1.75 11C1.75 8.73963 1.75159 7.11979 1.91722 5.8879C2.07994 4.67757 2.38853 3.95462 2.92157 3.42157Z" fill="white"/>
</svg>
