<svg width="20" height="20" viewBox="0 0 20 20" fill="none" xmlns="http://www.w3.org/2000/svg">
<path d="M9.74892 19.5H9.75C14.1939 19.5 16.424 19.5 17.962 17.962C19.416 16.506 19.491 14.345 19.498 10.651C19.498 10.237 19.163 9.9 18.749 9.9H18.747C18.333 9.9 17.997 10.235 17.997 10.649C17.99 14.24 17.885 15.917 16.9 16.902C15.801 18 13.779 18 9.74902 18C5.71902 18 3.696 18 2.598 16.902C1.5 15.803 1.5 13.78 1.5 9.75002C1.5 5.72002 1.50002 3.69705 2.59902 2.59805C3.58302 1.61305 5.25998 1.507 8.85098 1.5C9.26598 1.5 9.6 1.16302 9.6 0.749023C9.599 0.335023 9.264 0 8.85 0H8.848C5.153 0.007 2.99199 0.0819882 1.53799 1.53799C0 3.07498 0 5.30597 0 9.7499C0 14.1938 0 16.424 1.53799 17.962C3.07498 19.5 5.30599 19.5 9.74892 19.5Z" fill="white"/>
<path d="M8.27009 11.3401C8.41709 11.4851 8.6081 11.5581 8.7991 11.5581C8.9921 11.5581 9.18408 11.4831 9.33108 11.3361L17.9101 2.7071C17.9691 3.3131 18.0151 4.27011 17.9941 5.76511C17.9881 6.18011 18.3191 6.52005 18.7331 6.52605C19.1491 6.53605 19.4881 6.20108 19.4941 5.78708C19.556 1.4379 19.0885 0.968478 18.8374 0.716403C18.5854 0.464362 18.1161 -0.00488403 13.7701 0.0571021C13.3561 0.0631021 13.0251 0.40404 13.0311 0.81804C13.0371 1.22804 13.3721 1.5571 13.7811 1.5571H13.7921C15.2931 1.5361 16.2511 1.58206 16.8551 1.64206L8.26707 10.2791C7.97507 10.5731 7.97609 11.0481 8.27009 11.3401Z" fill="white"/>
</svg>
