<svg width="25" height="25" viewBox="0 0 25 25" fill="none" xmlns="http://www.w3.org/2000/svg">
  <!-- Large A -->
  <path d="M3 19L8 4H10.5L15.5 19H12.8L11.6 15H7.4L6.2 19H3ZM8.2 12.5H10.8L9.5 7.5L8.2 12.5Z" fill="white"/>
  <!-- Small a -->
  <path d="M17.5 19V17.8C17 18.5 16.2 19.2 15.1 19.2C13.5 19.2 12.2 17.9 12.2 16C12.2 14.1 13.5 12.8 15.4 12.8C16.2 12.8 17 13.1 17.5 13.7V12.7C17.5 11.7 16.8 11 15.7 11C14.9 11 14.2 11.4 13.8 12.1L12.2 11C12.9 9.9 14.1 9.2 15.8 9.2C18.1 9.2 19.5 10.5 19.5 12.7V19H17.5ZM17.5 16C17.5 15.1 16.8 14.4 15.7 14.4C14.7 14.4 14 15 14 15.9C14 16.8 14.7 17.5 15.7 17.5C16.8 17.5 17.5 16.8 17.5 16Z" fill="white"/>
</svg>
