<svg width="28" height="28" viewBox="0 0 28 28" fill="none" xmlns="http://www.w3.org/2000/svg">
<path d="M17.4185 14.6998H14.6418V11.9231C14.6418 11.7131 14.4668 11.5381 14.2568 11.5381H13.7552C13.5452 11.5381 13.3702 11.7131 13.3702 11.9231V14.6998H10.5935C10.3835 14.6998 10.2085 14.8748 10.2085 15.0848V15.5864C10.2085 15.7964 10.3835 15.9714 10.5935 15.9714H13.3702V18.7481C13.3702 18.9581 13.5452 19.1331 13.7552 19.1331H14.2568C14.4668 19.1331 14.6418 18.9581 14.6418 18.7481V15.9714H17.4185C17.6285 15.9714 17.8035 15.7964 17.8035 15.5864V15.0848C17.8035 14.8748 17.6285 14.6998 17.4185 14.6998Z" fill="white"/>
<path d="M20.7667 4.64349H16.5083V4.08349C16.5083 2.82349 15.4817 1.78516 14.21 1.78516H13.79C12.53 1.78516 11.4917 2.81182 11.4917 4.08349V4.64349H7.23334C5.96167 4.64349 4.92334 5.68182 4.92334 6.95349V22.4352C4.92334 23.7068 5.96167 24.7452 7.23334 24.7452H20.7667C22.0383 24.7452 23.0767 23.7068 23.0767 22.4352V6.95349C23.0767 5.68182 22.0383 4.64349 20.7667 4.64349ZM12.775 4.08349C12.775 3.52349 13.23 3.06849 13.79 3.06849H14.21C14.77 3.06849 15.225 3.52349 15.225 4.08349V4.62016H12.775V4.08349ZM19.2383 5.92682V6.63849C19.2383 6.82516 19.0867 6.97682 18.9 6.97682H9.10001C8.91334 6.97682 8.76167 6.82516 8.76167 6.63849V5.92682H19.2267H19.2383ZM21.7933 22.4468C21.7933 23.0185 21.3267 23.4735 20.7667 23.4735H7.23334C6.66167 23.4735 6.20667 23.0068 6.20667 22.4468V6.95349C6.20667 6.38182 6.67334 5.92682 7.23334 5.92682H7.49001V6.63849C7.49001 7.53682 8.21334 8.26016 9.11167 8.26016H18.9117C19.81 8.26016 20.5333 7.53682 20.5333 6.63849V5.92682H20.7783C21.35 5.92682 21.805 6.39349 21.805 6.95349V22.4352L21.7933 22.4468Z" fill="white"/>
</svg>
