<svg width="28" height="28" viewBox="0 0 28 28" fill="none" xmlns="http://www.w3.org/2000/svg">
<path d="M13.9999 2.33301C7.55636 2.33301 2.33325 7.55609 2.33325 13.9997C2.33325 20.4433 7.55636 25.6663 13.9999 25.6663C20.4435 25.6663 25.6666 20.4433 25.6666 13.9997C25.6666 7.55609 20.4435 2.33301 13.9999 2.33301ZM13.9999 24.3695C8.28328 24.3695 3.63005 19.7163 3.63005 13.9997C3.63005 8.28302 8.28328 3.62981 13.9999 3.62981C19.7166 3.62981 24.3698 8.28302 24.3698 13.9997C24.3698 19.7163 19.7166 24.3695 13.9999 24.3695Z" fill="white"/>
<path d="M18.6666 13.3535H14.6461V9.33301C14.6461 9.04583 14.4128 8.8125 14.1256 8.8125H13.8653C13.5782 8.8125 13.3448 9.04583 13.3448 9.33301V13.3535H9.32427C9.03709 13.3535 8.80377 13.5869 8.80377 13.874V14.1343C8.80377 14.4215 9.03709 14.6548 9.32427 14.6548H13.3448V18.6753C13.3448 18.9625 13.5782 19.1958 13.8653 19.1958H14.1256C14.4128 19.1958 14.6461 18.9625 14.6461 18.6753V14.6548H18.6666C18.9538 14.6548 19.1871 14.4215 19.1871 14.1343V13.874C19.1871 13.5869 18.9538 13.3535 18.6666 13.3535Z" fill="white"/>
</svg>
