<svg width="28" height="28" viewBox="0 0 28 28" fill="none" xmlns="http://www.w3.org/2000/svg">
<path d="M13.9999 2.33301C7.55632 2.33301 2.33325 7.55609 2.33325 13.9997C2.33325 20.4433 7.55632 25.6663 13.9999 25.6663C20.4435 25.6663 25.6666 20.4433 25.6666 13.9997C25.6666 7.55609 20.4435 2.33301 13.9999 2.33301ZM13.9999 24.3695C8.28324 24.3695 3.63005 19.7163 3.63005 13.9997C3.63005 8.28302 8.28324 3.62981 13.9999 3.62981C19.7166 3.62981 24.3698 8.28302 24.3698 13.9997C24.3698 19.7163 19.7166 24.3695 13.9999 24.3695Z" fill="white"/>
<path d="M14.1256 11.6664H13.8698C13.5823 11.6664 13.3493 11.8994 13.3493 12.1869V19.9632C13.3493 20.2507 13.5823 20.4837 13.8698 20.4837H14.1256C14.413 20.4837 14.6461 20.2507 14.6461 19.9632V12.1869C14.6461 11.8994 14.413 11.6664 14.1256 11.6664Z" fill="white"/>
<path d="M14.1256 7.52021H13.8698C13.5823 7.52021 13.3493 7.75324 13.3493 8.04071V9.33303C13.3493 9.6205 13.5823 9.85355 13.8698 9.85355H14.1256C14.413 9.85355 14.6461 9.6205 14.6461 9.33303V8.04071C14.6461 7.75324 14.413 7.52021 14.1256 7.52021Z" fill="white"/>
</svg>
