<svg width="16" height="16" viewBox="0 0 16 16" fill="none" xmlns="http://www.w3.org/2000/svg">
<path d="M13.3382 3.55649H11.4125V2.96418C11.4125 2.80007 11.2792 2.66675 11.1151 2.66675H10.9664C10.8023 2.66675 10.6689 2.80007 10.6689 2.96418V3.55649H5.33559V2.96418C5.33559 2.80007 5.20226 2.66675 5.03816 2.66675H4.88944C4.72534 2.66675 4.59201 2.80007 4.59201 2.96418V3.55649H2.66635C1.93046 3.55649 1.33301 4.15392 1.33301 4.88982V12.595C1.33301 13.3309 1.93046 13.9283 2.66635 13.9283H13.333C14.0689 13.9283 14.6663 13.3309 14.6663 12.595V4.88982C14.6663 4.15392 14.0689 3.55649 13.333 3.55649H13.3382ZM2.67148 4.29751H4.59714V4.88982C4.59714 5.05392 4.73047 5.18726 4.89457 5.18726H5.04328C5.20739 5.18726 5.34071 5.05392 5.34071 4.88982V4.29751H10.6741V4.88982C10.6741 5.05392 10.8074 5.18726 10.9715 5.18726H11.1202C11.2843 5.18726 11.4176 5.05392 11.4176 4.88982V4.29751H13.3433C13.6689 4.29751 13.9356 4.56418 13.9356 4.88982V6.1488H2.08429V4.88982C2.08429 4.56418 2.35096 4.29751 2.6766 4.29751H2.67148ZM13.3382 13.1873H2.67148C2.34584 13.1873 2.07916 12.9206 2.07916 12.595V6.88983H13.9305V12.595C13.9305 12.9206 13.6638 13.1873 13.3382 13.1873Z" fill="white"/>
<path d="M11.8561 8.18726H11.7099C11.5457 8.18726 11.4125 8.32042 11.4125 8.48469V9.22316C11.4125 9.38743 11.5457 9.52059 11.7099 9.52059H11.8561C12.0204 9.52059 12.1535 9.38743 12.1535 9.22316V8.48469C12.1535 8.32042 12.0204 8.18726 11.8561 8.18726Z" fill="white"/>
<path d="M4.29967 8.18726H4.15354C3.98927 8.18726 3.85611 8.32042 3.85611 8.48469V9.22316C3.85611 9.38743 3.98927 9.52059 4.15354 9.52059H4.29967C4.46394 9.52059 4.59714 9.38743 4.59714 9.22316V8.48469C4.59714 8.32042 4.46394 8.18726 4.29967 8.18726Z" fill="white"/>
<path d="M4.29967 10.5565H4.15354C3.98927 10.5565 3.85611 10.6896 3.85611 10.8539V11.5924C3.85611 11.7567 3.98927 11.8898 4.15354 11.8898H4.29967C4.46394 11.8898 4.59714 11.7567 4.59714 11.5924V10.8539C4.59714 10.6896 4.46394 10.5565 4.29967 10.5565Z" fill="white"/>
<path d="M6.81765 8.18726H6.67147C6.50721 8.18726 6.37405 8.32042 6.37405 8.48469V9.22316C6.37405 9.38743 6.50721 9.52059 6.67147 9.52059H6.81765C6.98192 9.52059 7.11508 9.38743 7.11508 9.22316V8.48469C7.11508 8.32042 6.98192 8.18726 6.81765 8.18726Z" fill="white"/>
<path d="M6.81765 10.5565H6.67147C6.50721 10.5565 6.37405 10.6896 6.37405 10.8539V11.5924C6.37405 11.7567 6.50721 11.8898 6.67147 11.8898H6.81765C6.98192 11.8898 7.11508 11.7567 7.11508 11.5924V10.8539C7.11508 10.6896 6.98192 10.5565 6.81765 10.5565Z" fill="white"/>
<path d="M9.33816 8.18726H9.19199C9.02772 8.18726 8.89456 8.32042 8.89456 8.48469V9.22316C8.89456 9.38743 9.02772 9.52059 9.19199 9.52059H9.33816C9.50243 9.52059 9.63559 9.38743 9.63559 9.22316V8.48469C9.63559 8.32042 9.50243 8.18726 9.33816 8.18726Z" fill="white"/>
<path d="M9.33816 10.5565H9.19199C9.02772 10.5565 8.89456 10.6896 8.89456 10.8539V11.5924C8.89456 11.7567 9.02772 11.8898 9.19199 11.8898H9.33816C9.50243 11.8898 9.63559 11.7567 9.63559 11.5924V10.8539C9.63559 10.6896 9.50243 10.5565 9.33816 10.5565Z" fill="white"/>
</svg>
