<svg width="14" height="14" viewBox="0 0 14 14" fill="none" xmlns="http://www.w3.org/2000/svg">
<path d="M6.99967 0.333252C3.31762 0.333252 0.333008 3.31787 0.333008 6.99992C0.333008 10.682 3.31762 13.6666 6.99967 13.6666C10.6817 13.6666 13.6664 10.682 13.6664 6.99992C13.6664 3.31787 10.6817 0.333252 6.99967 0.333252ZM6.99967 12.9256C3.733 12.9256 1.07404 10.2666 1.07404 6.99992C1.07404 3.73326 3.733 1.07428 6.99967 1.07428C10.2663 1.07428 12.9253 3.73326 12.9253 6.99992C12.9253 10.2666 10.2663 12.9256 6.99967 12.9256Z" fill="white"/>
<path d="M7.07146 5.66663H6.92531C6.76104 5.66663 6.62788 5.79979 6.62788 5.96406V10.4077C6.62788 10.5719 6.76104 10.7051 6.92531 10.7051H7.07146C7.23573 10.7051 7.36891 10.5719 7.36891 10.4077V5.96406C7.36891 5.79979 7.23573 5.66663 7.07146 5.66663Z" fill="white"/>
<path d="M7.07146 3.29737H6.92531C6.76104 3.29737 6.62788 3.43053 6.62788 3.5948V4.33326C6.62788 4.49753 6.76104 4.6307 6.92531 4.6307H7.07146C7.23573 4.6307 7.36891 4.49753 7.36891 4.33326V3.5948C7.36891 3.43053 7.23573 3.29737 7.07146 3.29737Z" fill="white"/>
</svg>
