<svg width="14" height="18" viewBox="0 0 14 18" fill="none" xmlns="http://www.w3.org/2000/svg">
<path fill-rule="evenodd" clip-rule="evenodd" d="M3.49654 5.29613C3.49654 2.35832 6.0179 0.0415039 9.04578 0.0415039L11.8488 0.0415039C12.0651 0.0415039 12.2792 0.0513767 12.4729 0.0913728C12.6715 0.132404 12.8904 0.213414 13.0749 0.386845C13.4381 0.728284 13.4587 1.23161 13.4587 1.59243V3.44428C13.4587 3.8051 13.4381 4.30843 13.0749 4.64987C12.8904 4.8233 12.6715 4.90431 12.4729 4.94534C12.2792 4.98533 12.0651 4.99521 11.8488 4.99521L9.04578 4.99521C8.81016 4.99521 8.68593 5.1657 8.68593 5.29613V6.98595L10.6947 6.98595C10.9719 6.98595 11.2366 6.99966 11.466 7.05075C11.6951 7.10179 11.9657 7.20688 12.1617 7.45113C12.3628 7.70179 12.4012 7.99299 12.3895 8.23345C12.3781 8.46765 12.3164 8.72041 12.2396 8.97298L11.8176 10.3619C11.7307 10.6476 11.6009 11.0046 11.2757 11.2352C10.96 11.4591 10.5799 11.4767 10.2726 11.4767H8.68593V16.4072C8.68593 16.7681 8.66533 17.2714 8.30217 17.6128C8.1177 17.7863 7.89879 17.8673 7.70013 17.9083C7.50647 17.9483 7.29241 17.9582 7.07608 17.9582H5.10639C4.89006 17.9582 4.67599 17.9483 4.48234 17.9083C4.28368 17.8673 4.06477 17.7863 3.8803 17.6128C3.51714 17.2714 3.49654 16.7681 3.49654 16.4072L3.49654 11.4767H2.15184C1.93551 11.4767 1.72145 11.4668 1.5278 11.4268C1.32913 11.3858 1.11022 11.3048 0.925757 11.1313C0.56259 10.7899 0.541992 10.2866 0.541992 9.92576L0.541992 8.53687C0.541992 8.17605 0.56259 7.67273 0.925757 7.33129C1.11022 7.15786 1.32913 7.07685 1.5278 7.03582C1.72145 6.99582 1.93551 6.98595 2.15184 6.98595L3.49654 6.98595L3.49654 5.29613ZM9.04578 1.2915C6.63449 1.2915 4.74654 3.1202 4.74654 5.29613L4.74654 7.61095C4.74654 7.95613 4.46672 8.23595 4.12154 8.23595H2.15184C1.98358 8.23595 1.87607 8.24379 1.80677 8.25517C1.79832 8.3125 1.79199 8.40098 1.79199 8.53687L1.79199 9.92576C1.79199 10.0617 1.79832 10.1501 1.80677 10.2075C1.87607 10.2188 1.98358 10.2267 2.15184 10.2267H4.12154C4.46672 10.2267 4.74654 10.5065 4.74654 10.8517L4.74654 16.4072C4.74654 16.5431 4.75288 16.6316 4.76132 16.689C4.83062 16.7003 4.93814 16.7082 5.10639 16.7082H7.07608C7.24433 16.7082 7.35186 16.7003 7.42115 16.6889C7.4296 16.6316 7.43593 16.5431 7.43593 16.4072L7.43593 10.8517C7.43593 10.5065 7.71575 10.2267 8.06093 10.2267H10.2726C10.4138 10.2267 10.4951 10.2197 10.5438 10.2107C10.562 10.1743 10.5875 10.1106 10.6216 9.99841L11.0436 8.60952C11.0915 8.45206 11.1181 8.33924 11.1311 8.25932C11.0359 8.24506 10.8966 8.23595 10.6947 8.23595H8.06093C7.71575 8.23595 7.43593 7.95613 7.43593 7.61095L7.43593 5.29613C7.43593 4.40382 8.19357 3.74521 9.04578 3.74521L11.8488 3.74521C12.0171 3.74521 12.1246 3.73737 12.1939 3.72599C12.2023 3.66866 12.2087 3.58018 12.2087 3.44428V1.59243C12.2087 1.45653 12.2023 1.36806 12.1939 1.31072C12.1246 1.29935 12.0171 1.2915 11.8488 1.2915L9.04578 1.2915Z" fill="#161616"/>
</svg>
