<svg width="16" height="16" viewBox="0 0 16 16" fill="none" xmlns="http://www.w3.org/2000/svg">
<path d="M13.798 7.91791L13.1111 7.71285V6.14679C13.1111 4.86266 12.6113 3.65286 11.7014 2.74296C10.7915 1.83305 9.58425 1.33325 8.29757 1.33325C5.64474 1.33325 3.48403 3.49139 3.48403 6.14679V7.71285L2.79712 7.91791C2.32807 8.05631 2 8.49717 2 8.98929V9.58904C2 10.0812 2.32807 10.5195 2.79712 10.6604L3.75317 10.9449L4.76303 11.2628C4.904 11.3063 5.04754 11.3294 5.19107 11.3294C5.48327 11.3294 5.77033 11.2371 6.01639 11.0577C6.38035 10.7912 6.59053 10.3759 6.59053 9.92482V8.18702C6.59053 7.75898 6.40087 7.35913 6.0651 7.09C5.7319 6.82088 5.29872 6.72091 4.88093 6.81318L4.22222 6.9593V6.14935C4.22222 3.90405 6.04971 2.07654 8.295 2.07654C9.38177 2.07654 10.4045 2.49946 11.1734 3.27096C11.9423 4.0399 12.3678 5.06258 12.3678 6.14935V6.9593L11.7091 6.81318C11.2913 6.72091 10.8581 6.82088 10.5249 7.09C10.1917 7.35913 9.99948 7.75898 9.99948 8.18702V9.92482C9.99948 10.3785 10.2097 10.7912 10.5736 11.0577C10.8197 11.2371 11.1068 11.332 11.4015 11.332C11.5451 11.332 11.6886 11.3089 11.8296 11.2653L12.3652 11.0962C12.3345 12.2547 11.3861 13.1877 10.2199 13.1877H9.52531C9.37152 12.7571 8.96143 12.4469 8.47956 12.4469H8.11046C7.49788 12.4469 7.00064 12.9442 7.00064 13.5568C7.00064 14.1693 7.49788 14.6666 8.11046 14.6666H8.47956C8.96143 14.6666 9.37152 14.3564 9.52531 13.9258H10.2199C11.8116 13.9258 13.1086 12.6315 13.1086 11.0372V10.8629L13.7929 10.6604C14.262 10.522 14.59 10.0812 14.59 9.58904V8.98929C14.59 8.49717 14.262 8.05888 13.7929 7.91791H13.798ZM3.48403 10.0863L3.00986 9.94531C2.85351 9.89918 2.74329 9.75052 2.74329 9.58648V8.98673C2.74329 8.82269 2.85351 8.67401 3.00986 8.62787L3.48403 8.4869V10.0863ZM5.04241 7.53087C5.24234 7.4873 5.44739 7.53342 5.6063 7.66158C5.76522 7.78973 5.85749 7.97941 5.85493 8.1819V9.9197C5.85493 10.135 5.75496 10.3324 5.58067 10.4579C5.40637 10.5861 5.19107 10.6194 4.98602 10.5554L4.22734 10.3144V7.71029L5.04497 7.52831L5.04241 7.53087ZM8.48213 13.9233H8.11302C7.90798 13.9233 7.74394 13.7567 7.74394 13.5542C7.74394 13.3517 7.91054 13.1851 8.11302 13.1851H8.48213C8.68718 13.1851 8.85121 13.3517 8.85121 13.5542C8.85121 13.7567 8.68461 13.9233 8.48213 13.9233ZM11.6091 10.5579C11.4041 10.622 11.1862 10.5861 11.0145 10.4605C10.8402 10.3324 10.7402 10.1376 10.7402 9.92226V8.18446C10.7402 7.98197 10.8325 7.7923 10.9914 7.66414C11.1119 7.56674 11.258 7.51804 11.4092 7.51804C11.4579 7.51804 11.5066 7.52318 11.5553 7.53343L12.3729 7.71541V10.3195L11.6117 10.5605L11.6091 10.5579ZM13.8518 9.58904C13.8518 9.75308 13.7416 9.90176 13.5853 9.9479L13.1111 10.0888V8.49204L13.5853 8.63301C13.7416 8.67915 13.8518 8.82781 13.8518 8.99185V9.59162V9.58904Z" fill="white"/>
</svg>
