<svg width="18" height="18" viewBox="0 0 18 18" fill="none" xmlns="http://www.w3.org/2000/svg">
<path fill-rule="evenodd" clip-rule="evenodd" d="M4.62467 9.00016C4.62467 6.58392 6.58343 4.62516 8.99967 4.62516C11.4159 4.62516 13.3747 6.58392 13.3747 9.00016C13.3747 11.4164 11.4159 13.3752 8.99967 13.3752C6.58343 13.3752 4.62467 11.4164 4.62467 9.00016ZM8.99967 5.87516C7.27379 5.87516 5.87467 7.27427 5.87467 9.00016C5.87467 10.7261 7.27379 12.1252 8.99967 12.1252C10.7256 12.1252 12.1247 10.7261 12.1247 9.00016C12.1247 7.27427 10.7256 5.87516 8.99967 5.87516Z" fill="#161616"/>
<path d="M13.5895 5.25016C14.0498 5.25016 14.4229 4.87707 14.4229 4.41683C14.4229 3.95659 14.0498 3.5835 13.5895 3.5835H13.582C13.1218 3.5835 12.7487 3.95659 12.7487 4.41683C12.7487 4.87707 13.1218 5.25016 13.582 5.25016H13.5895Z" fill="#161616"/>
<path fill-rule="evenodd" clip-rule="evenodd" d="M9.04732 0.458496C10.8729 0.458485 12.3068 0.458477 13.4263 0.608991C14.5735 0.76323 15.4837 1.08576 16.1989 1.80092C16.9141 2.51609 17.2366 3.4263 17.3908 4.57352C17.5414 5.69302 17.5414 7.12692 17.5413 8.95249V9.0478C17.5414 10.8734 17.5414 12.3073 17.3908 13.4268C17.2366 14.574 16.9141 15.4842 16.1989 16.1994C15.4837 16.9146 14.5735 17.2371 13.4263 17.3913C12.3068 17.5418 10.8729 17.5418 9.04734 17.5418H8.95204C7.12646 17.5418 5.69254 17.5418 4.57303 17.3913C3.42581 17.2371 2.5156 16.9146 1.80044 16.1994C1.08527 15.4842 0.762742 14.574 0.608503 13.4268C0.457988 12.3073 0.457997 10.8734 0.458008 9.04781L0.458008 8.95252C0.457997 7.12693 0.457988 5.69303 0.608503 4.57352C0.762742 3.4263 1.08527 2.51609 1.80044 1.80092C2.5156 1.08576 3.42581 0.76323 4.57303 0.608991C5.69254 0.458477 7.12643 0.458485 8.952 0.458496L9.04732 0.458496ZM4.73959 1.84784C3.73098 1.98345 3.12852 2.2406 2.68432 2.68481C2.24012 3.12901 1.98296 3.73147 1.84736 4.74008C1.70934 5.76666 1.70801 7.11652 1.70801 9.00016C1.70801 10.8838 1.70934 12.2337 1.84736 13.2602C1.98296 14.2689 2.24012 14.8713 2.68432 15.3155C3.12852 15.7597 3.73098 16.0169 4.73959 16.1525C5.76617 16.2905 7.11603 16.2918 8.99967 16.2918C10.8833 16.2918 12.2332 16.2905 13.2598 16.1525C14.2684 16.0169 14.8708 15.7597 15.315 15.3155C15.7592 14.8713 16.0164 14.2689 16.152 13.2602C16.29 12.2337 16.2913 10.8838 16.2913 9.00016C16.2913 7.11652 16.29 5.76666 16.152 4.74007C16.0164 3.73147 15.7592 3.12901 15.315 2.68481C14.8708 2.2406 14.2684 1.98345 13.2598 1.84784C12.2332 1.70982 10.8833 1.7085 8.99967 1.7085C7.11603 1.7085 5.76617 1.70982 4.73959 1.84784Z" fill="#161616"/>
</svg>
