<svg width="16" height="16" viewBox="0 0 16 16" fill="none" xmlns="http://www.w3.org/2000/svg">
<path d="M7.99967 1.33325C4.31762 1.33325 1.33301 4.31786 1.33301 7.99991C1.33301 11.682 4.31762 14.6666 7.99967 14.6666C11.6817 14.6666 14.6663 11.682 14.6663 7.99991C14.6663 4.31786 11.6817 1.33325 7.99967 1.33325ZM7.99967 13.9256C7.28941 13.9256 6.37658 12.764 5.92017 10.7512C6.57914 10.6486 7.27916 10.5922 7.99967 10.5922C8.72018 10.5922 9.42017 10.6461 10.0791 10.7512C9.62017 12.764 8.70993 13.9256 7.99967 13.9256ZM7.99967 9.8512C7.233 9.8512 6.48684 9.91017 5.78171 10.023C5.70222 9.51274 5.65094 8.96146 5.63556 8.36915H10.3663C10.3509 8.96146 10.2997 9.51274 10.2202 10.023C9.51505 9.91017 8.76634 9.8512 7.99967 9.8512ZM7.99967 2.07427C8.70993 2.07427 9.62017 3.23582 10.0791 5.24607C9.41761 5.3512 8.71505 5.40761 7.99967 5.40761C7.28429 5.40761 6.58427 5.3512 5.92017 5.24607C6.37915 3.23582 7.28941 2.07427 7.99967 2.07427ZM7.99967 6.14863C8.7689 6.14863 9.51505 6.08966 10.2176 5.97684C10.2971 6.4871 10.3484 7.03837 10.3638 7.63068H5.63299C5.64838 7.03837 5.69966 6.4871 5.77914 5.97684C6.48427 6.08966 7.233 6.14863 7.99967 6.14863ZM4.89455 7.63068H2.08685C2.14326 6.70248 2.41761 5.83068 2.85607 5.06658C3.48427 5.39478 4.233 5.65633 5.05864 5.84094C4.96889 6.40761 4.91249 7.00761 4.89455 7.63325V7.63068ZM4.89455 8.37171C4.90993 8.99479 4.96633 9.59735 5.05864 10.164C4.233 10.3461 3.48427 10.6076 2.85607 10.9358C2.41761 10.1717 2.14582 9.29992 2.08941 8.37171H4.89455ZM11.1074 8.37171H13.9151C13.8586 9.29992 13.5843 10.1717 13.1458 10.9358C12.5176 10.6076 11.7689 10.3461 10.9432 10.164C11.033 9.59735 11.0894 8.99735 11.1074 8.37171ZM11.1074 7.63068C11.092 7.0076 11.0356 6.40761 10.9432 5.84094C11.7689 5.65889 12.5176 5.39735 13.1458 5.06658C13.5843 5.83068 13.8561 6.70248 13.9151 7.63068H11.1074ZM12.7381 4.4435C12.1894 4.72042 11.533 4.94607 10.8048 5.11017C10.5432 3.94607 10.1279 2.96915 9.61505 2.30248C10.8766 2.65889 11.9689 3.42556 12.7381 4.44607V4.4435ZM6.3894 2.29992C5.87658 2.96658 5.4612 3.94351 5.19966 5.10761C4.47402 4.94607 3.81505 4.72043 3.2689 4.44094C4.03813 3.42043 5.13044 2.65633 6.39198 2.29735L6.3894 2.29992ZM3.26634 11.5589C3.82018 11.2768 4.47402 11.0512 5.1971 10.8897C5.45864 12.0563 5.87401 13.0332 6.3894 13.7025C5.12786 13.3461 4.03557 12.5794 3.26634 11.5589ZM9.61761 13.7025C10.1304 13.0332 10.5458 12.0563 10.8099 10.8897C11.533 11.0512 12.1894 11.2768 12.7407 11.5589C11.9715 12.5794 10.8791 13.3461 9.61761 13.7025Z" fill="white"/>
</svg>
