<svg width="18" height="18" viewBox="0 0 18 18" fill="none" xmlns="http://www.w3.org/2000/svg">
<path fill-rule="evenodd" clip-rule="evenodd" d="M0.0419922 2.54175C0.0419922 1.16104 1.16128 0.041748 2.54199 0.041748C3.9227 0.041748 5.04199 1.16104 5.04199 2.54175C5.04199 3.92246 3.9227 5.04175 2.54199 5.04175C1.16128 5.04175 0.0419922 3.92246 0.0419922 2.54175ZM2.54199 1.29175C1.85164 1.29175 1.29199 1.85139 1.29199 2.54175C1.29199 3.2321 1.85164 3.79175 2.54199 3.79175C3.23235 3.79175 3.79199 3.2321 3.79199 2.54175C3.79199 1.85139 3.23235 1.29175 2.54199 1.29175Z" fill="#161616"/>
<path fill-rule="evenodd" clip-rule="evenodd" d="M2.29637 6.29175H2.78762C3.1483 6.29171 3.47899 6.29167 3.748 6.32784C4.04424 6.36766 4.35734 6.46137 4.61486 6.71889C4.87238 6.97641 4.96609 7.28951 5.00592 7.58575C5.04208 7.85476 5.04204 8.18545 5.042 8.54612L5.042 15.704C5.04204 16.0647 5.04208 16.3954 5.00592 16.6644C4.96609 16.9607 4.87238 17.2738 4.61486 17.5313C4.35734 17.7888 4.04424 17.8825 3.748 17.9223C3.47899 17.9585 3.1483 17.9585 2.78762 17.9584H2.29638C1.9357 17.9585 1.605 17.9585 1.33599 17.9223C1.03976 17.8825 0.726653 17.7888 0.469134 17.5313C0.211615 17.2738 0.117909 16.9607 0.078081 16.6644C0.0419136 16.3954 0.0419526 16.0647 0.0419951 15.704L0.0419951 8.54613C0.0419526 8.18545 0.0419136 7.85476 0.078081 7.58575C0.117909 7.28951 0.211615 6.97641 0.469134 6.71889C0.726654 6.46137 1.03976 6.36766 1.33599 6.32784C1.605 6.29167 1.93569 6.29171 2.29637 6.29175ZM1.35303 7.60278L1.35506 7.60164C1.35667 7.6008 1.35943 7.59945 1.36364 7.59772C1.38179 7.59025 1.42209 7.57751 1.50255 7.56669C1.67815 7.54308 1.92316 7.54175 2.33366 7.54175H2.75033C3.16084 7.54175 3.40584 7.54308 3.58144 7.56669C3.66191 7.57751 3.70221 7.59025 3.72036 7.59772C3.72457 7.59945 3.72733 7.6008 3.72894 7.60164L3.73097 7.60278L3.73211 7.60481C3.73296 7.60642 3.7343 7.60919 3.73603 7.61339C3.7435 7.63154 3.75624 7.67184 3.76706 7.75231C3.79067 7.92791 3.792 8.17291 3.792 8.58342L3.792 15.6668C3.792 16.0773 3.79067 16.3223 3.76706 16.4979C3.75624 16.5783 3.7435 16.6186 3.73603 16.6368C3.7343 16.641 3.73296 16.6437 3.73211 16.6454L3.73097 16.6474L3.72894 16.6485C3.72733 16.6494 3.72457 16.6507 3.72036 16.6525C3.70221 16.6599 3.66191 16.6727 3.58144 16.6835C3.40584 16.7071 3.16084 16.7084 2.75033 16.7084H2.33366C1.92316 16.7084 1.67815 16.7071 1.50255 16.6835C1.42209 16.6727 1.38179 16.6599 1.36364 16.6525C1.35943 16.6507 1.35667 16.6494 1.35506 16.6485L1.35303 16.6474L1.35188 16.6454C1.35104 16.6437 1.34969 16.641 1.34796 16.6368C1.3405 16.6186 1.32775 16.5783 1.31693 16.4979C1.29333 16.3223 1.292 16.0773 1.292 15.6668L1.292 8.58342C1.292 8.17291 1.29333 7.92791 1.31693 7.75231C1.32775 7.67184 1.3405 7.63154 1.34796 7.61339C1.34969 7.60919 1.35104 7.60642 1.35188 7.60481L1.35303 7.60278Z" fill="#161616"/>
<path fill-rule="evenodd" clip-rule="evenodd" d="M8.54637 6.29175C8.78769 6.29173 9.75957 6.29172 9.94406 6.30862C10.1436 6.32689 10.3608 6.3689 10.5701 6.49135C10.7861 6.61774 10.966 6.7976 11.0924 7.01362L11.1024 7.03103C11.7605 6.56633 12.5549 6.29195 13.4143 6.29195C15.6603 6.29195 17.9587 8.2038 17.9587 10.667L17.9576 15.288C17.9576 15.6486 17.9575 15.9793 17.9213 16.2482C17.8814 16.5444 17.7876 16.8574 17.5301 17.1148C17.2726 17.3723 16.9596 17.466 16.6634 17.5058C16.3945 17.5419 16.0638 17.5419 15.7032 17.5419H15.213C14.8523 17.5419 14.5216 17.5419 14.2526 17.5058C13.9564 17.4659 13.6433 17.3722 13.3858 17.1147C13.1282 16.8572 13.0345 16.5441 12.9947 16.2479C12.9585 15.9789 12.9586 15.6482 12.9586 15.2875L12.9586 11.5002C12.9586 11.1189 12.6766 10.8752 12.4069 10.8752C11.9759 10.8752 11.7442 11.0405 11.5849 11.3049C11.3977 11.6157 11.292 12.1074 11.292 12.7502L11.292 15.7041C11.2921 16.0647 11.2921 16.3954 11.2559 16.6644C11.2161 16.9607 11.1224 17.2738 10.8649 17.5313C10.6073 17.7888 10.2942 17.8825 9.99801 17.9223C9.72901 17.9585 9.39831 17.9585 9.03763 17.9584H8.54636C8.18568 17.9585 7.855 17.9585 7.58599 17.9223C7.28976 17.8825 6.97665 17.7888 6.71913 17.5313C6.46162 17.2738 6.36791 16.9607 6.32808 16.6644C6.29191 16.3954 6.29195 16.0647 6.292 15.704L6.292 8.54613C6.29195 8.18545 6.29191 7.85476 6.32808 7.58575C6.36791 7.28951 6.46162 6.97641 6.71913 6.71889C6.97665 6.46137 7.28976 6.36766 7.58599 6.32784C7.855 6.29167 8.18569 6.29171 8.54637 6.29175ZM8.58366 7.54175C8.17315 7.54175 7.92815 7.54308 7.75255 7.56668C7.69616 7.56449 7.5801 7.59854 7.56693 7.7523C7.54332 7.9279 7.54199 8.17291 7.54199 8.58341L7.54199 15.6667C7.54199 16.0773 7.54332 16.3223 7.56693 16.4979C7.57699 16.5995 7.69486 16.6639 7.75255 16.6835C7.92815 16.7071 8.17315 16.7084 8.58366 16.7084H9.00034C9.41084 16.7084 9.65585 16.7071 9.83145 16.6835C9.88879 16.669 10.0062 16.6116 10.0171 16.4979C10.0407 16.3223 10.042 16.0773 10.042 15.6668L10.042 12.7502C10.042 12.0122 10.1564 11.2539 10.5141 10.6599C10.8999 10.0195 11.5381 9.62518 12.4069 9.62518C13.437 9.62518 14.2086 10.5007 14.2086 11.5002V15.2502C14.2086 15.6607 14.21 15.9057 14.2336 16.0813C14.2336 16.213 14.3132 16.2351 14.3753 16.2523C14.3918 16.2569 14.407 16.2611 14.4192 16.2669C14.5948 16.2905 14.8398 16.2918 15.2503 16.2918L15.6659 16.2918C16.0763 16.2918 16.3213 16.2905 16.4969 16.2669C16.5547 16.2455 16.6727 16.1783 16.6825 16.0814C16.7061 15.9058 16.7075 15.6608 16.7076 15.2504L16.7087 10.6668C16.7086 8.98788 15.0676 7.54195 13.4143 7.54195C12.5164 7.54195 11.7039 7.98097 11.1645 8.69011C11.0021 8.90359 10.7216 8.98965 10.4674 8.90396C10.2132 8.81827 10.042 8.57996 10.042 8.31173C10.042 8.03759 10.0414 7.87423 10.0304 7.75374C10.0235 7.6277 9.89395 7.56766 9.83002 7.5534C9.70953 7.54236 9.54617 7.54175 9.27203 7.54175L8.58366 7.54175Z" fill="#161616"/>
</svg>
