<svg width="16" height="16" viewBox="0 0 16 16" fill="none" xmlns="http://www.w3.org/2000/svg">
<path d="M8.00014 4.65332C6.79348 4.65332 5.81348 5.63332 5.81348 6.83999C5.81348 8.04665 6.79348 9.02665 8.00014 9.02665C9.20681 9.02665 10.1868 8.04665 10.1868 6.83999C10.1868 5.63332 9.20681 4.65332 8.00014 4.65332ZM8.00014 8.29332C7.20014 8.29332 6.54681 7.63999 6.54681 6.83999C6.54681 6.03999 7.20014 5.38665 8.00014 5.38665C8.80014 5.38665 9.45348 6.03999 9.45348 6.83999C9.45348 7.63999 8.80014 8.29332 8.00014 8.29332Z" fill="white"/>
<path d="M13.2396 5.72678C12.6063 2.83345 10.1463 1.53345 7.99961 1.53345C5.85294 1.53345 3.39961 2.82678 2.75961 5.72011C2.05961 8.92011 3.93961 11.6068 5.63294 13.2934C6.38628 14.0734 7.18628 14.4668 7.99961 14.4668C8.81294 14.4668 9.60628 14.0734 10.3596 13.3001C12.0663 11.6134 13.9529 8.93345 13.2463 5.73345L13.2396 5.72678ZM9.83294 12.7801C8.60628 14.0401 7.38628 14.0468 6.15294 12.7801C4.57961 11.2201 2.83961 8.75345 3.47294 5.88011C4.05961 3.21345 6.27961 2.27345 7.99961 2.27345C9.71961 2.27345 11.9396 3.22011 12.5263 5.88678C13.1596 8.76011 11.4129 11.2201 9.83294 12.7801Z" fill="white"/>
</svg>
