<svg width="18" height="18" viewBox="0 0 18 18" fill="none" xmlns="http://www.w3.org/2000/svg">
<path fill-rule="evenodd" clip-rule="evenodd" d="M3.85409 5.18687C3.85409 2.34516 6.15775 0.0415039 8.99946 0.0415039C11.8412 0.0415039 14.1448 2.34516 14.1448 5.18687C14.1448 6.61489 14.1742 7.71186 14.3517 8.60446C14.6236 7.75673 15.2603 6.9158 16.088 6.06421C16.3286 5.8167 16.7243 5.81108 16.9718 6.05167C17.2194 6.29226 17.225 6.68794 16.9844 6.93546C15.7946 8.15948 15.3983 8.99613 15.465 9.62131C15.5289 10.2211 16.0603 10.9283 17.6318 11.7843C17.898 11.9293 18.0167 12.2397 17.9298 12.5185C17.9531 12.5937 17.9625 12.674 17.9556 12.7558C17.9332 13.0223 17.7438 13.245 17.4844 13.3099C16.5705 13.5384 16.1403 13.7382 15.865 14.0135C15.5897 14.2889 15.3898 14.719 15.1614 15.6329C15.0918 15.9111 14.8418 16.1063 14.555 16.1063C13.0838 16.1063 12.2709 16.5168 11.584 16.9395C11.4931 16.9955 11.4007 17.0548 11.306 17.1155C10.6958 17.507 9.99248 17.9582 8.99946 17.9582C8.00645 17.9582 7.30329 17.5071 6.69304 17.1156C6.59841 17.0548 6.50585 16.9955 6.41496 16.9395C5.72804 16.5168 4.91509 16.1063 3.44391 16.1063C3.15712 16.1063 2.90713 15.9111 2.83757 15.6329C2.60909 14.719 2.40923 14.2889 2.13391 14.0135C1.85859 13.7382 1.42846 13.5384 0.514545 13.3099C0.255121 13.245 0.0656984 13.0223 0.0433221 12.7558C0.0364537 12.674 0.0457914 12.5937 0.0691182 12.5185C-0.0177449 12.2397 0.100955 11.9293 0.367149 11.7843C1.93859 10.9283 2.47002 10.2211 2.53395 9.62131C2.6006 8.99613 2.20429 8.15948 1.01454 6.93546C0.773949 6.68794 0.779567 6.29226 1.02709 6.05167C1.2746 5.81108 1.67029 5.8167 1.91088 6.06421C2.73862 6.9158 3.37536 7.75673 3.64725 8.60446C3.82473 7.71186 3.85409 6.61489 3.85409 5.18687ZM8.99946 1.2915C6.84811 1.2915 5.10409 3.03552 5.10409 5.18687C5.10409 7.13987 5.06329 8.75514 4.50426 10.0787C4.0734 11.0988 3.35852 11.902 2.25101 12.5867C2.54062 12.7325 2.79578 12.9076 3.01779 13.1297C3.46176 13.5736 3.71849 14.1502 3.92703 14.8697C5.40809 14.9538 6.32974 15.4194 7.07008 15.875C7.18785 15.9474 7.2969 16.0162 7.39936 16.0807C8.01679 16.4698 8.39504 16.7082 8.99946 16.7082C9.60389 16.7082 9.98202 16.4699 10.5994 16.0808C10.7019 16.0162 10.8111 15.9474 10.9288 15.875C11.6692 15.4194 12.5908 14.9538 14.0719 14.8697C14.2804 14.1502 14.5372 13.5736 14.9811 13.1297C15.2031 12.9076 15.4583 12.7325 15.7479 12.5867C14.6404 11.902 13.9255 11.0988 13.4947 10.0787C12.9356 8.75514 12.8948 7.13987 12.8948 5.18687C12.8948 3.03552 11.1508 1.2915 8.99946 1.2915Z" fill="#161616"/>
</svg>
