<svg width="18" height="16" viewBox="0 0 18 16" fill="none" xmlns="http://www.w3.org/2000/svg">
<path fill-rule="evenodd" clip-rule="evenodd" d="M10.5397 5.61811L10.4715 5.58055C9.78445 5.20193 9.22251 4.89227 8.7599 4.7007C8.29027 4.50622 7.80865 4.38222 7.31833 4.51073C7.03978 4.58374 6.77829 4.71333 6.55484 4.89398C6.14459 5.22566 5.99957 5.70057 5.93594 6.17915C5.8744 6.64206 5.87443 7.24085 5.87445 7.95532V8.0444C5.87443 8.75887 5.8744 9.35768 5.93594 9.82059C5.99957 10.2992 6.14459 10.7741 6.55484 11.1057C6.77829 11.2864 7.03978 11.416 7.31833 11.489C7.80865 11.6175 8.29027 11.4935 8.7599 11.299C9.22252 11.1075 9.78444 10.7978 10.4715 10.4192L10.5397 10.3816C11.1683 10.0352 11.6875 9.74914 12.0612 9.48404C12.4355 9.21843 12.7907 8.88929 12.9083 8.40929C12.9743 8.13983 12.9743 7.85991 12.9083 7.59044C12.7907 7.11044 12.4355 6.7813 12.0612 6.5157C11.6875 6.25059 11.1683 5.9645 10.5397 5.61811ZM7.63524 5.71989C7.72462 5.69647 7.89069 5.69369 8.28165 5.85559C8.67211 6.01728 9.17291 6.29218 9.90186 6.69387C10.5737 7.0641 11.0294 7.31629 11.3378 7.53516C11.6524 7.75837 11.6881 7.86296 11.6942 7.88783C11.7123 7.96192 11.7123 8.03781 11.6942 8.11191C11.6881 8.13677 11.6524 8.24136 11.3378 8.46458C11.0294 8.68345 10.5737 8.93564 9.90186 9.30587C9.17291 9.70755 8.67211 9.98245 8.28165 10.1441C7.89069 10.306 7.72462 10.3033 7.63524 10.2798C7.52112 10.2499 7.42095 10.1986 7.34071 10.1337C7.30264 10.1029 7.2235 10.0204 7.17504 9.65586C7.12578 9.28528 7.12445 8.77065 7.12445 7.99987C7.12445 7.22909 7.12578 6.71446 7.17504 6.34387C7.2235 5.97938 7.30264 5.89682 7.34071 5.86604C7.42095 5.80118 7.52112 5.7498 7.63524 5.71989Z" fill="#161616"/>
<path fill-rule="evenodd" clip-rule="evenodd" d="M8.99944 0.291504C7.4506 0.291504 5.96255 0.444472 4.58007 0.726284L4.474 0.747883C2.89514 1.06925 1.84314 1.28337 0.936597 2.44894C0.0397822 3.60199 0.0402838 4.93917 0.0410606 7.01017L0.0410606 8.98951C0.0402838 11.0605 0.0397822 12.3977 0.936597 13.5507C1.84314 14.7163 2.89514 14.9304 4.474 15.2518L4.58007 15.2734C5.96255 15.5552 7.4506 15.7082 8.99944 15.7082C10.5483 15.7082 12.0363 15.5552 13.4188 15.2734L13.5249 15.2518C15.1037 14.9304 16.1557 14.7163 17.0623 13.5507C17.9591 12.3977 17.9586 11.0605 17.9578 8.98951L17.9578 7.01016C17.9586 4.93917 17.9591 3.60199 17.0623 2.44894C16.1557 1.28337 15.1037 1.06925 13.5249 0.747883L13.4188 0.726284C12.0363 0.444472 10.5483 0.291504 8.99944 0.291504ZM4.82974 1.9511C6.12781 1.68649 7.53214 1.5415 8.99944 1.5415C10.4667 1.5415 11.8711 1.68649 13.1691 1.9511C14.8792 2.29969 15.4746 2.44367 16.0756 3.21636C16.6798 3.99318 16.7078 4.86537 16.7078 7.19688L16.7078 8.80279C16.7078 11.1343 16.6798 12.0065 16.0756 12.7833C15.4746 13.556 14.8792 13.7 13.1691 14.0486C11.8711 14.3132 10.4667 14.4582 8.99944 14.4582C7.53214 14.4582 6.12781 14.3132 4.82974 14.0486C3.11966 13.7 2.52427 13.556 1.92329 12.7833C1.3191 12.0065 1.29111 11.1343 1.29111 8.80279L1.29111 7.19688C1.29111 4.86537 1.3191 3.99318 1.92329 3.21636C2.52427 2.44367 3.11966 2.29969 4.82974 1.9511Z" fill="#161616"/>
</svg>
