      <svg
        xmlns="http://www.w3.org/2000/svg"
        width="24"
        height="24"
        fill="none"
        viewBox="0 0 24 24"
      >
        <g id="icon/university" fill="white">
          <path
            id="Vector"
            d="M22.28 19.77h-.45v-8.45c0-.85-.7-1.55-1.55-1.55h-2.69c-.2-.44-.51-.83-.93-1.1l-3-1.92a2.6 2.6 0 0 0-.82-.32V5.42c.09 0 .19.01.28.01.51 0 1.01-.08 1.49-.23l.3-.1c.19-.04.4-.03.58.03l.62.21c.17.06.35.03.5-.07.14-.1.23-.27.23-.45v-2.5c0-.25-.16-.46-.4-.53l-.24-.07a3.23 3.23 0 0 0-2.06.11c-.4.16-.86.19-1.28.07l-.43-.12h-.08c-.02 0-.04-.01-.07-.01h-.03c-.04 0-.09.01-.13.03-.03 0-.05.01-.08.03a.4.4 0 0 0-.1.07c-.02.02-.05.04-.07.06l-.06.09c-.02.03-.04.06-.05.1 0 .01-.01.02-.02.03v.07c0 .02-.01.05-.01.07v4.11c-.29.06-.57.16-.82.32l-3 1.92c-.42.27-.73.66-.93 1.1H4.29c-.86 0-1.55.7-1.55 1.55v8.45h-.45c-.3 0-.55.25-.55.55s.25.55.55.55h20c.3 0 .55-.25.55-.55s-.25-.55-.55-.55zm-1.55-8.46v8.45h-2.9v-2.45h1.64c.18 0 .33-.15.33-.33v-.43c0-.18-.15-.33-.33-.33h-1.64v-1.9h1.64c.18 0 .33-.15.33-.33v-.43c0-.18-.15-.33-.33-.33h-1.64v-2.36h2.45c.25 0 .45.2.45.45zm-6.19-8.47c.37-.15.79-.19 1.18-.11v1.32c-.34-.1-.71-.11-1.11-.02l-.36.11c-.47.15-.95.2-1.44.16V3.01c.58.1 1.18.05 1.72-.16zM8.49 9.59l3-1.92c.47-.3 1.09-.3 1.56 0l3 1.92c.42.27.67.72.67 1.22v8.95h-2.5v-3.04c0-.44-.36-.81-.81-.81h-2.29c-.44 0-.81.36-.81.81v3.04h-2.5v-8.95c0-.5.25-.95.67-1.22zm2.83 10.18v-2.84h1.9v2.84zm-7.5-8.46c0-.25.2-.45.45-.45h2.45v2.36H5.08c-.18 0-.33.15-.33.33v.43c0 .18.15.33.33.33h1.64v1.9H5.08c-.18 0-.33.15-.33.33v.43c0 .18.15.33.33.33h1.64v2.45h-2.9V11.3z"
          ></path>
          <path
            id="Vector_2"
            d="M12.27 13.01c1.05 0 1.91-.86 1.91-1.91s-.86-1.91-1.91-1.91-1.91.86-1.91 1.91.86 1.91 1.91 1.91m0-2.71c.45 0 .81.36.81.81s-.36.81-.81.81-.81-.36-.81-.81.36-.81.81-.81"
          ></path>
        </g>
      </svg>
