<svg xmlns="http://www.w3.org/2000/svg" width="24" height="24" fill="none" viewBox="0 0 24 24">
        <g id="icon/agent" fill="white">
          <path
            id="Vector"
            d="M12.01 10.7c2.45 0 4.44-1.99 4.44-4.44s-1.99-4.44-4.44-4.44-4.44 1.99-4.44 4.44 1.99 4.44 4.44 4.44m0-7.77c1.84 0 3.33 1.49 3.33 3.33s-1.49 3.33-3.33 3.33S8.68 8.1 8.68 6.26s1.49-3.33 3.33-3.33"
          ></path>
          <path
            id="Vector_2"
            d="m12.02 12.49-3-.01c-3.87 0-7 3.13-7 7v.88c0 .33.28.58.61.55.29-.03.5-.29.5-.58v-.85c0-3.25 2.64-5.89 5.89-5.89h.46l1.94 1.44-1.25 3.45c-.1.27-.04.58.15.8l1.47 1.51c.13.13.35.13.48 0l1.47-1.51c.19-.22.25-.52.15-.8l-1.25-3.44 2.17-1.44h.2c3.25 0 5.89 2.64 5.89 5.89v.88c0 .33.28.58.61.55.29-.03.5-.29.5-.58v-.85c0-3.87-3.13-7-7-7zm-.12 6.92-.57-.65c-.04-.05-.06-.12-.03-.18l.69-1.9s.07-.04.08 0l.69 1.9c.02.06 0 .13-.04.18l-.57.65c-.07.07-.18.07-.25 0m.12-5.29-.7-.52h1.47z"
          ></path>
        </g>
      </svg>
