<svg
        xmlns="http://www.w3.org/2000/svg"
        width="24"
        height="24"
        fill="none"
        viewBox="0 0 24 24"
      >
        <g id="icon/news">
          <g id="Vector" fill="white">
            <path d="M19.899 5.998H17.6V4.5A1.5 1.5 0 0 0 16.101 3H4.499A1.5 1.5 0 0 0 3 4.5V18.7A2.3 2.3 0 0 0 5.299 21H18.7A2.3 2.3 0 0 0 21 18.701V7.1c0-.606-.495-1.1-1.101-1.1m.1 12.703c0 .717-.581 1.302-1.301 1.302H5.295A1.303 1.303 0 0 1 3.994 18.7V4.5c0-.277.225-.498.498-.498h11.602c.277 0 .499.225.499.498v12.004a.499.499 0 0 0 .997 0V6.999h2.299a.1.1 0 0 1 .1.1v11.602z"></path>
            <path d="M14.997 8.699h-2.77a.4.4 0 0 0-.402.401v.198c0 .222.18.401.402.401h2.77c.221 0 .401-.18.401-.401V9.1a.4.4 0 0 0-.402-.401M7.023 12.486h1.575c1.001 0 1.815-.813 1.815-1.814V7.726c0-1-.814-1.814-1.815-1.814H7.023c-1 0-1.814.813-1.814 1.814v2.946c0 1 .814 1.814 1.814 1.814m-.827-4.764c0-.457.37-.827.827-.827h1.575c.457 0 .828.37.828.827v2.947c0 .457-.37.827-.828.827H7.023a.827.827 0 0 1-.827-.827zM14.997 5.898h-2.77a.4.4 0 0 0-.402.402v.197c0 .222.18.401.402.401h2.77c.221 0 .401-.18.401-.401V6.3a.4.4 0 0 0-.402-.402M14.997 11.5h-2.77a.4.4 0 0 0-.402.401v.198c0 .221.18.401.402.401h2.77c.221 0 .401-.18.401-.401V11.9a.4.4 0 0 0-.402-.401M15.003 14.297H5.597a.4.4 0 0 0-.399.398v.205c0 .22.179.398.399.398h9.406c.22 0 .399-.178.399-.398v-.205a.4.4 0 0 0-.399-.398M10.8 17.098H5.597a.4.4 0 0 0-.399.398v.205c0 .22.179.398.399.398H10.8c.22 0 .398-.179.398-.398v-.205a.4.4 0 0 0-.398-.398"></path>
          </g>
        </g>
      </svg>
