<svg width="24" height="24" viewBox="0 0 24 24" fill="none" xmlns="http://www.w3.org/2000/svg">
<path d="M20.0077 5.33462H17.1192V4.44614C17.1192 4.19999 16.9192 4 16.6731 4H16.45C16.2039 4 16.0039 4.19999 16.0039 4.44614V5.33462H8.00387V4.44614C8.00387 4.19999 7.80388 4 7.55772 4H7.33465C7.0885 4 6.88851 4.19999 6.88851 4.44614V5.33462H4.00002C2.89617 5.33462 2 6.23076 2 7.3346V18.8923C2 19.9962 2.89617 20.8923 4.00002 20.8923H20C21.1039 20.8923 22 19.9962 22 18.8923V7.3346C22 6.23076 21.1039 5.33462 20 5.33462H20.0077ZM4.00771 6.44615H6.8962V7.3346C6.8962 7.58076 7.09619 7.78076 7.34234 7.78076H7.56541C7.81157 7.78076 8.01156 7.58076 8.01156 7.3346V6.44615H16.0116V7.3346C16.0116 7.58076 16.2116 7.78076 16.4577 7.78076H16.6808C16.9269 7.78076 17.1269 7.58076 17.1269 7.3346V6.44615H20.0154C20.5039 6.44615 20.9039 6.84614 20.9039 7.3346V9.22307H3.12692V7.3346C3.12692 6.84614 3.52693 6.44615 4.01539 6.44615H4.00771ZM20.0077 19.7808H4.00771C3.51924 19.7808 3.11923 19.3808 3.11923 18.8923V10.3346H20.8962V18.8923C20.8962 19.3808 20.4962 19.7808 20.0077 19.7808Z" fill="#1B8354"/>
<path d="M17.7846 12.2808H17.5654C17.319 12.2808 17.1192 12.4805 17.1192 12.7269V13.8346C17.1192 14.081 17.319 14.2808 17.5654 14.2808H17.7846C18.031 14.2808 18.2308 14.081 18.2308 13.8346V12.7269C18.2308 12.4805 18.031 12.2808 17.7846 12.2808Z" fill="#1B8354"/>
<path d="M6.44999 12.2808H6.2308C5.98439 12.2808 5.78465 12.4805 5.78465 12.7269V13.8346C5.78465 14.081 5.98439 14.2808 6.2308 14.2808H6.44999C6.6964 14.2808 6.8962 14.081 6.8962 13.8346V12.7269C6.8962 12.4805 6.6964 12.2808 6.44999 12.2808Z" fill="#1B8354"/>
<path d="M6.44999 15.8346H6.2308C5.98439 15.8346 5.78465 16.0343 5.78465 16.2808V17.3885C5.78465 17.6349 5.98439 17.8346 6.2308 17.8346H6.44999C6.6964 17.8346 6.8962 17.6349 6.8962 17.3885V16.2808C6.8962 16.0343 6.6964 15.8346 6.44999 15.8346Z" fill="#1B8354"/>
<path d="M10.227 12.2808H10.0077C9.7613 12.2808 9.56156 12.4805 9.56156 12.7269V13.8346C9.56156 14.081 9.7613 14.2808 10.0077 14.2808H10.227C10.4734 14.2808 10.6731 14.081 10.6731 13.8346V12.7269C10.6731 12.4805 10.4734 12.2808 10.227 12.2808Z" fill="#1B8354"/>
<path d="M10.227 15.8346H10.0077C9.7613 15.8346 9.56156 16.0343 9.56156 16.2808V17.3885C9.56156 17.6349 9.7613 17.8346 10.0077 17.8346H10.227C10.4734 17.8346 10.6731 17.6349 10.6731 17.3885V16.2808C10.6731 16.0343 10.4734 15.8346 10.227 15.8346Z" fill="#1B8354"/>
<path d="M14.0077 12.2808H13.7885C13.5421 12.2808 13.3423 12.4805 13.3423 12.7269V13.8346C13.3423 14.081 13.5421 14.2808 13.7885 14.2808H14.0077C14.2541 14.2808 14.4539 14.081 14.4539 13.8346V12.7269C14.4539 12.4805 14.2541 12.2808 14.0077 12.2808Z" fill="#1B8354"/>
<path d="M14.0077 15.8346H13.7885C13.5421 15.8346 13.3423 16.0343 13.3423 16.2808V17.3885C13.3423 17.6349 13.5421 17.8346 13.7885 17.8346H14.0077C14.2541 17.8346 14.4539 17.6349 14.4539 17.3885V16.2808C14.4539 16.0343 14.2541 15.8346 14.0077 15.8346Z" fill="#1B8354"/>
</svg>
