<svg width="20" height="20" viewBox="0 0 20 20" fill="none" xmlns="http://www.w3.org/2000/svg">
<path d="M2.70898 9.99977C2.70899 10.3111 2.84703 10.5999 2.97775 10.8167C3.11881 11.0507 3.30852 11.2924 3.51664 11.5279C3.93413 12.0005 4.47887 12.508 5.00751 12.967C5.53926 13.4288 6.06917 13.8539 6.46503 14.1629C6.66328 14.3177 6.82868 14.4439 6.94485 14.5316C7.00295 14.5755 7.04878 14.6098 7.0803 14.6333L7.11661 14.6603L7.12624 14.6674L7.12958 14.6699C7.4075 14.8746 7.79912 14.8155 8.00383 14.5376C8.20854 14.2597 8.14922 13.8685 7.87133 13.6638L7.86072 13.6559L7.82735 13.6311C7.79783 13.6091 7.75415 13.5764 7.69832 13.5342C7.58662 13.4499 7.42651 13.3277 7.23414 13.1776C6.84875 12.8767 6.33701 12.466 5.8271 12.0232C5.31408 11.5777 4.81716 11.112 4.45341 10.7003C4.43041 10.6743 4.40814 10.6487 4.38662 10.6235L16.6673 10.6235C17.0125 10.6235 17.2923 10.3437 17.2923 9.99853C17.2923 9.65335 17.0125 9.37353 16.6673 9.37353L4.38873 9.37353C4.4096 9.34919 4.43116 9.32442 4.45341 9.29923C4.81716 8.88751 5.31408 8.42182 5.8271 7.97633C6.33701 7.53353 6.84875 7.12279 7.23414 6.82198C7.4265 6.67183 7.58662 6.54967 7.69832 6.46529C7.75415 6.42312 7.79783 6.39041 7.82735 6.36841L7.86072 6.3436L7.87133 6.33576C8.14921 6.13104 8.20854 5.7398 8.00383 5.4619C7.79911 5.18398 7.4075 5.1249 7.12958 5.32962L7.12624 5.33209L7.11661 5.33922L7.0803 5.3662C7.04878 5.3897 7.00295 5.42401 6.94485 5.4679C6.82868 5.55566 6.66328 5.68186 6.46502 5.8366C6.06917 6.14558 5.53926 6.57076 5.00751 7.03251C4.47887 7.49157 3.93413 7.99905 3.51664 8.47161C3.30852 8.70718 3.11881 8.94879 2.97775 9.1828C2.84782 9.39835 2.71064 9.685 2.709 9.99416" fill="#161616"/>
</svg>
