<svg width="24" height="24" viewBox="0 0 24 24" fill="none" xmlns="http://www.w3.org/2000/svg">
<path d="M12.0002 6.97998C10.1902 6.97998 8.72021 8.44998 8.72021 10.26C8.72021 12.07 10.1902 13.54 12.0002 13.54C13.8102 13.54 15.2802 12.07 15.2802 10.26C15.2802 8.44998 13.8102 6.97998 12.0002 6.97998ZM12.0002 12.44C10.8002 12.44 9.82021 11.46 9.82021 10.26C9.82021 9.05998 10.8002 8.07998 12.0002 8.07998C13.2002 8.07998 14.1802 9.05998 14.1802 10.26C14.1802 11.46 13.2002 12.44 12.0002 12.44Z" fill="#1B8354"/>
<path d="M19.8599 8.59005C18.9099 4.25005 15.2199 2.30005 11.9999 2.30005C8.7799 2.30005 5.0999 4.24005 4.1399 8.58005C3.0899 13.38 5.9099 17.4101 8.4499 19.9401C9.5799 21.1101 10.7799 21.7001 11.9999 21.7001C13.2199 21.7001 14.4099 21.1101 15.5399 19.9501C18.0999 17.4201 20.9299 13.4 19.8699 8.60005L19.8599 8.59005ZM14.7499 19.17C12.9099 21.06 11.0799 21.07 9.2299 19.17C6.8699 16.83 4.2599 13.13 5.2099 8.82005C6.0899 4.82005 9.4199 3.41005 11.9999 3.41005C14.5799 3.41005 17.9099 4.83005 18.7899 8.83005C19.7399 13.14 17.1199 16.83 14.7499 19.17Z" fill="#1B8354"/>
</svg>
