<svg width="24" height="24" viewBox="0 0 24 24" fill="none" xmlns="http://www.w3.org/2000/svg">
<g clip-path="url(#clip0_4621_14263)">
<path d="M14.1899 19.7177C13.8706 20.4258 13.6595 21.1942 13.5786 22L20.3362 20.5635C20.6556 19.8556 20.8665 19.0871 20.9475 18.2812L14.1899 19.7177Z" fill="#1B8354"/>
<path d="M20.3362 16.2599C20.6555 15.552 20.8666 14.7835 20.9475 13.9776L15.6835 15.0972V12.945L20.3361 11.9563C20.6554 11.2484 20.8665 10.4799 20.9473 9.67405L15.6834 10.7927V3.0527C14.8768 3.50558 14.1604 4.10842 13.5781 4.81951V11.2403L11.4729 11.6878V2C10.6663 2.45273 9.94996 3.05572 9.36765 3.76681V12.1351L4.65717 13.136C4.33784 13.8439 4.1266 14.6125 4.04558 15.4183L9.36765 14.2873V16.9976L3.66401 18.2096C3.34468 18.9175 3.1336 19.6861 3.05273 20.4919L9.02286 19.2232C9.50885 19.1221 9.92656 18.8347 10.1981 18.4393L11.293 16.8161V16.8158C11.4067 16.6478 11.4729 16.4454 11.4729 16.2273V13.8398L13.5781 13.3923V17.6967L20.3361 16.2596L20.3362 16.2599Z" fill="#1B8354"/>
</g>
<defs>
<clipPath id="clip0_4621_14263">
<rect width="17.8948" height="20" fill="white" transform="translate(3.05273 2)"/>
</clipPath>
</defs>
</svg>
