<svg width="24" height="24" viewBox="0 0 24 24" fill="none" xmlns="http://www.w3.org/2000/svg">
<path d="M12.0039 10.8957C14.4587 10.8957 16.4518 8.9065 16.4518 6.44786C16.4518 3.98922 14.4625 2 12.0039 2C9.54524 2 7.55599 3.98922 7.55599 6.44786C7.55599 8.9065 9.54524 10.8957 12.0039 10.8957ZM12.0039 3.11582C13.843 3.11582 15.3398 4.61254 15.3398 6.4517C15.3398 8.29087 13.843 9.78762 12.0039 9.78762C10.1647 9.78762 8.66796 8.29087 8.66796 6.4517C8.66796 4.61254 10.1647 3.11582 12.0039 3.11582Z" fill="#1B8354"/>
<path d="M15.005 12.6733H9.00272C5.1397 12.6733 2 15.813 2 19.676V20.5648C2 20.8726 2.25014 21.1188 2.55411 21.1188C2.85807 21.1188 3.10816 20.8687 3.10816 20.5648V19.676C3.10816 16.4286 5.75145 13.7852 8.99885 13.7852H15.0012C18.2486 13.7852 20.8919 16.4286 20.8919 19.676V20.5648C20.8919 20.8726 21.142 21.1188 21.446 21.1188C21.7499 21.1188 22 20.8687 22 20.5648V19.676C22 15.813 18.8604 12.6733 14.9973 12.6733H15.005Z" fill="#1B8354"/>
</svg>
