<svg width="24" height="24" viewBox="0 0 24 24" fill="none" xmlns="http://www.w3.org/2000/svg">
<path d="M17.7731 10.8885H17.1154C16.7807 9.07308 15.6423 7.53847 14.0846 6.66539H14.1077V3.66539C14.1077 2.74616 13.3615 2 12.4423 2H9.77691C8.85768 2 8.11153 2.74616 8.11153 3.66539V6.67692C6.25768 7.72692 5 9.71924 5 12C5 14.2808 6.25768 16.2692 8.11153 17.3231V20.3346C8.11153 21.2539 8.85768 22 9.77691 22H12.4423C13.3615 22 14.1077 21.2539 14.1077 20.3346V17.3231C15.6538 16.4462 16.7807 14.9192 17.1154 13.1115H17.7731C18.0192 13.1115 18.2192 12.9115 18.2192 12.6654V11.3308C18.2192 11.0846 18.0192 10.8885 17.7731 10.8885ZM9.21539 3.66539C9.21539 3.3577 9.46538 3.11154 9.76922 3.11154H12.4346C12.7423 3.11154 12.9884 3.36155 12.9884 3.66539V6.18846C12.3923 5.99616 11.7577 5.88847 11.1 5.88847C10.4423 5.88847 9.80767 5.99616 9.21151 6.18846V3.66539H9.21539ZM12.9923 20.3346C12.9923 20.6423 12.7423 20.8885 12.4385 20.8885H9.77307C9.46537 20.8885 9.21923 20.6385 9.21923 20.3346V17.8115C9.81538 18.0038 10.45 18.1115 11.1077 18.1115C11.7654 18.1115 12.4 18.0038 12.9961 17.8115L12.9923 20.3346ZM11.1038 17C8.34615 17 6.10383 14.7577 6.10383 12C6.10383 9.24232 8.34615 7.00001 11.1038 7.00001C13.8615 7.00001 16.1038 9.24232 16.1038 12C16.1038 14.7577 13.8615 17 11.1038 17Z" fill="#1B8354"/>
<path d="M14.0808 13.3154L11.6615 11.7038V9.55768C11.6615 9.24998 11.4115 9.00384 11.1077 9.00384C10.8038 9.00384 10.5538 9.25383 10.5538 9.55768V12.0038C10.5538 12.0423 10.5538 12.0769 10.5654 12.1115C10.5654 12.1269 10.5731 12.1423 10.5808 12.1577C10.5846 12.1769 10.5923 12.1961 10.6 12.2154C10.6077 12.2308 10.6154 12.2461 10.6231 12.2615C10.6308 12.2769 10.6384 12.2961 10.65 12.3115C10.6615 12.3269 10.6731 12.3423 10.6884 12.3577C10.7 12.3692 10.7077 12.3846 10.7192 12.3961C10.7462 12.4231 10.7731 12.4461 10.8038 12.4654L13.4692 14.2423C13.5654 14.3038 13.6692 14.3346 13.7769 14.3346C13.9577 14.3346 14.1346 14.2461 14.2385 14.0885C14.4077 13.8346 14.3385 13.4884 14.0846 13.3192L14.0808 13.3154Z" fill="#1B8354"/>
</svg>
