<svg width="28" height="26" viewBox="0 0 28 26" fill="none" xmlns="http://www.w3.org/2000/svg">
<path d="M18.0063 9.01172C18.2281 9.02364 18.3808 9.0308 18.5334 9.04034C19.28 9.08804 20.0503 9.03318 20.7682 9.20252C22.7669 9.67237 24.1454 11.485 24.1573 13.5337C24.1645 14.7716 24.1573 16.0118 24.1573 17.2496C24.1573 17.3856 24.1573 17.5191 24.1573 17.7719C24.4268 17.5144 24.6177 17.3283 24.8108 17.1447C25.6122 16.3839 26.6712 16.3672 27.3843 17.1089C28.1499 17.9031 28.0044 19.1362 26.9717 19.897C25.555 20.9417 24.3124 22.1795 23.2391 23.5723C22.7502 24.2068 22.1682 24.4954 21.4265 24.4954C16.3583 24.4882 11.2901 24.493 6.22189 24.4858C5.91899 24.4858 5.67573 24.4906 5.52785 24.8293C5.46584 24.9724 5.25596 25.1131 5.09139 25.1417C4.78849 25.1942 3.87741 25.2466 3.87741 24.8412C3.87741 24.4572 4.37827 24.4787 4.48798 24.4882C4.96498 24.5359 5.06039 24.3236 4.93159 23.5056C4.6764 21.867 4.69786 20.1975 4.93875 18.5542C5.058 17.7362 4.95544 17.5955 4.48798 17.6026C3.33601 17.6217 2.18642 17.6169 1.03445 17.6193C0.910428 17.6193 0.784022 17.6193 0.66 17.6193C0.400032 17.6121 0.109057 17.5955 0.113827 17.2568C0.116212 16.911 0.409571 16.9157 0.66954 16.9157C2.02185 16.9157 3.37178 16.9133 4.7241 16.9157C5.37998 16.9157 5.64233 17.1518 5.68527 17.7934C5.69958 18.0081 5.78066 18.1011 5.98101 18.0629C6.29583 18.0009 6.61066 17.9246 6.92071 17.8387C7.15683 17.7743 7.23315 17.6074 7.23076 17.357C7.21884 16.1191 7.22361 14.8789 7.226 13.6411C7.23077 11.1225 9.25566 9.0785 11.7743 9.03795C12.2775 9.0308 12.7831 9.03795 13.3555 9.03795M8.01067 16.62C8.72856 16.2145 9.44407 15.8186 10.1477 15.4036C10.2359 15.3511 10.3098 15.2104 10.3242 15.1031C10.3575 14.8574 10.3552 14.6046 10.3623 14.3542C10.3742 13.9249 10.515 13.6935 10.7797 13.7198C11.1446 13.7579 11.1804 14.0394 11.1875 14.3303C11.1899 14.4687 11.2138 14.6046 11.2066 14.743C11.1899 15.0506 11.3378 15.1031 11.6216 15.1007C13.5368 15.084 15.4496 15.0816 17.3648 15.0912C18.2782 15.0959 18.9961 15.7757 19.0343 16.6391C19.0772 17.6169 18.4714 18.3515 17.5246 18.4541C17.1764 18.4898 16.8258 18.4922 16.4752 18.4994C15.9004 18.5113 15.3232 18.4922 14.7484 18.5256C14.2451 18.5542 13.9136 18.9072 13.8659 19.3914C13.8254 19.7992 14.1164 20.2238 14.5528 20.3549C14.7293 20.4074 14.9225 20.4217 15.1061 20.4217C16.5944 20.4265 18.0851 20.4265 19.5733 20.4241C20.1386 20.4241 20.1648 20.3979 20.191 19.8422C20.1982 19.6919 20.1958 19.5416 20.1958 19.3914C20.1958 17.7886 20.1958 16.1883 20.1958 14.5855C20.1958 14.4472 20.1934 14.3089 20.203 14.1729C20.222 13.9201 20.3365 13.7222 20.6108 13.7269C20.8851 13.7293 20.9924 13.9344 21.0115 14.1849C21.0234 14.3351 21.021 14.4854 21.021 14.6356C21.021 16.3624 21.021 18.0892 21.0306 19.8159C21.0306 19.9996 21.1236 20.1808 21.1761 20.3645C21.3478 20.2762 21.5481 20.2166 21.6841 20.0902C22.1611 19.649 22.6285 19.1934 23.0745 18.7212C23.2105 18.5781 23.3369 18.3587 23.3393 18.1702C23.375 16.5818 23.4705 14.9886 23.3751 13.4073C23.2391 11.1749 21.6626 9.79878 19.4231 9.7964C16.8329 9.79401 14.2428 9.78447 11.6526 9.80355C9.83522 9.81548 8.23964 11.1988 8.04645 12.9995C7.93435 14.0513 7.99398 15.1222 7.97967 16.1835C7.97967 16.3529 7.99875 16.5222 8.0059 16.6247L8.01067 16.62ZM13.8182 23.7727C16.3583 23.7727 18.8983 23.7679 21.4408 23.7775C21.8558 23.7775 22.1945 23.6534 22.4807 23.3553C22.7502 23.0763 23.034 22.8115 23.3107 22.5396C24.4793 21.3877 25.6528 20.2452 26.8095 19.0837C27.4225 18.4684 27.1649 17.5072 26.3516 17.3116C25.9318 17.2115 25.5979 17.3856 25.3045 17.6742C24.2861 18.6735 23.2653 19.6704 22.2469 20.6698C21.9321 20.9774 21.5815 21.1992 21.1236 21.1992C18.9961 21.1992 16.8687 21.204 14.7412 21.1945C14.1927 21.1945 13.7514 20.9321 13.4295 20.498C13.0145 19.9376 12.9477 19.3198 13.2506 18.6926C13.5606 18.051 14.102 17.7123 14.808 17.6932C15.6452 17.6694 16.4847 17.6932 17.3242 17.6813C17.8609 17.6742 18.252 17.2926 18.2615 16.8036C18.2711 16.3075 17.9038 15.9188 17.3767 15.8663C17.2908 15.8592 17.2026 15.8615 17.1143 15.8615C15.4615 15.8615 13.8111 15.8544 12.1582 15.8663C11.7981 15.8687 11.4332 15.9116 11.0802 15.9808C9.92824 16.205 9.01 16.8227 8.25633 17.7052C7.69346 18.3634 6.9708 18.745 6.10264 18.7737C5.75443 18.7856 5.6948 18.9215 5.69719 19.2268C5.70911 20.5911 5.71389 21.9553 5.6948 23.3195C5.69003 23.6868 5.8069 23.7798 6.16227 23.7798C8.71425 23.7655 11.2662 23.7727 13.8182 23.7727Z" fill="#1B8354"/>
<path d="M4.62664 25.2997C4.36667 25.2997 4.06616 25.2639 3.89682 25.1208C3.80857 25.0468 3.76326 24.9514 3.76326 24.8417C3.76326 24.7106 3.81096 24.5985 3.8992 24.5174C4.09 24.3433 4.41198 24.3623 4.505 24.3719C4.71011 24.3933 4.77212 24.3528 4.80313 24.3218C4.91046 24.2097 4.86753 23.8376 4.81982 23.5252C4.57178 21.9368 4.57417 20.2601 4.82698 18.5381C4.8723 18.2304 4.90569 17.8989 4.81028 17.7916C4.76497 17.7415 4.67195 17.72 4.49546 17.7224C3.6607 17.7367 2.81163 17.7367 1.99118 17.7391H1.04193C0.901216 17.7415 0.781963 17.7415 0.662712 17.7391C0.428978 17.7343 -0.00509729 17.7224 -0.000327221 17.2549C0.00444284 16.7946 0.421823 16.7946 0.667481 16.7946H2.19629C3.04059 16.7946 3.88489 16.7946 4.73158 16.7946C5.45186 16.797 5.7643 17.0832 5.812 17.7844C5.81915 17.8989 5.84539 17.9299 5.85731 17.9394C5.87401 17.9538 5.91217 17.9538 5.96464 17.9442C6.26277 17.8846 6.5776 17.8083 6.8948 17.7224C7.03314 17.6842 7.12138 17.6103 7.119 17.3575C7.10946 16.2795 7.11184 15.1847 7.11423 14.1258V13.6392C7.119 11.0753 9.21306 8.95741 11.7817 8.91925C12.1204 8.91448 12.4615 8.91448 12.8216 8.91925H13.3654V9.16014H12.8216C12.4639 9.15775 12.1252 9.15537 11.7865 9.16014C9.34661 9.1983 7.35988 11.2089 7.35511 13.644V14.1305C7.35273 15.1895 7.35035 16.2842 7.35989 17.3599C7.35989 17.4791 7.36466 17.8464 6.96159 17.9585C6.63722 18.0492 6.31762 18.1231 6.01472 18.1851C5.8907 18.2113 5.79053 18.1923 5.7166 18.135C5.60688 18.0515 5.58542 17.9084 5.57827 17.8059C5.53772 17.2263 5.33499 17.0403 4.73396 17.0379C3.88966 17.0355 3.04536 17.0355 2.20106 17.0379H0.674637C0.345503 17.0379 0.245332 17.0689 0.242947 17.2621C0.242947 17.4457 0.333577 17.4958 0.674637 17.5054C0.791504 17.5078 0.908371 17.5078 1.02524 17.5054H1.99833C2.81878 17.503 3.66547 17.5006 4.50023 17.4863C4.68865 17.4815 4.87945 17.4982 4.9987 17.6365C5.13227 17.7868 5.15134 18.0325 5.07025 18.5739C4.82221 20.272 4.81982 21.9248 5.0631 23.4894C5.13942 23.9736 5.15134 24.3099 4.98439 24.4864C4.85322 24.6247 4.65049 24.6247 4.49069 24.608C4.38098 24.5985 4.16871 24.6032 4.06854 24.6939C4.02799 24.7296 4.0113 24.7773 4.0113 24.8417C4.0113 24.8799 4.02561 24.9109 4.059 24.9371C4.24742 25.0945 4.81982 25.0731 5.08456 25.0254C5.21574 25.0015 5.38746 24.8823 5.43278 24.7821C5.61404 24.3647 5.95272 24.3695 6.23415 24.3671C8.58102 24.3695 10.9279 24.3695 13.2748 24.3719C15.9961 24.3719 18.7198 24.3719 21.4411 24.3766H21.4459C22.1542 24.3766 22.698 24.0976 23.1583 23.499C24.2602 22.0679 25.5243 20.8229 26.9148 19.7998C27.4132 19.4325 27.7138 18.9388 27.7567 18.4141C27.7948 17.9633 27.6374 17.5292 27.3107 17.1905C26.6453 16.4989 25.6579 16.5156 24.9066 17.2311C24.7754 17.3551 24.6466 17.4815 24.4916 17.627L24.0503 18.0515V16.0934C24.0503 15.2396 24.0527 14.3881 24.0503 13.5343C24.0384 11.507 22.6813 9.77309 20.7518 9.31755C20.2701 9.20545 19.7501 9.19353 19.2469 9.18399C19.0108 9.17922 18.7723 9.17445 18.5385 9.16014C18.4384 9.15298 18.3358 9.14821 18.2142 9.14106L18.0114 9.12913L18.0234 8.89062L18.2261 8.90017C18.3477 8.90732 18.4503 8.91209 18.5528 8.91925C18.7842 8.93356 19.0179 8.93833 19.2517 8.9431C19.7668 8.95264 20.3011 8.96456 20.8067 9.08382C22.8435 9.56321 24.2745 11.3925 24.2888 13.5295C24.2936 14.3834 24.2936 15.2372 24.2912 16.091V17.4911L24.327 17.4553C24.4797 17.3074 24.6108 17.1834 24.742 17.057C25.5935 16.2461 26.7216 16.2318 27.4824 17.0236C27.8569 17.4123 28.0381 17.9132 27.9928 18.4331C27.9427 19.0294 27.6088 19.5827 27.0531 19.9906C25.6817 21.0018 24.4343 22.2301 23.3444 23.6444C22.834 24.3051 22.2306 24.6128 21.4435 24.6128H21.4387C18.7174 24.608 15.9961 24.608 13.2724 24.608C10.9255 24.608 8.57864 24.608 6.23177 24.6032H6.22461C5.9241 24.6032 5.76191 24.6175 5.64981 24.8751C5.56634 25.0683 5.31114 25.2257 5.12511 25.2567C5.12034 25.2567 4.89853 25.2949 4.63379 25.2949L4.62664 25.2997ZM6.14829 23.8996C5.98849 23.8996 5.81438 23.8829 5.6999 23.7685C5.58303 23.6492 5.57111 23.4656 5.57349 23.3201C5.59496 21.8437 5.58542 20.3602 5.57588 19.2321C5.57349 18.8887 5.65936 18.674 6.09582 18.6573C6.90911 18.6287 7.60316 18.2829 8.16364 17.6294C8.99363 16.6587 9.94049 16.0815 11.0567 15.8645C11.4407 15.7905 11.8127 15.7524 12.1586 15.7476C13.3892 15.7381 14.6223 15.7404 15.853 15.7404H17.1147H17.16C17.2363 15.7404 17.3126 15.7404 17.3866 15.7476C17.9733 15.8048 18.3907 16.2485 18.3811 16.8042C18.3716 17.3623 17.916 17.7892 17.3269 17.7987C16.9668 17.8035 16.6067 17.8011 16.2465 17.7987C15.7767 17.7987 15.2901 17.794 14.8131 17.8083C14.1477 17.8273 13.6444 18.1493 13.3606 18.7408C13.0768 19.3275 13.1341 19.8928 13.5276 20.4223C13.8448 20.8492 14.255 21.0686 14.7439 21.0686C16.4397 21.0758 18.1355 21.0758 19.8312 21.0734H21.1263C21.496 21.0734 21.8156 20.9207 22.1662 20.5773C22.6241 20.1265 23.0844 19.6757 23.5447 19.2274C24.1052 18.6788 24.6657 18.1326 25.2238 17.5817C25.5935 17.2192 25.9727 17.0904 26.3829 17.1882C26.8003 17.2883 27.1175 17.5841 27.2296 17.98C27.3465 18.3926 27.2224 18.8338 26.8981 19.1606C26.0705 19.9906 25.2214 20.8253 24.4009 21.6339C24.067 21.963 23.7331 22.2897 23.3992 22.6189C23.3038 22.7143 23.206 22.8073 23.1083 22.9027C22.927 23.0768 22.7457 23.2509 22.5716 23.4322C22.2735 23.7398 21.9062 23.8901 21.4507 23.8901H21.4459C19.5402 23.8829 17.637 23.8853 15.7314 23.8853H13.8257H11.9773C10.074 23.8853 8.10402 23.8829 6.16737 23.8925H6.15544L6.14829 23.8996ZM14.4983 15.9789C13.7184 15.9789 12.9385 15.9789 12.1586 15.9861C11.827 15.9861 11.4717 16.0266 11.102 16.0982C10.0407 16.3033 9.13912 16.8566 8.3449 17.7844C7.74149 18.4904 6.98782 18.8648 6.10536 18.8958C5.83823 18.9054 5.812 18.9674 5.81438 19.2297C5.82392 20.3603 5.83346 21.8461 5.812 23.3248C5.812 23.4727 5.82869 23.5586 5.86924 23.6015C5.91217 23.6444 6.00042 23.6611 6.15783 23.6635C8.09448 23.654 10.0645 23.654 11.9678 23.6564H13.8162H15.7218C17.6275 23.6564 19.5331 23.6564 21.4387 23.6611H21.4435C21.837 23.6611 22.1399 23.5395 22.3927 23.2748C22.5692 23.0911 22.7505 22.9146 22.9341 22.7381C23.0319 22.6451 23.1273 22.5497 23.2251 22.4567C23.559 22.1276 23.8929 21.7984 24.2268 21.4717C25.0473 20.6655 25.8964 19.8308 26.7216 19.0008C26.9839 18.736 27.0841 18.3831 26.9911 18.0539C26.9028 17.7415 26.6524 17.5077 26.3185 17.429C25.987 17.3503 25.6984 17.4529 25.3836 17.7606C24.8255 18.3091 24.265 18.8577 23.7045 19.4062C23.2442 19.8546 22.7839 20.3054 22.326 20.7562C21.9348 21.1402 21.5508 21.319 21.1191 21.319H19.8241C18.1283 21.319 16.4326 21.3214 14.7368 21.3143C14.1763 21.3143 13.6898 21.0543 13.3296 20.5701C12.886 19.9715 12.8192 19.3061 13.1388 18.643C13.4656 17.9657 14.0404 17.5984 14.8012 17.5769C15.2806 17.5626 15.7695 17.565 16.2417 17.5674C16.6019 17.5674 16.9596 17.5698 17.3198 17.5674C17.7872 17.5602 18.1307 17.2406 18.1402 16.8065C18.1498 16.3701 17.8278 16.0362 17.3627 15.9909C17.2959 15.9837 17.2268 15.9861 17.16 15.9861H17.1123H15.8506C15.3998 15.9861 14.9491 15.9861 14.4983 15.9861V15.9789ZM17.5845 20.5415C16.7593 20.5415 15.9341 20.5415 15.1112 20.5391C14.8704 20.5391 14.6843 20.5153 14.5221 20.4676C14.0356 20.3221 13.7041 19.8522 13.7494 19.3776C13.8042 18.8171 14.1954 18.4355 14.7439 18.4045C15.1112 18.3831 15.4857 18.3831 15.8482 18.3831C16.0557 18.3831 16.2656 18.3831 16.4731 18.3783H16.6281C16.9191 18.3711 17.222 18.3664 17.513 18.3354C18.393 18.2423 18.9559 17.5626 18.9154 16.6444C18.8796 15.8454 18.1999 15.2157 17.3651 15.211C15.3855 15.2014 13.4536 15.2062 11.6219 15.2205C11.4669 15.2205 11.2952 15.2086 11.1879 15.0965C11.1115 15.0178 11.0782 14.8985 11.0877 14.7363C11.0925 14.6624 11.0853 14.5837 11.0782 14.5026C11.0734 14.4454 11.0686 14.3905 11.0686 14.3333C11.0615 14.0113 11.0161 13.8634 10.7681 13.8372C10.7061 13.8324 10.6584 13.8443 10.6202 13.8777C10.5367 13.9493 10.489 14.1186 10.4819 14.3547V14.5098C10.4747 14.7077 10.4724 14.9152 10.4437 15.1179C10.4247 15.2539 10.3388 15.428 10.21 15.5043C9.67098 15.8215 9.11527 16.134 8.57625 16.4369L7.90367 16.8161L7.89175 16.6253C7.89175 16.5967 7.88698 16.5633 7.88459 16.5251C7.87505 16.4249 7.86551 16.3033 7.86551 16.1769C7.87028 15.8621 7.86551 15.5449 7.86551 15.23C7.86074 14.4907 7.85359 13.7275 7.93468 12.981C8.13025 11.1421 9.76638 9.692 11.6577 9.67769C13.8329 9.66338 16.0438 9.66576 18.1808 9.67053H19.4282C21.7631 9.6753 23.3611 11.1373 23.4994 13.396C23.5733 14.6052 23.5328 15.8358 23.4946 17.0284C23.4827 17.4076 23.4708 17.7892 23.4612 18.1684C23.4565 18.4045 23.2967 18.655 23.1631 18.7981C22.7529 19.2345 22.2973 19.6829 21.7679 20.1742C21.6582 20.2744 21.5246 20.334 21.3934 20.3913C21.3386 20.4151 21.2861 20.439 21.2336 20.4652L21.1024 20.5344L21.0643 20.3913C21.05 20.3364 21.0285 20.2792 21.0094 20.2243C20.9641 20.0931 20.9164 19.9572 20.914 19.8117C20.9045 18.5118 20.9045 17.212 20.9045 15.9098V14.5527C20.9045 14.4311 20.9045 14.3094 20.8949 14.1878C20.8711 13.8443 20.6827 13.842 20.6135 13.842C20.5467 13.842 20.3512 13.8372 20.3273 14.1782C20.3178 14.2903 20.3202 14.4024 20.3202 14.5145V14.5837V19.3895V19.473C20.3202 19.597 20.3202 19.7211 20.3154 19.8451C20.2868 20.4628 20.2033 20.5415 19.5784 20.5415H19.037C18.5528 20.5415 18.0687 20.5415 17.5845 20.5415ZM15.2472 14.9677C15.946 14.9677 16.652 14.9677 17.3651 14.9725C18.3263 14.9772 19.1133 15.707 19.1539 16.6324C19.1992 17.6842 18.5505 18.4618 17.5368 18.5691C17.2363 18.6001 16.9286 18.6072 16.6329 18.612H16.4779C16.268 18.6192 16.0581 18.6192 15.8482 18.6192C15.4905 18.6192 15.1184 18.6192 14.7559 18.6406C14.3242 18.6645 14.0284 18.9555 13.9855 19.3967C13.9497 19.7545 14.2169 20.1217 14.5889 20.2338C14.7273 20.2744 14.8918 20.2959 15.1089 20.2959C16.4182 20.3006 17.7252 20.3006 19.0346 20.2982H19.576C19.894 20.2982 20.0602 20.1416 20.0745 19.8284C20.0793 19.7091 20.0793 19.5875 20.0793 19.4682V19.3824V14.5765V14.5098C20.0793 14.3905 20.0793 14.2736 20.0864 14.1544C20.1127 13.799 20.3011 13.5987 20.6064 13.5987H20.6159C20.9188 13.6011 21.1072 13.8086 21.1334 14.1663C21.143 14.2927 21.143 14.4215 21.143 14.5479V15.905C21.143 17.2048 21.143 18.5047 21.1525 19.8045C21.1525 19.9095 21.1931 20.0216 21.2336 20.1408C21.2384 20.1575 21.2455 20.1718 21.2503 20.1885C21.2646 20.1814 21.2813 20.1742 21.2956 20.1671C21.4125 20.1146 21.5246 20.0669 21.6033 19.993C22.128 19.5064 22.5812 19.0604 22.989 18.6287C23.1035 18.5071 23.218 18.3163 23.2227 18.1565C23.2323 17.7749 23.2442 17.3957 23.2561 17.014C23.2943 15.8287 23.3324 14.6004 23.2609 13.4031C23.1321 11.2804 21.6271 9.90665 19.4282 9.90427H18.1808C16.0438 9.8995 13.8329 9.89473 11.6601 9.91142C9.88802 9.92335 8.35683 11.2804 8.17318 13C8.09447 13.7322 8.10163 14.4883 8.1064 15.2205C8.1064 15.5377 8.11117 15.8549 8.1064 16.1721C8.1064 16.2556 8.11117 16.3391 8.11594 16.4154L8.46177 16.2222C8.9984 15.9217 9.55412 15.6093 10.0907 15.2921C10.1408 15.261 10.1981 15.1609 10.21 15.0774C10.2362 14.889 10.2386 14.691 10.2434 14.4978V14.3404C10.2553 14.028 10.3293 13.8086 10.4652 13.6893C10.5534 13.6106 10.6655 13.5772 10.7943 13.5915C11.2928 13.6416 11.3023 14.0828 11.3071 14.319C11.3071 14.3714 11.3119 14.4215 11.3167 14.474C11.3238 14.5599 11.331 14.6481 11.3262 14.7387C11.3214 14.8294 11.3333 14.8914 11.362 14.9224C11.3954 14.9582 11.4669 14.9725 11.6219 14.9725C12.793 14.9629 14.007 14.9582 15.2472 14.9582V14.9677Z" fill="#1B8354"/>
<path d="M2.03875 24.4492H0.629194C0.496155 24.4492 0.388306 24.5571 0.388306 24.6901V24.9143C0.388306 25.0473 0.496155 25.1552 0.629194 25.1552H2.03875C2.17179 25.1552 2.27963 25.0473 2.27963 24.9143V24.6901C2.27963 24.5571 2.17179 24.4492 2.03875 24.4492Z" fill="#1B8354"/>
<path d="M2.03922 25.2726H0.629671C0.431714 25.2726 0.269531 25.1104 0.269531 24.9125V24.6883C0.269531 24.4903 0.431714 24.3281 0.629671 24.3281H2.03922C2.23718 24.3281 2.39937 24.4903 2.39937 24.6883V24.9125C2.39937 25.1104 2.23718 25.2726 2.03922 25.2726ZM0.629671 24.5666C0.56289 24.5666 0.508035 24.6215 0.508035 24.6883V24.9125C0.508035 24.9792 0.56289 25.0341 0.629671 25.0341H2.03922C2.10601 25.0341 2.16086 24.9792 2.16086 24.9125V24.6883C2.16086 24.6215 2.10601 24.5666 2.03922 24.5666H0.629671Z" fill="#1B8354"/>
<path d="M19.2513 7.35306C19.4326 6.92137 19.5232 6.44436 19.5232 5.94589V0.612953C19.5232 0.271894 19.2513 0 18.9103 0H14.1903C13.5105 0 12.919 0.295746 12.4659 0.725052C12.0127 1.17821 11.7408 1.7697 11.7408 2.44943V5.96735C11.7408 6.51114 11.8553 7.012 12.0366 7.46516C12.4969 8.93672 14.5552 9.86927 15.6213 9.86927C16.6874 9.86927 17.6629 9.43758 18.3665 8.73399C18.4571 8.64336 18.5477 8.55273 18.6169 8.4621M12.9668 2.49713C12.9668 2.15607 13.1027 1.86271 13.3293 1.63613C13.5559 1.40956 13.8516 1.27361 14.1903 1.27361H18.2973V2.95267H12.9644V2.49952L12.9668 2.49713ZM17.5269 7.89685C17.0499 8.39532 16.3702 8.69106 15.6428 8.69106C14.9153 8.69106 14.2356 8.37385 13.7586 7.89685C13.2601 7.41984 12.9644 6.7401 12.9644 6.01267V4.17381H18.2973L18.3211 6.01267C18.3211 6.73772 18.0039 7.41984 17.5269 7.89685Z" fill="#1B8354"/>
</svg>
