<svg width="28" height="20" viewBox="0 0 28 20" fill="none" xmlns="http://www.w3.org/2000/svg">
<path d="M27.9956 10.5613C27.8689 11.1379 27.5085 11.5573 27.1066 11.9658C25.3177 13.7722 23.5353 15.5852 21.7594 17.4069C21.2177 17.9639 20.5842 18.2239 19.8088 18.2217C17.1658 18.2108 14.5227 18.2261 11.8797 18.2108C11.0977 18.2064 10.3659 18.368 9.65386 18.6782C9.29563 18.8355 8.93086 18.9775 8.5639 19.1129C8.3127 19.2046 8.0768 19.0954 7.97632 18.8639C7.87366 18.6323 7.95228 18.3702 8.20566 18.2697C9.12526 17.905 10.0077 17.4288 11.0147 17.3239C11.2593 17.2977 11.5062 17.289 11.7508 17.2868C14.4572 17.2846 17.1636 17.2824 19.8721 17.2868C20.3374 17.2868 20.7175 17.1317 21.0429 16.7997C22.9236 14.8775 24.8087 12.9618 26.696 11.0462C26.9384 10.7994 27.0957 10.5219 27.0433 10.1681C26.9319 9.40357 26.0931 9.08903 25.4837 9.59361C24.5007 10.4062 23.5265 11.2297 22.5479 12.0488C22.3863 12.1842 22.2312 12.324 22.0652 12.4507C21.7113 12.7216 21.4492 12.9946 21.3793 13.5079C21.2614 14.3598 20.4925 14.9343 19.6275 14.9386C17.9237 14.9496 16.2199 14.9452 14.514 14.943C14.1885 14.943 13.9919 14.7552 13.9963 14.4734C14.0007 14.196 14.2038 14.0147 14.5293 14.0147C16.1981 14.0125 17.8648 14.0147 19.5336 14.0125C20.0775 14.0125 20.4728 13.6739 20.5143 13.1846C20.5646 12.6123 20.1168 12.1515 19.5008 12.1515C18.0242 12.1493 16.5476 12.1405 15.071 12.1558C14.5664 12.1624 14.1361 12.0466 13.7276 11.7299C13.033 11.1903 12.2139 11.1685 11.3795 11.2428C9.31531 11.4263 7.55474 12.324 5.97548 13.5953C5.04059 14.3489 4.19086 15.2051 3.28437 15.9937C2.47398 16.6992 1.64176 17.3807 0.813904 18.0666C0.556154 18.2785 0.294037 18.261 0.112738 18.0426C-0.0620079 17.8329 -0.0336085 17.5708 0.19793 17.3676C1.82962 15.9391 3.44384 14.4909 5.09956 13.0951C6.57835 11.85 8.22751 10.8998 10.1453 10.487C11.0846 10.286 12.0326 10.203 12.9981 10.3669C13.1335 9.96058 13.1269 9.61327 12.7906 9.2878C12.1025 8.62158 11.4385 7.93352 10.7723 7.24764C10.1017 6.55958 10.0929 5.53076 10.7853 4.94318C11.0147 4.74877 11.3358 4.61335 11.6351 4.55655C12.5743 4.38181 13.5223 4.24857 14.4681 4.11751C14.7739 4.07601 14.9574 3.92529 15.0841 3.65224C15.5232 2.71299 15.9578 1.77154 16.4187 0.841022C16.8512 -0.0327072 17.9303 -0.272985 18.6577 0.345178C18.8521 0.509003 19.0028 0.744909 19.1186 0.976447C19.551 1.85018 19.9661 2.73046 20.3724 3.61511C20.5122 3.91873 20.7065 4.07819 21.0473 4.12187C21.9756 4.2442 22.9018 4.40147 23.8279 4.54126C24.4374 4.63301 24.8786 4.94318 25.0948 5.52639C25.3155 6.11398 25.2259 6.67317 24.7978 7.12969C24.1206 7.85489 23.4173 8.55824 22.7118 9.25722C22.4497 9.51715 22.3164 9.78801 22.4147 10.1593C22.4693 10.3669 22.4911 10.5831 22.5348 10.8343C23.3365 10.1637 24.1032 9.52371 24.8699 8.88152C25.2084 8.59756 25.5907 8.42718 26.0385 8.41407C26.9494 8.38786 27.7073 8.95142 27.941 9.82952C27.9563 9.89068 27.9803 9.94965 28 10.0086V10.5547L27.9956 10.5613ZM21.115 12.0269C21.2592 11.909 21.364 11.8041 21.4842 11.7255C21.6611 11.6097 21.707 11.4721 21.6567 11.2668C21.5868 10.9763 21.5628 10.6727 21.4995 10.38C21.3466 9.67661 21.5388 9.09776 22.0565 8.59755C22.7314 7.94444 23.378 7.26512 24.0376 6.59671C24.2386 6.39357 24.326 6.15985 24.2255 5.87589C24.1316 5.6094 23.9284 5.51111 23.6641 5.47179C22.7358 5.33636 21.8118 5.17909 20.8835 5.0524C20.25 4.96503 19.8153 4.64175 19.5467 4.06508C19.1295 3.16514 18.6948 2.27394 18.2754 1.374C18.1618 1.13154 18.0154 0.948054 17.7315 0.948054C17.4475 0.948054 17.3034 1.13809 17.192 1.37836C16.7682 2.28486 16.3335 3.18698 15.9076 4.09348C15.6455 4.65048 15.2195 4.96065 14.6057 5.04803C13.6512 5.18127 12.6966 5.33417 11.7443 5.48052C11.2659 5.55479 11.0475 6.05063 11.314 6.45473C11.3642 6.529 11.4297 6.59453 11.4931 6.66006C12.1571 7.33502 12.8211 8.01216 13.4917 8.68275C13.9089 9.09995 14.0837 9.58924 13.9963 10.1725C13.9745 10.3166 13.9483 10.4608 13.9308 10.6049C13.9242 10.6552 13.9264 10.7426 13.9504 10.7557C14.2694 10.9086 14.4878 11.234 14.9072 11.2275C16.3095 11.2078 17.714 11.2384 19.1164 11.2122C19.9071 11.1969 20.5995 11.352 21.1128 12.0313L21.115 12.0269Z" fill="#1B8354"/>
</svg>
