<svg width="19" height="28" viewBox="0 0 19 28" fill="none" xmlns="http://www.w3.org/2000/svg">
<path d="M16.0018 26.6755C16.0179 26.3307 15.9972 24.3651 16.011 24.1467C16.057 23.3789 15.4524 22.8456 14.6799 22.7927C14.5903 22.7858 14.5029 22.7812 14.3926 22.7743C14.3926 22.2548 14.4225 21.7582 14.3857 21.264C14.319 20.3904 14.6248 19.7031 15.2501 19.1008C15.8914 18.4847 16.3673 17.7467 16.5926 16.8663C16.8822 15.7352 16.742 14.6019 16.6018 13.4709C16.4363 12.1513 15.9995 10.8778 16.0593 9.51916C16.0892 8.82031 15.4225 8.14674 14.7167 8.05479C14.3512 8.00651 13.9696 8.07548 13.5627 8.09157C13.4455 7.46858 13.0868 6.95134 12.4409 6.66399C11.7811 6.36973 11.1558 6.48467 10.565 6.85709C9.76502 5.52605 7.98799 5.45939 7.14431 6.88237C7.09144 6.85249 7.03857 6.82031 6.9834 6.79042C5.67995 6.0272 4.12364 6.88927 4.08686 8.40421C4.07076 9.09847 4.06847 9.79272 4.08686 10.487C4.10065 10.972 4.11904 11.4364 3.61099 11.7123C3.56042 11.7398 3.52823 11.8042 3.48915 11.8525C2.52363 13.087 2.22019 14.5054 2.36731 16.0318C2.48685 17.2801 3.02709 18.3674 3.86157 19.2755C4.33743 19.795 4.51674 20.3261 4.46387 21.0065C4.41789 21.5904 4.45466 22.1812 4.45466 22.7651C4.35811 22.7858 4.29834 22.7973 4.23857 22.8111C3.48454 22.9743 3.07765 23.4571 3.05236 24.2249C3.04777 24.4019 3.06846 24.5789 3.04317 24.7536C3.03857 24.7881 3.03628 26.0226 3.06157 26.0088C2.96042 26.9559 3.19489 27.6847 4.13512 28.0019H6.56041C6.788 27.8571 6.94432 27.6663 6.84777 27.3835C6.74892 27.1008 6.50984 27.0617 6.24087 27.0663C5.68225 27.0778 5.12134 27.0732 4.56272 27.0663C4.15582 27.064 4.00639 26.91 4.00409 26.5008C4.00179 25.8387 4.00409 25.1743 4.00409 24.5123C4.00409 23.8019 4.06157 23.7444 4.75812 23.7444C7.0064 23.7444 9.25467 23.7444 11.5029 23.7444C12.4983 23.7444 13.4914 23.7444 14.4868 23.7444C14.9765 23.7444 15.0914 23.864 15.0914 24.349C15.0914 25.064 15.0914 25.7789 15.0914 26.4939C15.0914 26.9192 14.9397 27.0663 14.5075 27.0663C12.5903 27.0663 10.6754 27.0686 8.75812 27.0663C8.49835 27.0663 8.24776 27.0732 8.13282 27.3559C8.02248 27.6318 8.17421 27.8272 8.36502 27.9996H14.9558C15.6179 27.7789 15.9144 27.3421 16.0064 26.7858C16.0064 26.749 16.0018 26.7123 16.0041 26.6732L16.0018 26.6755ZM13.5834 11.2042C13.5834 10.7284 13.5811 10.2525 13.5834 9.77433C13.588 9.28697 13.9075 8.95594 14.365 8.95824C14.8202 8.95824 15.1443 9.28927 15.1466 9.77893C15.1512 10.7215 15.1512 11.664 15.1466 12.6065C15.1443 13.087 14.8064 13.4364 14.3627 13.4341C13.919 13.4318 13.588 13.0847 13.5834 12.6019C13.5788 12.1352 13.5834 11.6686 13.5834 11.2042ZM10.7604 10.3054C10.7604 9.67548 10.7604 9.04329 10.765 8.41341C10.7696 7.86858 11.1029 7.49847 11.6156 7.45939C12.1282 7.42261 12.5282 7.73985 12.6248 8.26169C12.6363 8.32146 12.6432 8.38352 12.6432 8.44559C12.6432 9.50996 12.6501 10.5766 12.634 11.641C12.6225 12.4134 11.9443 12.8249 11.2478 12.5008C11.257 12.2801 11.2938 12.0824 11.2685 11.8916C11.2432 11.7031 11.211 11.4433 11.0823 11.3536C10.6823 11.0709 10.7604 10.6824 10.7581 10.3008L10.7604 10.3054ZM7.92134 9.37203C7.92134 8.8341 7.91674 8.29617 7.92134 7.75824C7.92594 7.18812 8.32133 6.78582 8.86386 6.78582C9.40639 6.78582 9.7995 7.18582 9.8018 7.76054C9.8041 8.76283 9.79719 9.76743 9.79489 10.7697C9.79489 10.8295 9.7857 10.8893 9.77881 10.9628H7.91904C7.91904 10.4203 7.92134 9.89617 7.92134 9.37203ZM5.04088 8.45019C5.04778 7.84789 5.44548 7.4456 5.9972 7.45249C6.54433 7.46169 6.93053 7.87778 6.93513 8.47548C6.93973 9.22031 6.93513 9.96743 6.93513 10.7123C6.93513 10.7927 6.92363 10.8732 6.91673 10.9674H5.05467C5.04777 10.8456 5.03858 10.7352 5.03858 10.6249C5.03858 9.90077 5.03169 9.17433 5.04088 8.45019ZM13.457 21.0157C13.4501 21.5927 13.457 22.172 13.457 22.7697H5.42938C5.42249 22.6502 5.41328 22.5421 5.41328 22.4318C5.41328 21.749 5.40409 21.064 5.41328 20.3812C5.42248 19.8916 5.27535 19.4778 4.93972 19.1123C4.25466 18.3651 3.66846 17.5513 3.42478 16.5467C3.08915 15.1628 3.28915 13.8571 4.06846 12.6525C4.3834 12.1651 4.80868 11.9238 5.41788 11.9352C6.93052 11.9628 8.44318 11.9444 9.95583 11.9444H10.3098C10.3581 12.3881 10.1696 12.6801 9.84317 12.9031C9.30064 13.2732 8.67996 13.31 8.05467 13.2916C7.63168 13.2778 7.20869 13.2226 6.7857 13.2088C6.3903 13.195 6.14892 13.3513 6.04547 13.6479C5.92593 13.9881 6.08225 14.2433 6.33742 14.4295C6.89374 14.8364 7.29145 15.349 7.44777 16.0226C7.50754 16.2801 7.53284 16.5536 7.53054 16.8203C7.53054 17.1858 7.66616 17.4065 7.95582 17.4295C8.25927 17.4548 8.45926 17.2433 8.47995 16.8709C8.52823 15.9628 8.24317 15.1605 7.70754 14.4387C7.66156 14.3743 7.62019 14.3077 7.60639 14.287C8.1857 14.2341 8.78571 14.2456 9.34893 14.1077C9.79491 13.9973 10.1949 13.7031 10.6179 13.4962C10.7098 13.4525 10.8363 13.3812 10.9075 13.4111C11.5374 13.6778 12.1374 13.6111 12.719 13.2801C13.2409 14.3444 14.4937 14.8479 15.6869 13.8203C15.7834 14.6525 15.8891 15.4709 15.7581 16.2962C15.6041 17.2525 15.0616 17.9858 14.3949 18.6456C13.9305 19.1031 13.6271 19.6456 13.5007 20.2801C13.4524 20.5215 13.4547 20.7743 13.4524 21.0226L13.457 21.0157Z" fill="#1B8354"/>
<path d="M-0.000366211 3.10408C0.135266 2.95006 0.23641 2.76385 0.392732 2.6696C0.597329 2.54546 0.824914 2.60753 1.00193 2.78224C1.42032 3.19603 1.83411 3.61213 2.2525 4.02592C2.48008 4.25121 2.70996 4.47419 2.93065 4.70638C3.16973 4.95695 3.17434 5.2719 2.95365 5.49259C2.73526 5.71328 2.41113 5.71557 2.16745 5.47419C1.51918 4.83741 0.875486 4.19604 0.241003 3.54546C0.142153 3.44431 0.100783 3.29258 -0.000366211 3.10178V3.10408Z" fill="#1B8354"/>
<path d="M18.0528 2.57456C18.3079 2.61364 18.4734 2.72169 18.5723 2.92169C18.6688 3.12399 18.655 3.33549 18.4987 3.49411C17.8321 4.17457 17.1608 4.84813 16.478 5.51249C16.2597 5.72399 15.9355 5.6964 15.7332 5.48721C15.5355 5.28261 15.5217 4.96077 15.7332 4.73778C16.0757 4.37686 16.4344 4.02974 16.7884 3.67801C17.0711 3.39526 17.347 3.1033 17.6413 2.83204C17.7585 2.72399 17.9148 2.65962 18.0528 2.57456Z" fill="#1B8354"/>
<path d="M9.88583 1.74253C9.88583 2.11724 9.89043 2.49195 9.88583 2.86437C9.88123 3.25747 9.67664 3.48046 9.33871 3.47586C9.01227 3.47126 8.81228 3.24368 8.80998 2.87126C8.80998 2.11264 8.80768 1.35632 8.80998 0.597702C8.80998 0.229886 9.02146 0 9.3456 0C9.67204 0 9.87893 0.220691 9.88583 0.593104C9.89043 0.977012 9.88583 1.35862 9.88583 1.74253Z" fill="#1B8354"/>
</svg>
