<svg width="28" height="28" viewBox="0 0 28 28" fill="none" xmlns="http://www.w3.org/2000/svg">
<path d="M7.39951 28.0026C6.723 27.8358 6.3002 27.3237 5.83979 26.8609C5.64013 26.6613 5.43575 26.4663 5.24314 26.2596C5.01528 26.0153 5.01529 25.6958 5.2314 25.475C5.44281 25.2589 5.77871 25.2472 6.01596 25.475C6.39885 25.8391 6.7653 26.2197 7.14114 26.5908C7.55456 26.9995 7.94214 27.0019 8.35087 26.5979C8.60456 26.3489 8.85355 26.0952 9.10489 25.8438C9.56999 25.3787 9.57234 25.064 9.11428 24.5989C8.2522 23.7203 7.39482 22.8418 6.52805 21.9703C5.55086 20.9885 4.56899 20.0113 3.58711 19.0341C3.46496 18.9119 3.33342 18.7992 3.19952 18.6911C2.97637 18.515 2.57703 18.5361 2.34213 18.7569C1.98508 19.0952 1.63038 19.4381 1.29683 19.7999C1.0173 20.1029 1.05254 20.4999 1.36966 20.8264C1.7502 21.2187 2.14012 21.6015 2.5277 21.9868C2.69213 22.1512 2.7673 22.3697 2.66394 22.5599C2.57938 22.7173 2.40086 22.87 2.23408 22.9193C2.10254 22.9593 1.88173 22.8817 1.77133 22.7784C1.31797 22.3579 0.874021 21.9234 0.4559 21.4653C-0.15249 20.7982 -0.15014 19.7364 0.4559 19.067C0.817645 18.67 1.19583 18.2848 1.59751 17.9277C2.11899 17.4626 2.73207 17.3452 3.40623 17.5495C3.49784 17.5777 3.65052 17.5683 3.71159 17.5096C4.23777 17.0046 4.74985 16.4854 5.26663 15.971C5.31126 15.9264 5.36528 15.8911 5.43575 15.8348C4.94247 15.3015 4.67704 14.719 4.82268 14.0049C4.96362 13.3026 5.39112 12.8445 6.05589 12.5532C5.72233 11.9871 5.63778 11.3905 5.87737 10.7797C6.11932 10.1619 6.58912 9.7861 7.24449 9.60288C7.12234 9.07201 7.17636 8.56698 7.45354 8.09953C7.73307 7.62973 8.15119 7.34315 8.62804 7.21631C8.64918 6.85456 8.62099 6.51161 8.69616 6.19449C8.9381 5.19147 9.92469 4.59483 10.9348 4.81094C11.1039 4.84617 11.2237 4.83678 11.374 4.72402C11.7381 4.44919 12.1774 4.43745 12.6049 4.51497C13.8757 4.74047 15.1442 4.98711 16.4126 5.21496C16.671 5.26194 16.9411 5.2408 17.1972 5.29483C18.2425 5.51798 18.8673 6.47872 18.6723 7.52638C18.6629 7.57101 18.663 7.61564 18.6583 7.68376C19.175 7.8247 19.5931 8.10658 19.8797 8.57168C20.1663 9.04148 20.1968 9.54651 20.0935 10.0868C20.6197 10.2277 21.0401 10.5096 21.3197 10.977C21.6015 11.4445 21.6509 11.9495 21.5358 12.4874C22.2757 12.7036 22.7807 13.1546 22.9733 13.8968C23.1636 14.6297 22.9287 15.2593 22.4002 15.8113C22.9898 16.3985 23.5653 16.9787 24.1502 17.5519C24.1878 17.5895 24.3005 17.5848 24.3639 17.5613C25.1649 17.2583 25.8626 17.4133 26.4686 18.0123C26.767 18.3083 27.0653 18.6019 27.3589 18.9002C28.1012 19.6636 28.1223 20.7677 27.3707 21.5217C25.4116 23.4948 23.4455 25.4586 21.47 27.4153C20.716 28.1623 19.6096 28.1411 18.8485 27.3942C18.5361 27.0888 18.2237 26.7811 17.9207 26.4663C17.3546 25.8767 17.2042 25.1955 17.5096 24.4321C17.5613 24.3029 17.5519 24.2254 17.4509 24.1267C16.7814 23.469 16.1213 22.8019 15.4519 22.1418C15.3931 22.0831 15.3015 22.0314 15.2217 22.0291C14.5217 22.0032 13.8193 21.9985 13.1193 21.9703C12.7106 21.9539 12.3911 22.0784 12.1022 22.3861C11.5173 23.0109 10.8995 23.6029 10.2864 24.216C10.5519 24.7046 10.6458 25.2119 10.4697 25.7452C10.4532 25.7968 10.4415 25.8532 10.4133 25.8979C9.82838 26.7623 9.1918 27.5727 8.16529 27.9532C8.1418 27.9626 8.12301 27.9838 8.10421 28.0002H7.39247L7.39951 28.0026ZM9.53241 23.3915C9.61932 23.3069 9.69214 23.2411 9.76261 23.1707C10.3428 22.5905 10.9277 22.015 11.5032 21.4301C11.7968 21.1317 12.1445 20.9415 12.5556 20.9039C12.9173 20.8687 13.2814 20.8757 13.6455 20.8804C14.0002 20.8874 14.3549 20.9133 14.7096 20.9344C15.4472 20.9791 16.0297 20.7019 16.5019 20.1334C16.7509 19.8351 17.1079 19.8234 17.3428 20.0465C17.5894 20.2838 17.5566 20.6079 17.2864 20.9156C17.0562 21.174 16.8542 21.4583 16.6546 21.7096C17.1455 22.2052 17.7351 22.7995 18.3153 23.3821C19.9878 21.7026 21.6626 20.0207 23.2858 18.3881C22.7243 17.822 22.1441 17.2371 21.5475 16.6358C21.5287 16.6593 21.4935 16.7133 21.4442 16.7556C21.3056 16.8707 21.1764 17.0116 21.0166 17.0868C20.7911 17.1948 20.5092 17.075 20.3754 16.8589C20.2415 16.6428 20.272 16.3633 20.474 16.1589C20.8757 15.7479 21.2915 15.3509 21.6884 14.9374C22.0079 14.6015 22.0009 14.1106 21.6932 13.8052C21.3737 13.4881 20.9156 13.4834 20.5633 13.7982C20.4129 13.9321 20.2791 14.0824 20.1358 14.221C19.8539 14.4911 19.525 14.5099 19.2901 14.2703C19.0552 14.0284 19.0787 13.7136 19.3606 13.427C19.6284 13.1546 19.9032 12.8868 20.171 12.6143C20.5515 12.2267 20.5821 11.7358 20.2532 11.4022C19.9126 11.0593 19.4358 11.0851 19.0411 11.468C18.9049 11.6019 18.771 11.7381 18.6348 11.872C18.3482 12.1515 18.0287 12.1821 17.7891 11.9519C17.5425 11.7193 17.566 11.3764 17.8502 11.0874C18.1697 10.7633 18.5009 10.4485 18.8133 10.1173C19.1351 9.77436 19.1233 9.30456 18.8062 8.98745C18.4985 8.67973 18.0099 8.67973 17.674 8.9945C17.5143 9.14483 17.3639 9.30456 17.2089 9.45724C16.9106 9.75087 16.5864 9.78376 16.3421 9.54416C16.0932 9.29986 16.119 8.97805 16.415 8.67973C16.7368 8.35557 17.0656 8.04081 17.3804 7.71195C17.674 7.40188 17.674 6.92503 17.3968 6.61967C17.115 6.30725 16.6217 6.24148 16.314 6.53275C15.7525 7.06362 15.224 7.62973 14.6814 8.1794C15.3391 9.29282 14.7213 10.9723 13.0371 11.0945C13.0277 11.1462 13.0183 11.1979 13.0089 11.2519C12.828 12.276 12.3066 12.8046 11.28 12.9713C11.0804 13.0042 11.0827 13.117 11.0663 13.2532C10.9676 14.0307 10.3851 14.6838 9.62872 14.8599C9.48073 14.8952 9.32804 14.9093 9.18945 14.9328C9.173 14.9727 9.16125 14.9915 9.16125 15.0079C9.12837 16.3398 7.66025 17.277 6.38005 16.6358C6.31663 16.6052 6.17569 16.6475 6.11462 16.7062C5.63542 17.169 5.16798 17.6411 4.69818 18.1133C4.62301 18.1885 4.55253 18.266 4.49381 18.327C6.17803 20.0207 7.84348 21.6955 9.53241 23.3962V23.3915ZM25.1015 18.4609C24.8948 18.5784 24.6881 18.6442 24.5495 18.7804C22.6022 20.7089 20.6643 22.6468 18.7287 24.5871C18.3834 24.9324 18.3881 25.3505 18.7264 25.6982C18.9871 25.966 19.2525 26.2267 19.518 26.4898C19.9995 26.969 20.3566 26.969 20.8428 26.4851C22.2992 25.0311 23.7556 23.577 25.2119 22.123C25.6512 21.6861 26.0905 21.2515 26.525 20.8099C26.9079 20.42 26.9103 20.0254 26.5321 19.6401C26.2455 19.3489 25.9636 19.0482 25.6582 18.7781C25.5103 18.6465 25.3106 18.576 25.1062 18.4609H25.1015ZM11.9472 11.0781C11.8603 10.8948 11.7851 10.7046 11.6794 10.5331C11.616 10.4274 11.5056 10.3475 11.414 10.2583C10.8267 9.67336 10.2465 9.08141 9.64985 8.50591C9.33038 8.19819 8.84414 8.21228 8.53877 8.50591C8.24985 8.78544 8.19582 9.27873 8.47535 9.57235C9.1683 10.2958 9.88006 11.0029 10.5989 11.6958C10.8338 11.9213 11.1462 11.9354 11.4421 11.7945C11.7287 11.6583 11.8814 11.4234 11.9425 11.0757L11.9472 11.0781ZM10.5636 5.88443C10.2347 5.87503 9.95053 6.04651 9.81664 6.33544C9.671 6.6455 9.72737 6.99315 9.99281 7.26329C10.5425 7.82235 11.0992 8.37201 11.6535 8.92403C11.9237 9.19416 12.1868 9.47369 12.4686 9.72973C12.8703 10.0938 13.4482 10.0093 13.7136 9.5653C13.9462 9.17772 13.8099 8.79013 13.4083 8.60222C12.3395 8.10188 11.5267 7.3361 11.0733 6.23443C10.9653 5.97369 10.8103 5.89147 10.566 5.88443H10.5636ZM9.14013 13.8475C9.51596 13.7911 9.7673 13.6314 9.90589 13.3213C10.0539 12.9878 9.98341 12.6754 9.72737 12.417C9.24113 11.9237 8.75254 11.4327 8.25691 10.9489C7.9116 10.6106 7.42535 10.5965 7.10354 10.9042C6.76528 11.226 6.7606 11.7099 7.11295 12.0717C7.59449 12.5697 8.08308 13.063 8.58811 13.5351C8.7361 13.676 8.95221 13.7442 9.13778 13.8452L9.14013 13.8475ZM7.25623 15.715C7.57569 15.7103 7.8106 15.567 7.96093 15.2874C8.11127 15.0032 8.10422 14.7119 7.9022 14.47C7.6767 14.1999 7.42301 13.9462 7.15288 13.723C6.90153 13.514 6.59616 13.5163 6.30958 13.676C6.0324 13.8311 5.89852 14.0754 5.90791 14.3948C5.92201 14.8952 6.75589 15.715 7.25623 15.715ZM12.0951 5.5955C12.067 5.65423 12.0599 5.66362 12.0599 5.67067C12.3042 6.51396 12.922 7.03544 13.6267 7.47939C13.6643 7.50288 13.7582 7.48879 13.7911 7.4559C14.2304 7.02604 14.6626 6.58913 15.1418 6.10758C14.0777 5.94785 13.0982 5.65892 12.0951 5.5955Z" fill="#1B8354"/>
<path d="M4.36133 0.64818C4.49992 0.490798 4.60329 0.300529 4.76302 0.20422C4.97208 0.0773745 5.20463 0.140797 5.3855 0.31932C5.81302 0.742139 6.23583 1.16731 6.66335 1.59012C6.8959 1.82033 7.1308 2.04818 7.3563 2.28543C7.60059 2.54147 7.6053 2.86328 7.37979 3.08878C7.15664 3.31429 6.82542 3.31664 6.57643 3.06999C5.91401 2.41932 5.2563 1.76395 4.60798 1.09919C4.50697 0.99583 4.46468 0.840795 4.36133 0.645828V0.64818Z" fill="#1B8354"/>
<path d="M22.8104 0.107819C23.0712 0.147752 23.2403 0.258154 23.3413 0.462517C23.44 0.669228 23.4259 0.885337 23.2661 1.04742C22.5849 1.74272 21.899 2.43098 21.2014 3.10983C20.9782 3.32594 20.647 3.29775 20.4403 3.08399C20.2383 2.87493 20.2242 2.54608 20.4403 2.31822C20.7903 1.94943 21.1567 1.59473 21.5185 1.23534C21.8074 0.946411 22.0893 0.648088 22.39 0.370907C22.5098 0.260504 22.6695 0.192382 22.8104 0.105469V0.107819Z" fill="#1B8354"/>
<path d="M14.4632 1.78054C14.4632 2.16342 14.4679 2.54631 14.4632 2.92684C14.4585 3.32852 14.2494 3.55638 13.9041 3.55168C13.5706 3.54698 13.3662 3.31443 13.3638 2.93389C13.3638 2.15872 13.3615 1.3859 13.3638 0.610737C13.3638 0.234898 13.5799 0 13.9112 0C14.2447 0 14.4561 0.225504 14.4632 0.606041C14.4679 0.998323 14.4632 1.38826 14.4632 1.78054Z" fill="#1B8354"/>
</svg>
