<svg width="24" height="26" viewBox="0 0 24 26" fill="none" xmlns="http://www.w3.org/2000/svg">
<path d="M10.7016 0C11.1537 0.100732 11.6082 0.187407 12.0556 0.304537C13.4307 0.665298 14.6465 1.33529 15.7194 2.26062C17.0664 3.42255 18.0175 4.85623 18.5634 6.54524C18.9804 7.83368 19.1069 9.15725 18.9593 10.5066C18.8187 11.7763 18.4369 12.9687 17.809 14.0791C17.7247 14.2267 17.7575 14.3133 17.8512 14.4328C18.5938 15.3792 19.3317 16.3327 20.072 17.2814C20.2336 17.4899 20.3274 17.7054 20.1821 17.9584C19.9877 18.2981 19.5613 18.3051 19.2943 17.9655C18.8515 17.4079 18.4181 16.841 17.9824 16.2811C17.7013 15.9204 17.4202 15.5619 17.1133 15.166C16.2044 16.3444 15.1057 17.2674 13.7727 17.9491C13.8782 18.092 13.9695 18.2185 14.0656 18.3426C15.5391 20.2354 17.0126 22.1283 18.4861 24.0211C19.2662 25.0237 20.482 25.2556 21.5033 24.5927C22.4216 23.9977 22.7215 22.7045 22.1546 21.7628C22.0328 21.5613 21.8852 21.3739 21.7493 21.1795C21.5338 20.875 21.5549 20.5775 21.8055 20.3924C22.0421 20.2167 22.342 20.2776 22.5645 20.5447C23.1244 21.2146 23.4828 21.9573 23.4782 22.8545C23.4688 24.5341 22.1546 25.9186 20.4679 25.9959C19.3364 26.0474 18.4205 25.6117 17.7271 24.7239C16.1247 22.6741 14.5271 20.6196 12.9341 18.5628C12.8193 18.4152 12.7279 18.3965 12.5546 18.4527C10.3666 19.1742 8.18328 19.1461 6.04448 18.2934C3.40202 17.2369 1.56776 15.3464 0.586212 12.6735C-0.259469 10.3731 -0.177479 8.06325 0.750194 5.80732C1.5092 3.96369 2.75781 2.50425 4.44448 1.42899C5.59705 0.695756 6.84566 0.229574 8.20203 0.0515358C8.23951 0.0468506 8.27465 0.0187396 8.31213 0.00234132C9.10862 0.00234132 9.90744 0.00234132 10.7039 0.00234132L10.7016 0ZM17.9847 9.46179C17.9847 4.84451 14.2905 0.986238 9.52325 0.983895C4.84038 0.981552 1.07113 4.71098 1.04536 9.47819C1.01959 14.1025 4.85444 17.9163 9.49983 17.9163C14.178 17.9163 17.9754 14.1329 17.9847 9.46179Z" fill="#1B8354"/>
</svg>
