<svg width="18" height="18" viewBox="0 0 18 18" fill="none" xmlns="http://www.w3.org/2000/svg">
<path d="M16.1934 5.00098H14.7952C13.802 5.00098 12.9956 5.80735 12.9956 6.80062V16.2004C12.9956 17.1936 13.802 18 14.7952 18H16.1934C17.1867 18 17.9931 17.1936 17.9931 16.2004V6.80062C17.9931 5.80735 17.1867 5.00098 16.1934 5.00098ZM16.9929 16.2004C16.9929 16.6399 16.6329 16.9998 16.1934 16.9998H14.7952C14.3557 16.9998 13.9958 16.6399 13.9958 16.2004V6.80062C13.9958 6.36109 14.3557 6.00118 14.7952 6.00118H16.1934C16.6329 6.00118 16.9929 6.36109 16.9929 6.80062V16.2004Z" fill="white"/>
<path d="M3.19783 0H1.79964C0.806371 0 0 0.806371 0 1.79964V16.1969C0 17.1901 0.806371 17.9965 1.79964 17.9965H3.19783C4.1911 17.9965 4.9975 17.1901 4.9975 16.1969V1.79964C4.9975 0.806371 4.1911 0 3.19783 0ZM3.9973 16.1969C3.9973 16.6364 3.63736 16.9963 3.19783 16.9963H1.79964C1.36011 16.9963 1.0002 16.6364 1.0002 16.1969V1.79964C1.0002 1.36011 1.36011 1.0002 1.79964 1.0002H3.19783C3.63736 1.0002 3.9973 1.36011 3.9973 1.79964V16.1969Z" fill="white"/>
<path d="M9.69736 9.99848H8.29915C7.30588 9.99848 6.49951 10.8049 6.49951 11.7981V16.1969C6.49951 17.1902 7.30588 17.9965 8.29915 17.9965H9.69736C10.6906 17.9965 11.497 17.1902 11.497 16.1969V11.7981C11.497 10.8049 10.6906 9.99848 9.69736 9.99848ZM10.4968 16.1969C10.4968 16.6364 10.1369 16.9963 9.69736 16.9963H8.29915C7.85962 16.9963 7.49971 16.6364 7.49971 16.1969V11.7981C7.49971 11.3586 7.85962 10.9987 8.29915 10.9987H9.69736C10.1369 10.9987 10.4968 11.3586 10.4968 11.7981V16.1969Z" fill="white"/>
</svg>
