<svg xmlns="http://www.w3.org/2000/svg" width="25" height="24" viewBox="0 0 25 24" fill="none">
  <path d="M20.3335 14C21.4381 14 22.3335 13.1046 22.3335 12C22.3335 10.8954 21.4381 10 20.3335 10C19.2289 10 18.3335 10.8954 18.3335 12C18.3335 13.1046 19.2289 14 20.3335 14Z" stroke="white" stroke-width="1.1" stroke-linecap="round" stroke-linejoin="round"/>
  <path d="M20.3335 6C21.4381 6 22.3335 5.10457 22.3335 4C22.3335 2.89543 21.4381 2 20.3335 2C19.2289 2 18.3335 2.89543 18.3335 4C18.3335 5.10457 19.2289 6 20.3335 6Z" stroke="white" stroke-width="1.1" stroke-linecap="round" stroke-linejoin="round"/>
  <path d="M20.3335 22C21.4381 22 22.3335 21.1046 22.3335 20C22.3335 18.8954 21.4381 18 20.3335 18C19.2289 18 18.3335 18.8954 18.3335 20C18.3335 21.1046 19.2289 22 20.3335 22Z" stroke="white" stroke-width="1.1" stroke-linecap="round" stroke-linejoin="round"/>
  <path d="M4.3335 14C5.43807 14 6.3335 13.1046 6.3335 12C6.3335 10.8954 5.43807 10 4.3335 10C3.22893 10 2.3335 10.8954 2.3335 12C2.3335 13.1046 3.22893 14 4.3335 14Z" stroke="white" stroke-width="1.1" stroke-linecap="round" stroke-linejoin="round"/>
  <path d="M6.3335 12H18.3335" stroke="white" stroke-width="1.1" stroke-linecap="round" stroke-linejoin="round"/>
  <path d="M18.3335 4H14.3335C12.3335 4 11.3335 5 11.3335 7V17C11.3335 19 12.3335 20 14.3335 20H18.3335" stroke="white" stroke-width="1.1" stroke-linecap="round" stroke-linejoin="round"/>
</svg>
