<svg xmlns="http://www.w3.org/2000/svg" width="24" height="24" viewBox="0 0 24 24" fill="none">
  <path d="M19.315 7.98591L13.7848 2.45568C13.4948 2.1657 13.0971 2 12.687 2H6.22056C5.11451 2 4.21973 2.89478 4.21973 4.00083V19.9992C4.21973 21.1052 5.11451 22 6.22056 22H17.774C18.8801 22 19.7748 21.1052 19.7748 19.9992V9.09196C19.7748 8.67771 19.6091 8.28418 19.3192 7.9942L19.315 7.98591ZM13.6605 3.90141L17.6456 7.88649H14.663C14.112 7.88649 13.6647 7.43911 13.6647 6.88815V3.90555L13.6605 3.90141ZM18.6605 19.995C18.6605 20.4838 18.2628 20.8857 17.7699 20.8857H6.21642C5.72761 20.8857 5.3258 20.488 5.3258 19.995V3.99669C5.3258 3.50787 5.72346 3.10605 6.21642 3.10605H12.5503V6.88401C12.5503 8.04806 13.4989 8.99669 14.663 8.99669H18.6522C18.6563 9.02569 18.6605 9.05468 18.6605 9.08368V19.995Z" fill="white"/>
  <path d="M11.9869 18.9843C9.63401 18.9884 7.72432 17.0953 7.72432 14.7506C7.72432 12.3853 9.61745 10.4714 11.9704 10.4714C14.3192 10.4714 16.233 12.3728 16.233 14.7133C16.233 17.0828 14.3482 18.9801 11.9869 18.9843ZM11.9869 18.0356C13.8055 18.0356 15.2968 16.5402 15.2927 14.7258C15.2927 12.9114 13.7931 11.42 11.9745 11.42C10.1601 11.42 8.66468 12.9196 8.66883 14.734C8.66883 16.5485 10.1642 18.0356 11.9869 18.0356Z" fill="white"/>
  <path d="M11.9497 16.9006C11.0259 16.8882 10.2223 16.3123 9.91985 15.4424C9.61745 14.5766 9.89085 13.628 10.6075 13.0356C11.3034 12.464 12.2976 12.3894 13.0806 12.8451C13.296 12.9693 13.4327 13.135 13.3913 13.4002C13.3415 13.7316 12.9811 13.889 12.658 13.7067C12.3598 13.5369 12.0491 13.4623 11.7094 13.5327C11.0425 13.6694 10.6158 14.3695 10.7939 15.0489C10.9596 15.6868 11.6721 16.0928 12.2852 15.9022C12.4385 15.8525 12.5627 15.7614 12.6746 15.6495C12.8983 15.43 13.1634 15.4134 13.3664 15.5957C13.5777 15.7904 13.5818 16.0638 13.3581 16.3082C12.977 16.7183 12.5048 16.9089 11.9455 16.8964L11.9497 16.9006Z" fill="white"/>
  <path d="M9.89914 4.46479H6.80882C6.51598 4.46479 6.27859 4.70218 6.27859 4.99503V5.04474C6.27859 5.33758 6.51598 5.57498 6.80882 5.57498H9.89914C10.192 5.57498 10.4294 5.33758 10.4294 5.04474V4.99503C10.4294 4.70218 10.192 4.46479 9.89914 4.46479Z" fill="white"/>
  <path d="M7.97289 6.78873H6.80882C6.51598 6.78873 6.27859 7.02613 6.27859 7.31897V7.36868C6.27859 7.66152 6.51598 7.89892 6.80882 7.89892H7.97289C8.26573 7.89892 8.50312 7.66152 8.50312 7.36868V7.31897C8.50312 7.02613 8.26573 6.78873 7.97289 6.78873Z" fill="white"/>
</svg>
