<svg xmlns="http://www.w3.org/2000/svg" width="18" height="18" viewBox="0 0 18 18" fill="none">
  <path d="M17.9965 11.0035C17.894 11.1943 17.7244 11.2509 17.5195 11.2509C16.993 11.2473 16.4664 11.2544 15.9399 11.2473C15.7915 11.2473 15.7456 11.2721 15.7456 11.4346C15.7527 13.4629 15.7491 15.4876 15.7491 17.5159C15.7491 17.8834 15.6325 18 15.2686 18C11.0919 18 6.91525 18 2.74211 18C2.36756 18 2.25448 17.8834 2.25448 17.5053C2.25448 15.4841 2.25448 13.4629 2.25448 11.4417C2.25448 11.2933 2.22974 11.2438 2.0672 11.2473C1.51243 11.2579 0.954124 11.2544 0.399355 11.2473C0.134338 11.2438 -0.00346728 11.0918 6.62836e-05 10.8586C6.62836e-05 10.7738 0.0389139 10.7102 0.0883837 10.6537C0.250927 10.477 0.409937 10.2968 0.579548 10.1272C1.15552 9.55122 1.73504 8.97878 2.30748 8.40281C2.39935 8.3074 2.49828 8.265 2.63255 8.25793C3.9223 8.21199 5.20852 8.25086 6.49827 8.24733C6.75269 8.24733 6.75268 8.24733 6.75268 7.99645C6.75268 7.50528 6.75269 7.01411 6.74915 6.51942C6.74915 6.37101 6.7739 6.22967 6.83043 6.09186C7.43114 4.65724 8.02829 3.22614 8.62547 1.79151C8.69614 1.6219 8.80215 1.50177 9.00003 1.50177C9.19791 1.50177 9.30746 1.61837 9.37813 1.78798C9.97884 3.22261 10.5795 4.6537 11.1802 6.08832C11.2297 6.2014 11.2509 6.32154 11.2509 6.44521C11.2509 6.98231 11.2544 7.52295 11.2474 8.06005C11.2474 8.20493 11.2827 8.24733 11.4311 8.2438C12.6255 8.23673 13.8198 8.25086 15.0142 8.23319C15.3817 8.22613 15.6502 8.3286 15.9081 8.60069C16.5124 9.24026 17.1449 9.84803 17.7668 10.4699C17.8551 10.5583 17.9329 10.6466 18 10.7526V11L17.9965 11.0035ZM6.78449 9.56181C6.78449 9.56181 6.75975 9.57948 6.74562 9.58655V9.76323C6.74562 12.1873 6.74562 14.6113 6.74209 17.0388C6.74209 17.2049 6.78095 17.2544 6.95056 17.2508C9.56186 17.2438 12.1767 17.2438 14.788 17.2508C14.9435 17.2508 14.9965 17.219 14.9965 17.0494C14.9894 15.1802 14.9894 13.3109 14.9965 11.4452C14.9965 11.2756 14.9435 11.2473 14.788 11.2473C12.7597 11.2509 10.735 11.2473 8.70675 11.2544C8.54774 11.2544 8.42406 11.212 8.31452 11.1024C7.91876 10.7032 7.51595 10.3109 7.12019 9.91164C7.00711 9.79856 6.89757 9.67842 6.78449 9.56181ZM5.97176 9.58655C5.90109 9.60068 5.86929 9.66075 5.82689 9.70316C5.36752 10.1625 4.90816 10.6219 4.4488 11.0848C4.33926 11.1979 4.21912 11.2544 4.06011 11.2509C3.77389 11.2438 3.48415 11.2579 3.19793 11.2438C3.03892 11.2367 2.99299 11.2791 2.99299 11.4452C3.00006 13.3145 3.00006 15.1802 2.99299 17.0494C2.99299 17.219 3.04952 17.2508 3.20147 17.2473C4.06365 17.2402 4.92232 17.2402 5.78451 17.2473C5.96119 17.2473 5.99298 17.1943 5.99298 17.0282C5.98945 14.6042 5.99298 12.1802 5.98945 9.75616C5.98945 9.69962 6.0071 9.63955 5.96823 9.58301L5.97176 9.58655ZM16.6502 10.4982C16.6502 10.4982 16.6643 10.4699 16.6714 10.4593C16.2191 10.0106 15.7668 9.56182 15.318 9.10952C15.2403 9.03178 15.1661 8.99998 15.0565 9.00351C12.5265 9.00351 9.9965 9.00351 7.46648 9.00351C7.41701 9.00351 7.36401 8.98231 7.30747 9.03885C7.7527 9.48054 8.19793 9.9187 8.63609 10.3675C8.73503 10.4699 8.83397 10.5053 8.97531 10.5053C11.4771 10.5017 13.9753 10.5053 16.477 10.5053H16.6502V10.4982ZM5.46647 9.01058C5.3958 9.00352 5.37461 8.99998 5.35341 8.99998C4.52655 8.99998 3.70322 8.99998 2.87637 8.99998C2.78803 8.99998 2.73856 9.04238 2.68202 9.09892C2.25799 9.52648 1.83043 9.95051 1.40287 10.3781C1.37461 10.4063 1.32161 10.4275 1.33221 10.4876C1.34988 10.4911 1.36755 10.4982 1.38168 10.4982C2.20854 10.4982 3.03184 10.4982 3.8587 10.4982C3.9435 10.4982 4.00004 10.4593 4.05304 10.4028C4.38166 10.0706 4.71381 9.73849 5.04597 9.40987C5.17318 9.28266 5.30393 9.16253 5.45941 9.01058H5.46647ZM8.99297 8.24733C9.4382 8.24733 9.88342 8.24733 10.3251 8.24733C10.4382 8.24733 10.4947 8.22613 10.4912 8.09539C10.4841 7.7385 10.4841 7.38161 10.4912 7.02472C10.4912 6.91518 10.47 6.89044 10.3534 6.91518C9.44527 7.12719 8.53714 7.13073 7.62901 6.91518C7.50534 6.88691 7.49119 6.92225 7.49473 7.02472C7.49826 7.38161 7.5018 7.7385 7.49473 8.09539C7.49473 8.22613 7.54775 8.24733 7.66082 8.24733C8.10605 8.24379 8.55128 8.24733 8.99297 8.24733ZM8.9965 6.32154C9.417 6.3074 9.83748 6.26854 10.2474 6.16607C10.3428 6.14133 10.3569 6.11306 10.3216 6.02825C10.1096 5.52649 9.90109 5.02472 9.69261 4.52296C9.66081 4.44522 9.61841 4.41695 9.53714 4.42402C9.17671 4.46642 8.81276 4.46642 8.4488 4.42402C8.364 4.41342 8.32513 4.44875 8.29333 4.52296C8.08839 5.02119 7.88343 5.51589 7.67142 6.01059C7.62195 6.12013 7.66082 6.14486 7.75976 6.1696C8.16612 6.26854 8.57954 6.3074 8.99297 6.31801L8.9965 6.32154ZM8.99297 2.86572C8.8799 3.14134 8.78096 3.37455 8.68556 3.60776C8.65376 3.6855 8.69968 3.69964 8.76328 3.69964C8.91876 3.69964 9.07778 3.69964 9.23326 3.69964C9.30039 3.69964 9.33572 3.67844 9.30392 3.60776C9.20498 3.37455 9.10958 3.14134 8.99297 2.86572Z" fill="white"/>
  <path d="M14.0247 0C14.053 0.0459363 14.106 0.0424034 14.1484 0.0600712C14.4382 0.201414 14.5937 0.431097 14.5972 0.756184C14.5972 1.06714 14.4099 1.33922 14.1202 1.44876C13.8163 1.56183 13.5336 1.5053 13.318 1.26855C13.2085 1.14841 13.106 1.12014 12.9576 1.12014C12.5159 1.1272 12.0707 1.12014 11.5795 1.12014C11.8481 1.31802 12.0848 1.48763 12.2968 1.68551C13.0919 2.43815 13.5936 3.34628 13.7809 4.42755C13.7951 4.51942 13.8339 4.58303 13.9152 4.63956C14.2756 4.89751 14.3392 5.37808 14.0671 5.72083C13.8021 6.05299 13.311 6.09539 12.9894 5.81624C12.6608 5.53355 12.6396 5.03532 12.9541 4.72437C13.0495 4.6325 13.0424 4.55476 13.0177 4.44522C12.6502 2.72084 11.2544 1.42756 9.50532 1.19788C7.36399 0.918728 5.35692 2.37456 4.93996 4.50883C4.9223 4.59717 4.94705 4.64663 5.00712 4.7067C5.25447 4.95405 5.311 5.28268 5.16965 5.57596C5.03538 5.85511 4.71736 6.03532 4.42408 6.00352C4.08486 5.96465 3.8163 5.72436 3.75269 5.37808C3.69616 5.07419 3.80922 4.82685 4.05657 4.6431C4.12724 4.5901 4.17672 4.54416 4.19086 4.45229C4.43114 3.0848 5.13078 2.01413 6.26505 1.22261C6.29685 1.20141 6.34279 1.19081 6.35339 1.12367C5.98944 1.12367 5.62902 1.12367 5.26859 1.12367C5.17319 1.12367 5.08131 1.13074 4.9859 1.12367C4.85516 1.11307 4.7633 1.14841 4.67143 1.25441C4.45941 1.49823 4.18027 1.56183 3.87285 1.45936C3.59723 1.36749 3.39582 1.09894 3.38168 0.812717C3.36402 0.477029 3.51948 0.212015 3.80569 0.0706728C3.85163 0.0494715 3.91171 0.0494698 3.94351 0H4.29333C4.46294 0.0777383 4.63255 0.151942 4.73855 0.321553C4.77742 0.381623 4.83749 0.374561 4.89756 0.374561C7.62193 0.374561 10.3499 0.374561 13.0742 0.374561C13.1308 0.374561 13.1908 0.385161 13.2332 0.325091C13.3392 0.162547 13.5124 0.0848035 13.6785 0.00353162H14.0283L14.0247 0Z" fill="white"/>
</svg>
