<svg xmlns="http://www.w3.org/2000/svg" width="24" height="24" viewBox="0 0 24 24" fill="none">
  <path d="M19.2874 11.9933C19.2874 12.7352 19.2874 13.4806 19.2874 14.2225C19.2874 14.3577 19.3167 14.4052 19.4592 14.4015C19.821 14.3906 20.1827 14.3942 20.5445 14.4015C20.7272 14.4015 20.8771 14.4783 20.9575 14.6537C21.0269 14.8108 21.0123 14.9607 20.9063 15.0995C20.815 15.2165 20.6907 15.264 20.5445 15.2603C20.19 15.2603 19.8356 15.2676 19.4812 15.2566C19.3167 15.2493 19.2875 15.3078 19.2911 15.4576C19.3021 15.8304 19.2948 16.2068 19.2911 16.5832C19.2838 18.0851 18.0852 19.2801 16.5796 19.2837C16.2032 19.2837 15.8304 19.291 15.4541 19.2837C15.3115 19.2801 15.2604 19.313 15.264 19.4664C15.275 19.8209 15.2713 20.1754 15.264 20.5299C15.264 20.8076 15.1032 20.983 14.8584 20.9903C14.6026 20.9976 14.4162 20.8259 14.4089 20.5481C14.398 20.1863 14.4016 19.8246 14.4089 19.4628C14.4089 19.3349 14.387 19.2801 14.2408 19.2801C12.7425 19.2837 11.2442 19.2837 9.74231 19.2801C9.59979 19.2801 9.56691 19.3276 9.57057 19.4591C9.57787 19.8209 9.57787 20.1827 9.57057 20.5445C9.56691 20.771 9.42803 20.9391 9.23801 20.9793C9.04433 21.0195 8.85794 20.9391 8.76293 20.7784C8.71542 20.6943 8.70811 20.6029 8.70811 20.5116C8.70811 20.1571 8.70446 19.8026 8.70811 19.4482C8.70811 19.3166 8.67158 19.2837 8.54367 19.2837C8.01745 19.2728 7.49123 19.3239 6.96866 19.2508C5.76638 19.0791 4.7651 17.9791 4.7249 16.7586C4.71028 16.3237 4.71031 15.8889 4.72127 15.4576C4.72493 15.2968 4.67008 15.2603 4.52026 15.264C4.17309 15.2749 3.82229 15.2676 3.47513 15.264C3.1974 15.264 3.0037 15.0885 3.00005 14.8437C2.9964 14.6062 3.19373 14.4125 3.46415 14.4052C3.81862 14.3979 4.17309 14.3979 4.52756 14.4052C4.66643 14.4052 4.72127 14.376 4.72127 14.2225C4.71396 12.7315 4.71762 11.2369 4.72127 9.74591C4.72127 9.6107 4.68471 9.56319 4.54585 9.56684C4.18407 9.57415 3.8223 9.5778 3.46052 9.56684C3.1024 9.55588 2.90138 9.2343 3.05486 8.9383C3.13526 8.78482 3.2668 8.71173 3.43855 8.71173C3.80764 8.71173 4.17674 8.70442 4.54217 8.71173C4.68103 8.71173 4.72125 8.67153 4.71759 8.53267C4.71028 8.17089 4.71394 7.8091 4.71759 7.44733C4.72856 6.05137 5.66042 4.95142 7.04176 4.73946C7.4949 4.67003 7.96265 4.72119 8.41944 4.71388C8.75564 4.71023 8.70446 4.75774 8.70811 4.41788C8.70811 4.10361 8.70811 3.78568 8.70811 3.47141C8.70811 3.19368 8.88354 3 9.12838 3C9.36591 3 9.55958 3.19368 9.56688 3.4641C9.57419 3.81857 9.57419 4.17304 9.56688 4.52751C9.56323 4.67368 9.60347 4.71754 9.75329 4.71754C11.2406 4.71023 12.7243 4.71023 14.2116 4.71754C14.3724 4.71754 14.4089 4.66272 14.4052 4.51655C14.3943 4.16938 14.4016 3.81857 14.4052 3.47141C14.4052 3.28869 14.4783 3.13886 14.6464 3.05116C14.7999 2.97077 14.9534 2.98904 15.0923 3.0877C15.2129 3.17541 15.264 3.296 15.264 3.44583C15.264 3.81492 15.2677 4.184 15.264 4.54944C15.264 4.67734 15.2969 4.72119 15.4285 4.71754C15.8706 4.71388 16.3092 4.70658 16.7513 4.72485C18.1071 4.77235 19.2655 5.95636 19.2874 7.31212C19.2947 7.72506 19.2947 8.14166 19.2874 8.5546C19.2874 8.67884 19.324 8.71173 19.4446 8.70808C19.8064 8.70077 20.1681 8.70442 20.5299 8.70808C20.8186 8.70808 20.994 8.87252 20.9977 9.12832C20.9977 9.38047 20.8223 9.55953 20.5409 9.56684C20.1864 9.57415 19.8319 9.57415 19.4775 9.56684C19.335 9.56319 19.2874 9.59973 19.2874 9.74956C19.2947 10.4987 19.2911 11.2478 19.2911 11.997L19.2874 11.9933ZM11.9788 18.3848C13.4588 18.3848 14.9388 18.3848 16.4188 18.3848C16.5832 18.3848 16.7477 18.3884 16.9085 18.3519C17.822 18.1509 18.3921 17.4346 18.3958 16.4626C18.3958 13.477 18.3958 10.4914 18.3958 7.5058C18.3958 7.36328 18.3958 7.21345 18.3665 7.07459C18.1802 6.15735 17.453 5.57631 16.4882 5.57631C13.4917 5.57631 10.4914 5.57631 7.49487 5.57631C7.35235 5.57631 7.20619 5.57631 7.06367 5.6092C6.20125 5.80288 5.59831 6.48624 5.59465 7.37058C5.58369 10.4475 5.591 13.5245 5.59465 16.6014C5.59465 16.7001 5.60195 16.7988 5.62387 16.8938C5.81755 17.8001 6.53746 18.3811 7.49125 18.3848C8.98952 18.3884 10.4878 18.3848 11.9897 18.3848H11.9788Z" fill="white"/>
  <path d="M17.548 12.0006C17.548 13.2943 17.548 14.5916 17.548 15.8852C17.548 16.8792 16.8829 17.5406 15.8889 17.5406C13.6781 17.5406 11.4708 17.5406 9.25993 17.5406C9.05528 17.5406 8.89818 17.4821 8.752 17.336C8.05037 16.6234 7.34142 15.9181 6.63248 15.2165C6.48631 15.0703 6.42416 14.9131 6.42416 14.7085C6.42781 12.494 6.42416 10.2758 6.42416 8.06126C6.42416 7.0892 7.08924 6.42046 8.05399 6.42046C10.6705 6.42046 13.287 6.42046 15.9072 6.42046C16.8756 6.42046 17.5443 7.08555 17.5443 8.05395C17.5443 9.36951 17.5443 10.6851 17.5443 12.0006H17.548ZM11.9934 7.28288C10.6851 7.28288 9.37691 7.28288 8.06865 7.28288C7.56801 7.28288 7.29023 7.56427 7.29023 8.06491C7.29023 10.2027 7.29023 12.3368 7.29023 14.4746C7.29023 14.5952 7.31952 14.6793 7.40722 14.767C8.01019 15.3626 8.61314 15.9619 9.2088 16.5649C9.28919 16.6453 9.36957 16.6782 9.48286 16.6782C11.6206 16.6782 13.7548 16.6782 15.8926 16.6782C16.4042 16.6782 16.6892 16.3968 16.6892 15.8889C16.6892 13.287 16.6892 10.6814 16.6892 8.07953C16.6892 7.56427 16.4152 7.28654 15.9035 7.28654C14.6026 7.28654 13.3017 7.28654 11.9971 7.28654L11.9934 7.28288Z" fill="white"/>
  <path d="M8.35733 8.76654C8.35733 8.52901 8.54737 8.34995 8.7849 8.34995C9.01878 8.34995 9.21242 8.54363 9.21242 8.77385C9.21242 9.00408 8.99683 9.21603 8.76661 9.20872C8.53273 9.19775 8.34999 9.00408 8.35365 8.7702L8.35733 8.76654Z" fill="white"/>
  <path d="M15.1909 8.34995C15.4285 8.34995 15.6148 8.53267 15.6148 8.7702C15.6148 9.01504 15.4175 9.21237 15.18 9.20872C14.9534 9.20141 14.756 8.99677 14.756 8.77385C14.756 8.54363 14.9534 8.35361 15.1873 8.35361L15.1909 8.34995Z" fill="white"/>
  <path d="M15.6185 15.1872C15.6185 15.4247 15.4321 15.6075 15.1946 15.6111C14.9607 15.6111 14.767 15.4247 14.7597 15.1945C14.7524 14.9643 14.968 14.7487 15.1982 14.756C15.4285 14.7597 15.6185 14.9533 15.6148 15.1909L15.6185 15.1872Z" fill="white"/>
</svg>
