<svg xmlns="http://www.w3.org/2000/svg" width="24" height="24" viewBox="0 0 24 24" fill="none">
  <path d="M13.3601 5.54999H4.50006C4.25705 5.54999 4.06006 5.74698 4.06006 5.98999V6.21999C4.06006 6.46299 4.25705 6.65999 4.50006 6.65999H13.3601C13.6031 6.65999 13.8001 6.46299 13.8001 6.21999V5.98999C13.8001 5.74698 13.6031 5.54999 13.3601 5.54999Z" fill="white"/>
  <path d="M19.73 6C19.73 5.75 19.55 5.56 19.33 5.56H15.17C14.95 5.56 14.77 5.76 14.77 6V6.22C14.77 6.47 14.95 6.66 15.17 6.66H19.33C19.55 6.66 19.73 6.46 19.73 6.22V6Z" fill="white"/>
  <path d="M21.3002 17.02C21.7602 16.47 22.0602 15.77 22.0602 14.99C22.0602 13.24 20.6402 11.82 18.8902 11.82C17.1402 11.82 15.7202 13.24 15.7202 14.99C15.7202 15.97 16.1702 16.83 16.8702 17.41V21.15C16.8702 21.3 16.8902 21.52 17.1202 21.63C17.1802 21.66 17.2402 21.67 17.3102 21.67C17.4302 21.67 17.5402 21.61 17.6302 21.56C17.8002 21.45 17.9602 21.34 18.1302 21.23L18.2302 21.16C18.4602 21.01 18.6802 20.86 18.9102 20.7C18.9302 20.68 18.9402 20.68 18.9402 20.68C18.9402 20.68 18.9502 20.68 18.9702 20.7C19.3602 20.97 19.7902 21.26 20.2802 21.58C20.4402 21.68 20.6102 21.7 20.7602 21.63C20.9102 21.55 20.9902 21.4 21.0002 21.2V17.4C21.0002 17.4 21.0002 17.36 21.0002 17.34C21.1102 17.24 21.2002 17.14 21.3002 17.03V17.02ZM20.9602 14.99C20.9602 16.13 20.0302 17.06 18.8902 17.06C17.7502 17.06 16.8202 16.13 16.8202 14.99C16.8202 13.85 17.7502 12.92 18.8902 12.92C20.0302 12.92 20.9602 13.85 20.9602 14.99ZM20.1202 18.79V20.41C19.9602 20.3 19.7902 20.19 19.6302 20.08L19.2802 19.85C19.1602 19.77 19.0502 19.71 18.9402 19.71C18.8302 19.71 18.7302 19.76 18.5902 19.85L18.2902 20.05C18.1102 20.17 17.9402 20.29 17.7602 20.4V17.93C17.9902 18.02 18.2402 18.08 18.5002 18.11C18.5002 18.35 18.4902 18.59 18.5002 18.84C18.5002 19.02 18.6002 19.16 18.7402 19.23C18.8802 19.3 19.0402 19.29 19.1802 19.19C19.3502 19.07 19.3802 18.9 19.3802 18.76V18.65C19.3802 18.47 19.3802 18.29 19.3802 18.1C19.6402 18.06 19.8902 18 20.1202 17.9V18.78V18.79Z" fill="white"/>
  <path d="M14.7 16.25H4.55C3.76 16.25 3.11 15.61 3.11 14.81V4.84999C3.11 4.05999 3.75 3.40999 4.55 3.40999H19.38C20.17 3.40999 20.82 4.04999 20.82 4.84999V11.36C20.82 11.67 21.07 11.91 21.37 11.91C21.67 11.91 21.92 11.66 21.92 11.36V4.84999C21.92 3.43999 20.78 2.29999 19.37 2.29999H4.55C3.14 2.29999 2 3.43999 2 4.84999V14.81C2 16.22 3.14 17.36 4.55 17.36H14.7C15.01 17.36 15.25 17.11 15.25 16.81C15.25 16.51 15 16.26 14.7 16.26V16.25Z" fill="white"/>
  <path d="M19.19 8.34003H13.01C12.7173 8.34003 12.48 8.57732 12.48 8.87003V8.92003C12.48 9.21274 12.7173 9.45003 13.01 9.45003H19.19C19.4827 9.45003 19.72 9.21274 19.72 8.92003V8.87003C19.72 8.57732 19.4827 8.34003 19.19 8.34003Z" fill="white"/>
  <path d="M16.4701 10.57H13.3801C13.0874 10.57 12.8501 10.8073 12.8501 11.1V11.15C12.8501 11.4427 13.0874 11.68 13.3801 11.68H16.4701C16.7628 11.68 17.0001 11.4427 17.0001 11.15V11.1C17.0001 10.8073 16.7628 10.57 16.4701 10.57Z" fill="white"/>
  <path d="M4.10986 11.66C4.10986 13.9 5.93986 15.71 8.17986 15.7C10.4399 15.7 12.2299 13.88 12.2299 11.62C12.2299 9.39001 10.3999 7.57001 8.15986 7.57001C5.91986 7.57001 4.10986 9.40001 4.10986 11.66ZM11.3299 11.63C11.3299 13.36 9.90986 14.79 8.16986 14.79C6.42986 14.79 5.00986 13.38 5.00986 11.64C5.00986 9.90001 6.42986 8.48001 8.16986 8.48001C9.89986 8.48001 11.3299 9.90001 11.3299 11.63Z" fill="white"/>
  <path d="M7.3001 13.9C7.4201 13.9 7.5301 13.86 7.6101 13.77C7.6901 13.68 7.7301 13.55 7.7301 13.37V12.16H8.5201C9.0501 12.16 9.4501 12.05 9.7201 11.82C9.9901 11.59 10.1201 11.26 10.1201 10.83C10.1201 10.62 10.0901 10.44 10.0201 10.28C9.9601 10.11 9.8601 9.97998 9.7301 9.85998C9.6001 9.73998 9.4501 9.66998 9.2701 9.61998C9.1001 9.56998 8.8401 9.53998 8.5101 9.53998H7.4001C7.2101 9.53998 7.0701 9.57998 6.9801 9.65998C6.9001 9.73998 6.8501 9.87998 6.8501 10.07V13.37C6.8501 13.54 6.8901 13.67 6.9701 13.76C7.0501 13.85 7.1601 13.89 7.2801 13.89L7.3001 13.9ZM7.7301 10.2H8.3101C8.7001 10.2 8.9501 10.26 9.0801 10.39C9.1901 10.51 9.2501 10.66 9.2501 10.85C9.2501 11.01 9.2101 11.14 9.1401 11.23C9.0701 11.33 8.9701 11.4 8.8301 11.44C8.6901 11.48 8.5201 11.5 8.3201 11.5H7.7401V10.19L7.7301 10.2Z" fill="white"/>
</svg>
