<svg xmlns="http://www.w3.org/2000/svg" width="24" height="24" viewBox="0 0 24 24" fill="none">
  <path d="M12.3593 6.03589C12.4589 5.90837 12.5426 5.80078 12.6263 5.69716C13.5189 4.59331 14.6786 3.96766 16.0773 3.75645C16.7508 3.65682 17.4283 3.65682 18.1097 3.68073C18.3528 3.6887 18.5242 3.84013 18.564 4.09517C18.6238 4.50962 18.5959 4.92406 18.5879 5.33851C18.572 6.15146 18.4206 6.9405 18.0579 7.67375C17.1772 9.45507 15.7585 10.5191 13.7899 10.8339C13.3835 10.8977 12.977 10.9136 12.5665 10.9016C12.3912 10.8937 12.3314 10.9574 12.3434 11.1288C12.3553 11.3001 12.3553 11.4715 12.3434 11.6429C12.3354 11.7903 12.3912 11.8381 12.5386 11.8381C13.24 11.8341 13.9374 11.8381 14.6387 11.8381C15.4118 11.8381 16.1849 11.8381 16.9541 11.8381C17.7351 11.8381 18.3608 12.4678 18.3648 13.2448C18.3648 13.6792 18.3648 14.1176 18.3648 14.5519C18.3648 15.1975 17.9623 15.7435 17.3366 15.9188C17.1852 15.9627 17.1214 16.0344 17.0975 16.1818C16.8584 17.7121 16.6193 19.2384 16.3802 20.7686C16.2686 21.4899 15.6828 21.996 14.9536 22C12.8893 22 10.8211 22 8.75681 22C8.03153 22 7.44174 21.4899 7.33016 20.7686C7.09105 19.2384 6.85195 17.7121 6.61285 16.1818C6.59292 16.0463 6.5451 15.9666 6.39367 15.9228C5.74809 15.7435 5.34961 15.2015 5.34961 14.528C5.34961 14.0857 5.34961 13.6434 5.34961 13.201C5.35758 12.4717 5.99118 11.8381 6.72044 11.8341C8.18694 11.8302 9.64947 11.8302 11.116 11.8341C11.3192 11.8341 11.371 11.7783 11.371 11.5791C11.363 10.4912 11.367 9.40326 11.367 8.31136C11.367 8.05631 11.367 8.05233 11.1 8.05631C10.4465 8.06827 9.79294 8.0603 9.16729 7.82119C7.57327 7.20749 6.61683 6.06378 6.33788 4.37811C6.23028 3.73253 6.30601 3.075 6.30203 2.42145C6.30203 2.21423 6.48933 2.01099 6.69256 2.01498C7.48957 2.02693 8.28658 1.9273 9.07562 2.12257C10.7892 2.54499 12.0764 3.98359 12.3035 5.73303C12.3155 5.8207 12.3354 5.91236 12.3553 6.03191L12.3593 6.03589ZM11.8612 15.9826C10.5062 15.9826 9.15532 15.9826 7.80041 15.9826C7.63702 15.9826 7.58519 16.0145 7.61707 16.1938C7.76053 17.0267 7.89207 17.8555 8.00764 18.6924C8.03952 18.9116 8.11521 18.9714 8.3304 18.9714C9.73712 18.9634 11.1439 18.9674 12.5466 18.9674C12.6741 18.9674 12.7977 18.9753 12.9052 19.055C13.0766 19.1826 13.1523 19.3978 13.0886 19.597C13.0208 19.8122 12.8495 19.9437 12.6143 19.9437C11.5503 19.9437 10.4903 19.9437 9.4263 19.9437C9.07561 19.9437 8.72492 19.9437 8.37823 19.9437C8.25867 19.9437 8.20291 19.9836 8.22682 20.1071C8.2587 20.2745 8.2786 20.4458 8.31845 20.6132C8.39417 20.9161 8.52569 21.0157 8.84051 21.0237C9.0836 21.0316 9.33066 21.0237 9.57375 21.0237C11.3152 21.0237 13.0567 21.0237 14.8021 21.0237C15.2006 21.0237 15.3521 20.8842 15.4079 20.4976C15.4397 20.2904 15.4756 20.0832 15.5075 19.872C15.6988 18.6486 15.8861 17.4252 16.0893 16.2018C16.1252 15.9905 16.0495 15.9786 15.8781 15.9786C14.5391 15.9826 13.2001 15.9786 11.8572 15.9786L11.8612 15.9826ZM11.8532 15.0062C12.6582 15.0062 13.4632 15.0062 14.2681 15.0062C15.113 15.0062 15.9578 15.0062 16.8026 15.0062C17.1772 15.0062 17.3685 14.8468 17.3805 14.5001C17.3964 14.1056 17.3964 13.7071 17.3805 13.3126C17.3685 12.9978 17.1932 12.8384 16.8744 12.8184C16.8146 12.8145 16.7548 12.8184 16.695 12.8184C13.4672 12.8184 10.2432 12.8184 7.01536 12.8184C6.95558 12.8184 6.89578 12.8184 6.83601 12.8184C6.50923 12.8424 6.33788 13.0057 6.32593 13.3325C6.31397 13.7231 6.31397 14.1096 6.32593 14.5001C6.33788 14.8189 6.50525 14.9783 6.82406 15.0062C6.89579 15.0142 6.96752 15.0062 7.04324 15.0062C8.64523 15.0062 10.2512 15.0062 11.8532 15.0062ZM13.0607 9.88146C13.3038 9.9253 13.499 9.87748 13.6863 9.8456C15.9976 9.47898 17.7431 7.49841 17.5837 4.84038C17.5757 4.73278 17.5399 4.68097 17.4283 4.68097C17.0736 4.68894 16.711 4.65706 16.3603 4.70887C14.6866 4.95196 13.4791 5.84461 12.7538 7.37487C12.4908 7.93278 12.3633 8.52256 12.3633 9.17213C12.439 9.1004 12.4908 9.05258 12.5426 9.00077C12.9252 8.61821 13.3037 8.23166 13.6943 7.85706C13.9135 7.64585 14.2084 7.64984 14.4036 7.8451C14.6108 8.05233 14.6109 8.33925 14.3877 8.5664C14.0729 8.88919 13.7541 9.20401 13.4353 9.51883C13.3197 9.63439 13.2041 9.74597 13.0607 9.88146ZM11.3351 6.35868C11.3909 6.21522 11.3391 6.10763 11.3312 6.00003C11.2315 4.96392 10.7374 4.15894 9.88858 3.56516C9.13939 3.04312 8.28658 2.97139 7.40987 2.9953C7.30228 2.9953 7.27436 3.05109 7.27436 3.14673C7.27436 3.33801 7.27038 3.5293 7.27436 3.72058C7.30625 4.76466 7.67685 5.64536 8.49379 6.32282C9.10749 6.82892 9.81685 7.06404 10.6099 7.07998C10.5979 6.99629 10.5341 6.96441 10.4903 6.91659C10.2113 6.63365 9.92841 6.35868 9.65344 6.07574C9.49005 5.90837 9.45819 5.65732 9.55782 5.474C9.66143 5.28671 9.86465 5.19505 10.0998 5.23091C10.2313 5.25084 10.3229 5.33452 10.4146 5.42618C10.7214 5.73303 11.0243 6.03988 11.3431 6.35868H11.3351Z" fill="white"/>
</svg>
