<svg xmlns="http://www.w3.org/2000/svg" width="20" height="19" viewBox="0 0 20 19" fill="none">
  <path fill-rule="evenodd" clip-rule="evenodd" d="M2.67 0H17.34C18.81 0 20 1.2 20 2.67V12.45C20 13.92 18.8 15.12 17.33 15.12H15.72L17.55 16.7C17.7 16.83 17.78 17.02 17.78 17.21V17.35C17.78 17.72 17.48 18.02 17.11 18.02H2.89C2.52 18.02 2.22 17.72 2.22 17.35V17.21C2.22 17.01 2.3 16.83 2.45 16.7L4.28 15.12H2.67C1.2 15.12 0 13.92 0 12.45V2.67C0 1.2 1.2 0 2.67 0ZM3.7 16.89H16.3H16.31L14.07 15.11H5.94L3.7 16.89ZM17.34 13.99C18.19 13.99 18.89 13.3 18.89 12.44V2.66C18.89 1.81 18.2 1.11 17.34 1.11H2.67C1.82 1.11 1.12 1.8 1.12 2.66V12.44C1.12 13.29 1.81 13.99 2.67 13.99H17.34ZM12 6.14998C12.19 5.96998 12.36 5.98998 12.48 6.03998L12.47 6.02998C12.58 6.07998 12.71 6.18998 12.71 6.43998V8.86998C12.71 9.01998 12.65 9.15998 12.54 9.23998C12.44 9.30998 12.31 9.33998 12.19 9.28998C12.04 9.23998 11.94 9.12998 11.92 8.97998C11.91 8.92998 11.91 8.82998 11.91 8.82998V7.37998L11.64 7.64998C11.57 7.71998 11.46 7.81998 11.31 7.81998C11.16 7.81998 11.05 7.71998 10.98 7.64998L10.71 7.37998V8.87998C10.71 9.13998 10.54 9.31998 10.31 9.31998C10.07 9.31998 9.91003 9.13998 9.91003 8.86998V6.45998C9.91003 6.24998 9.99003 6.10998 10.16 6.03998C10.27 5.98998 10.45 5.96998 10.63 6.15998L10.9 6.42998C10.993 6.51627 11.0815 6.60697 11.1715 6.69915L11.1715 6.69918L11.1715 6.69922L11.1716 6.69927C11.2171 6.74592 11.263 6.79295 11.31 6.83998L11.71 6.43998L12 6.14998ZM9.26003 6H7.34002C7.21002 6 7.09002 6.04 7.01002 6.12C6.94002 6.19 6.90002 6.29 6.90002 6.4C6.90002 6.64 7.08002 6.8 7.34002 6.8H7.90002V8.85C7.90002 8.9 7.90002 8.97 7.92002 9.04C7.98002 9.2 8.13002 9.3 8.29002 9.3H8.35002C8.55002 9.27 8.69002 9.11 8.69002 8.9V6.8H9.25002C9.39003 6.8 9.51003 6.76 9.59002 6.68C9.66002 6.61 9.70002 6.51 9.70002 6.4C9.70002 6.17 9.52003 6 9.26003 6ZM5 7.56002C5 4.81002 7.2 2.58002 9.94 2.58002V2.59002C12.67 2.59002 14.9 4.76002 14.9 7.52002C14.9 10.28 12.71 12.49 9.96 12.49C7.22 12.49 5 10.31 5 7.56002ZM6.09 7.55002C6.09 9.66002 7.83 11.39 9.95 11.39L9.96 11.38C12.07 11.38 13.8 9.64002 13.8 7.53002C13.8 5.43002 12.05 3.69002 9.94 3.69002C7.82 3.69002 6.09 5.44002 6.09 7.55002Z" fill="white"/>
</svg>
